<svg xmlns="http://www.w3.org/2000/svg" viewBox="0 0 360 250"><defs><style>.cls-1,.cls-2,.cls-4,.cls-5{fill:none;stroke:#fff;stroke-miterlimit:10;}.cls-2,.cls-4,.cls-5{stroke-width:3px;}.cls-3{fill:#fff;}.cls-4{stroke-dasharray:4.5 4.5;}.cls-5{stroke-dasharray:4.18 4.18;}</style></defs><title>transparent</title><g id="content"><circle class="cls-1" cx="177.57" cy="123.17" r="46.63"/><circle class="cls-2" cx="177.57" cy="123.17" r="40.9"/><polygon class="cls-3" points="177.57 97.64 161.54 104.28 161.54 123.82 177.57 130.46 177.57 125.85 177.57 120.48 170.76 117.66 170.76 110.43 177.57 107.61 193.6 114.25 193.6 104.28 177.57 97.64"/><polygon class="cls-3" points="177.57 115.87 177.57 120.48 177.57 125.85 184.39 128.67 184.39 135.9 177.57 138.72 177.57 138.72 161.54 132.08 161.54 142.06 177.57 148.7 177.57 148.7 193.6 142.06 193.6 122.51 177.57 115.87"/><line class="cls-2" x1="177.57" y1="175.35" x2="177.57" y2="177.85"/><line class="cls-4" x1="177.57" y1="182.35" x2="177.57" y2="198.12"/><line class="cls-2" x1="177.57" y1="200.37" x2="177.57" y2="202.87"/><line class="cls-2" x1="177.57" y1="45.09" x2="177.57" y2="47.59"/><line class="cls-5" x1="177.57" y1="51.77" x2="177.57" y2="66.39"/><line class="cls-2" x1="177.57" y1="68.48" x2="177.57" y2="70.98"/><line class="cls-2" x1="141.25" y1="160.3" x2="139.48" y2="162.07"/><line class="cls-4" x1="136.3" y1="165.26" x2="125.15" y2="176.41"/><line class="cls-2" x1="123.55" y1="178" x2="121.79" y2="179.77"/><line class="cls-2" x1="233.36" y1="68.2" x2="231.59" y2="69.96"/><line class="cls-5" x1="228.63" y1="72.92" x2="218.29" y2="83.26"/><line class="cls-2" x1="216.81" y1="84.74" x2="215.05" y2="86.51"/><line class="cls-2" x1="126.2" y1="123.98" x2="123.7" y2="123.98"/><line class="cls-4" x1="119.2" y1="123.98" x2="103.43" y2="123.98"/><line class="cls-2" x1="101.18" y1="123.98" x2="98.68" y2="123.98"/><line class="cls-2" x1="256.46" y1="123.98" x2="253.96" y2="123.98"/><line class="cls-5" x1="249.78" y1="123.98" x2="235.16" y2="123.98"/><line class="cls-2" x1="233.07" y1="123.98" x2="230.57" y2="123.98"/><line class="cls-2" x1="141.25" y1="87.66" x2="139.48" y2="85.89"/><line class="cls-4" x1="136.3" y1="82.71" x2="125.15" y2="71.56"/><line class="cls-2" x1="123.55" y1="69.96" x2="121.79" y2="68.2"/><line class="cls-2" x1="233.36" y1="179.77" x2="231.59" y2="178"/><line class="cls-5" x1="228.63" y1="175.04" x2="218.29" y2="164.7"/><line class="cls-2" x1="216.81" y1="163.22" x2="215.05" y2="161.46"/><circle class="cls-1" cx="177.57" cy="32.85" r="12.23"/><circle class="cls-3" cx="177.57" cy="32.85" r="8.43"/><circle class="cls-1" cx="242.01" cy="59.54" r="12.23" transform="translate(28.78 188.57) rotate(-45)"/><circle class="cls-3" cx="242.01" cy="59.54" r="8.43" transform="translate(28.78 188.57) rotate(-45)"/><circle class="cls-1" cx="268.7" cy="123.98" r="12.23"/><circle class="cls-3" cx="268.7" cy="123.98" r="8.43"/><circle class="cls-1" cx="242.01" cy="188.42" r="12.23" transform="translate(-62.35 226.31) rotate(-45)"/><circle class="cls-3" cx="242.01" cy="188.42" r="8.43" transform="translate(-62.35 226.31) rotate(-45)"/><circle class="cls-1" cx="177.57" cy="215.11" r="12.23"/><circle class="cls-3" cx="177.57" cy="215.11" r="8.43"/><circle class="cls-1" cx="113.14" cy="188.42" r="12.23" transform="translate(-100.09 135.18) rotate(-45)"/><circle class="cls-3" cx="113.14" cy="188.42" r="8.43" transform="translate(-100.09 135.18) rotate(-45)"/><circle class="cls-1" cx="86.44" cy="123.98" r="12.23"/><circle class="cls-3" cx="86.44" cy="123.98" r="8.43"/><circle class="cls-1" cx="113.14" cy="59.54" r="12.23" transform="translate(-8.97 97.44) rotate(-45)"/><circle class="cls-3" cx="113.14" cy="59.54" r="8.43" transform="translate(-8.97 97.44) rotate(-45)"/></g></svg>