<svg xmlns="http://www.w3.org/2000/svg" viewBox="0 0 360 250"><defs><style>.cls-1,.cls-2{fill:none;stroke:#fff;stroke-miterlimit:10;}.cls-2{stroke-width:3px;}.cls-3,.cls-4,.cls-5{fill:#fff;}.cls-4,.cls-5{font-size:15.28px;font-family:Lato-Bold, Lato;font-weight:700;}.cls-4{letter-spacing:-0.03em;}</style></defs><title>ecosystem</title><g id="content"><circle class="cls-1" cx="186.57" cy="75.35" r="52.18"/><circle class="cls-2" cx="186.57" cy="75.35" r="45.77"/><polygon class="cls-3" points="186.57 49.82 170.54 56.46 170.54 76 186.57 82.64 186.57 78.03 186.57 72.67 179.76 69.84 179.76 62.62 186.57 59.8 202.6 66.44 202.6 56.46 186.57 49.82"/><polygon class="cls-3" points="186.57 68.06 186.57 72.67 186.57 78.03 193.39 80.86 193.39 88.08 186.57 90.91 186.57 90.91 170.54 84.27 170.54 94.24 186.57 100.88 186.57 100.88 202.6 94.24 202.6 74.7 186.57 68.06"/><polyline class="cls-2" points="180 161.72 185.35 170.98 190.7 161.72"/><line class="cls-2" x1="185.35" y1="170.98" x2="185.35" y2="135.13"/><polyline class="cls-2" points="139 162.63 129.81 168.11 129.67 157.41"/><line class="cls-2" x1="129.81" y1="168.11" x2="147.32" y2="136.82"/><polyline class="cls-2" points="234.14 162.63 243.33 168.11 243.48 157.41"/><line class="cls-2" x1="243.33" y1="168.11" x2="225.82" y2="136.82"/><circle class="cls-1" cx="123.32" cy="201.76" r="18" transform="translate(-99.18 121.71) rotate(-38.78)"/><circle class="cls-1" cx="123.32" cy="201.76" r="18" transform="translate(-111.2 171.54) rotate(-51.22)"/><circle class="cls-1" cx="247.68" cy="201.76" r="18" transform="translate(-71.77 199.59) rotate(-38.78)"/><text class="cls-4" transform="translate(118.05 207.46)">A</text><text class="cls-5" transform="translate(242 207.46)">C</text><circle class="cls-1" cx="185.2" cy="201.76" r="18" transform="translate(-85.54 160.46) rotate(-38.78)"/><text class="cls-5" transform="translate(180.53 207.46)">B</text><line class="cls-1" x1="190" y1="152.46" x2="190" y2="135.13"/><line class="cls-1" x1="141.33" y1="156.15" x2="151.43" y2="138.35"/><line class="cls-1" x1="231.31" y1="156.15" x2="221.2" y2="138.35"/></g></svg>