<svg xmlns="http://www.w3.org/2000/svg" viewBox="0 0 360 250"><defs><style>.cls-1,.cls-2,.cls-3{fill:none;stroke:#fff;stroke-miterlimit:10;}.cls-2{stroke-width:3px;}.cls-3{stroke-width:2px;}.cls-4{fill:#fff;}</style></defs><title>solid</title><g id="content"><circle class="cls-1" cx="263.64" cy="189.54" r="27.61"/><circle class="cls-2" cx="263.64" cy="189.54" r="23.03"/><polyline class="cls-2" points="217.67 172.56 228.36 173.08 223.47 163.56"/><line class="cls-2" x1="228.36" y1="173.08" x2="195.64" y2="153.64"/><path class="cls-1" d="M65,141.55a55.78,55.78,0,0,1,42.6-91.79l1.75,0"/><path class="cls-1" d="M153.21,137.69a55.81,55.81,0,0,1-74.3,15.69"/><path class="cls-1" d="M141.2,61a55.86,55.86,0,0,1,19.35,62.16"/><line class="cls-3" x1="109.14" y1="39.12" x2="109.14" y2="25.09"/><line class="cls-3" x1="109.36" y1="170.89" x2="109.36" y2="184.91"/><line class="cls-3" x1="76.21" y1="48" x2="69.2" y2="35.86"/><line class="cls-3" x1="142.29" y1="162.01" x2="149.3" y2="174.15"/><line class="cls-3" x1="52.14" y1="72.16" x2="39.99" y2="65.14"/><line class="cls-3" x1="166.37" y1="137.85" x2="178.51" y2="144.86"/><line class="cls-3" x1="43.37" y1="105.11" x2="29.34" y2="105.11"/><line class="cls-3" x1="175.14" y1="104.89" x2="189.16" y2="104.89"/><line class="cls-3" x1="52.25" y1="138.04" x2="40.1" y2="145.05"/><line class="cls-3" x1="166.25" y1="71.96" x2="178.4" y2="64.95"/><line class="cls-3" x1="76.41" y1="162.12" x2="69.39" y2="174.26"/><line class="cls-3" x1="142.1" y1="47.89" x2="149.11" y2="35.74"/><circle class="cls-2" cx="107.61" cy="105.54" r="49.33"/><polygon class="cls-4" points="114.59 79.44 95.61 108.48 108.53 108.48 114.59 79.44"/><polygon class="cls-4" points="103.07 134.04 122.04 105 109.13 105 103.07 134.04"/><polygon class="cls-4" points="264.86 176.21 256.49 179.68 256.49 189.88 264.86 193.35 264.86 190.94 264.86 188.14 261.3 186.67 261.3 182.89 264.86 181.42 273.23 184.89 273.23 179.68 264.86 176.21"/><polygon class="cls-4" points="264.86 185.73 264.86 188.14 264.86 190.94 268.42 192.42 268.42 196.19 264.86 197.66 264.86 197.66 256.49 194.2 256.49 199.41 264.86 202.87 264.86 202.87 273.23 199.41 273.23 189.2 264.86 185.73"/><line class="cls-1" x1="208" y1="167.36" x2="193.58" y2="158.68"/></g></svg>