<?xml version="1.0" encoding="utf-8"?>
<!-- Generator: Adobe Illustrator 22.1.0, SVG Export Plug-In . SVG Version: 6.00 Build 0)  -->
<svg version="1.1" id="Layer_1" xmlns="http://www.w3.org/2000/svg" xmlns:xlink="http://www.w3.org/1999/xlink" x="0px" y="0px"
	 viewBox="0 0 718 595.7" style="enable-background:new 0 0 718 595.7;" xml:space="preserve">
<style type="text/css">
	.st0{fill:#605231;}
	.st1{fill:#FFFFFF;}
	.st2{fill:none;stroke:#FFFFFF;stroke-miterlimit:10;}
	.st3{fill:#F7B100;}
	.st4{enable-background:new    ;}
</style>
<circle id="Ellipse_38" class="st0" cx="146.5" cy="114.4" r="39.7"/>
<g id="Group_55">
	<path id="Path_33" class="st1" d="M335.7,577c-0.5,1.5-1.1,2.9-1.9,4.2v13.5H332V584c-0.6,0.7-1.2,1.5-1.9,2.2l-0.6-2
		c2-2.3,3.6-5.1,4.5-8L335.7,577z M337.8,589.5c1.1-0.3,2.2-0.7,3.3-1.1l0.3,1.6c-1.6,0.5-3.5,1.1-5.7,1.7l-0.5-1.6
		c0.5-0.2,0.7-0.6,0.7-1.3V578c3.4-0.3,6.8-0.9,10.1-1.7l1,1.5c-0.9,0.2-2,0.5-3.3,0.7c0,1.6,0,3.1,0.1,4.4h3.6v1.8h-3.5
		c0,1.8,0.2,3.5,0.6,5.2c0.4,1.4,0.9,2.2,1.4,2.3c0.3-0.1,0.5-1.1,0.8-3.2l1.5,1c-0.4,2.7-1.1,4.1-2.2,4.1c-0.7,0-1.3-0.4-1.8-0.9
		c-0.8-1-1.3-2.2-1.5-3.4c-0.3-1.7-0.5-3.5-0.5-5.2h-4.4V589.5z M342.6,592.6v1.8H336v-1.8H342.6z M342.1,579
		c-1.3,0.2-2.7,0.4-4.2,0.6v3.5h4.3C342.2,581.8,342.1,580.4,342.1,579z"/>
	<path id="Path_34" class="st1" d="M355.3,576.3v2h2.9v1.7h-2.9v2h3.6v1.7h-1.5c-0.1,0.8-0.3,1.6-0.6,2.4h1.5v1.7h-3v2h3.6v1.7h-3.6
		v3.3h-1.8v-3.3h-3.7v-1.7h3.7v-2h-3V586h1.5c-0.2-0.9-0.3-1.7-0.5-2.4h-1.6v-1.7h3.6v-2h-2.9v-1.7h2.9v-2h1.8V576.3z M355.7,583.6
		h-2.6c0.2,0.8,0.3,1.6,0.5,2.4h1.4C355.3,585.2,355.5,584.4,355.7,583.6z M361.2,594.7h-1.8V577h7.9c0.1,1.6,0,3.2-0.4,4.7
		c-0.2,0.8-1,1.1-2.2,1.1h-1.3l-0.5-1.6h1c0.3,0,0.6,0,0.9-0.1c0.2-0.1,0.4-0.2,0.5-0.4c0.2-0.7,0.2-1.4,0.2-2.1h-4.3v5.4h6.3v1.6
		c-0.2,1.9-0.8,3.7-1.7,5.4c0.8,0.8,1.6,1.5,2.5,2.2l-1.2,1.5c-0.9-0.6-1.6-1.4-2.3-2.2c-0.8,0.9-1.7,1.6-2.7,2.2l-0.8-1.5v1.5
		L361.2,594.7z M361.2,593.1c0.9-0.5,1.7-1.2,2.4-2c-1-1.6-1.7-3.3-2-5.2h-0.4V593.1z M364.6,589.5c0.5-1.2,0.9-2.4,1.2-3.7h-2.5
		C363.3,587.1,363.8,588.4,364.6,589.5z"/>
	<path id="Path_35" class="st1" d="M369.8,578.6V577h7.9v1.7h-2.2v2h1.7v12.7h-5.6v1.2h-1.3v-13.9h1.7v-2h-2.2V578.6L369.8,578.6z
		 M375.8,591.9v-4.8h-0.7c-0.7,0-1-0.4-1-1.1v-4h-0.9v1.3c0.1,1.6-0.3,3.2-1.2,4.6l-0.5-0.4v4.4H375.8z M372.3,583.3V582h-0.8v4.8
		C372.1,585.7,372.4,584.5,372.3,583.3z M375.2,588.6v1.6h-3.1v-1.6H375.2z M374.2,578.6h-0.9v2h0.9V578.6z M374.9,585.7
		c0,0.2,0.1,0.3,0.4,0.3h0.5v-4H375v3.7H374.9z M379.1,586.6l-1,0.5c-0.3-1.8-0.7-3.5-1-4.9l1-0.4
		C378.6,583.3,378.9,584.9,379.1,586.6L379.1,586.6z M380.8,576.5v8.9c0,4.3-0.8,7.4-2.2,9.4l-1.3-1.2c1.3-1.7,1.9-4.4,1.9-8.2v-8.9
		H380.8z M382.6,586.7l-0.8,0.4c-0.3-1.8-0.5-3.5-0.8-4.9l0.8-0.3C382,583.3,382.3,584.9,382.6,586.7L382.6,586.7z M384.1,576.6
		v17.8h-1.5v-17.8L384.1,576.6z M385.8,586.6L385,587c-0.2-1.8-0.5-3.5-0.7-4.9l0.8-0.4C385.3,583.2,385.6,584.8,385.8,586.6
		L385.8,586.6z M387.6,576.4v18.3H386v-18.3H387.6z"/>
</g>
<g id="Group_56">
	<path id="Path_36" class="st1" d="M340.6,3.2h7.8V5h-17.8V3.2h7.9c-0.2-0.5-0.4-0.9-0.6-1.3l2.1-0.4C340.2,2,340.4,2.6,340.6,3.2z
		 M343.5,20.1l-0.4-1.7l1.5,0.1c0.7,0,1.1-0.3,1.1-0.8v-5.1h-12.4v7.5h-1.8v-9.2h16V18c0,1.3-0.8,2-2.4,2L343.5,20.1L343.5,20.1z
		 M345.3,5.9v4.2h-11.5V5.9L345.3,5.9L345.3,5.9z M343.6,13.6v4.2h-8.1v-4.2C335.5,13.6,343.6,13.6,343.6,13.6z M343.5,7.3h-7.9v1.3
		h7.9V7.3z M341.9,15h-4.8v1.4h4.8V15z"/>
	<path id="Path_37" class="st1" d="M355.9,1.7v2h2.9v1.7h-2.9v2h3.6v1.7H358c-0.1,0.8-0.3,1.6-0.6,2.4h1.5v1.7h-3v2h3.6v1.7h-3.6
		v3.3h-1.8v-3.3h-3.7v-1.7h3.7v-2h-3v-1.8h1.5c-0.2-0.9-0.3-1.7-0.5-2.4h-1.6V7.3h3.6v-2h-2.9V3.6h2.9v-2h1.8V1.7z M356.3,9h-2.6
		c0.2,0.8,0.3,1.6,0.5,2.4h1.4C355.9,10.6,356.1,9.8,356.3,9z M361.8,20.1H360V2.4h7.9c0.1,1.6,0,3.2-0.4,4.7
		c-0.2,0.8-1,1.1-2.2,1.1H364l-0.5-1.6h1c0.3,0,0.6,0,0.9-0.1c0.2-0.1,0.4-0.2,0.5-0.4c0.2-0.7,0.2-1.4,0.2-2.1h-4.3v5.4h6.3V11
		c-0.2,1.9-0.8,3.7-1.7,5.4c0.8,0.8,1.6,1.5,2.5,2.2l-1.2,1.5c-0.9-0.6-1.6-1.4-2.3-2.2c-0.8,0.9-1.7,1.6-2.7,2.2l-0.8-1.5
		L361.8,20.1z M361.8,18.5c0.9-0.5,1.7-1.2,2.4-2c-1-1.6-1.7-3.3-2-5.2h-0.4V18.5z M365.2,14.9c0.5-1.2,0.9-2.4,1.2-3.7h-2.5
		C364,12.5,364.4,13.8,365.2,14.9z"/>
	<path id="Path_38" class="st1" d="M370.4,4V2.4h7.9v1.7h-2.2v2h1.7v12.7h-5.6V20h-1.3V6h1.7V4H370.4z M376.4,17.3v-4.8h-0.7
		c-0.7,0-1-0.4-1-1.1v-4h-0.9v1.3c0.1,1.6-0.3,3.2-1.2,4.6l-0.5-0.4v4.4H376.4z M372.9,8.7V7.4h-0.8v4.8
		C372.7,11.1,373,9.9,372.9,8.7z M375.8,14v1.6h-3.1V14H375.8z M374.8,4h-0.9v2h0.9V4z M375.6,11.1c0,0.2,0.1,0.3,0.4,0.3h0.5v-4
		h-0.8L375.6,11.1z M379.7,12l-1,0.5c-0.3-1.8-0.7-3.5-1-4.9l1-0.4C379.2,8.7,379.6,10.3,379.7,12z M381.5,1.9v8.9
		c0,4.3-0.8,7.4-2.2,9.4L378,19c1.3-1.7,1.9-4.4,1.9-8.2V1.9H381.5z M383.2,12.1l-0.8,0.4c-0.3-1.8-0.5-3.5-0.8-4.9l0.8-0.3
		C382.6,8.7,382.9,10.3,383.2,12.1z M384.7,2v17.8h-1.5V2H384.7z M386.4,12l-0.8,0.4c-0.2-1.8-0.5-3.5-0.7-4.9l0.8-0.4
		C385.9,8.6,386.2,10.2,386.4,12z M388.2,1.8v18.3h-1.6V1.8H388.2z"/>
</g>
<g id="Group_57">
	<path id="Path_39" class="st1" d="M649.9,291.8h7.8v1.8h-17.8v-1.8h7.9c-0.2-0.5-0.4-0.9-0.6-1.3l2.1-0.4
		C649.6,290.6,649.8,291.2,649.9,291.8z M652.8,308.6l-0.4-1.7l1.5,0.1c0.7,0,1.1-0.3,1.1-0.8v-5h-12.4v7.5h-1.8v-9.2h16v7.1
		c0,1.3-0.8,2-2.4,2L652.8,308.6z M654.6,294.5v4.2h-11.5v-4.2L654.6,294.5z M652.9,302.1v4.2h-8.1v-4.2H652.9z M652.8,295.9h-7.9
		v1.3h7.9V295.9z M651.2,303.5h-4.8v1.4h4.8V303.5z"/>
	<path id="Path_40" class="st1" d="M659.9,291.7c1.9-0.2,3.9-0.6,5.7-1.3l0.6,1.6c-0.7,0.3-1.5,0.5-2.2,0.7v2.9h1.8v1.6H664v0.9
		c0.8,0.9,1.7,1.8,2.4,2.7l-1,1.5c-0.5-1-1-1.8-1.3-2.5v8.8h-1.7v-7.9c-0.4,1.4-1.1,2.8-1.9,4l-0.8-2c1.2-1.6,2.1-3.5,2.6-5.5H660
		v-1.6h2.3v-2.5c-0.7,0.1-1.3,0.2-2,0.3L659.9,291.7z M668.2,304.8c-0.4,1.3-0.9,2.6-1.5,3.8l-1.4-0.9c0.6-1,1.1-2.1,1.4-3.2
		L668.2,304.8z M668.2,294.1c-0.2-0.4-0.5-0.8-0.8-1.2l1.2-0.5H667l-0.5-1.5c3.3,0.1,6.6-0.2,9.9-0.7l0.8,1.4l-2.1,0.3l1.4,0.4
		c-0.2,0.6-0.5,1.2-0.7,1.8h0.9v1.4h-4v0.9h4.6v1.4h-10.9v-1.4h4.5v-0.9h-4v-1.4H668.2z M672.5,303.9c0.5,0.6,0.9,1.2,1.2,1.6
		l-1.2,0.9c-0.4-0.6-0.8-1.3-1.4-2.1l0.6-0.4h-4.5v-1.4h7.8v-0.7h-8.3v-1.2h8.3v-0.7h-7.6v-1.3h9.4v1.9h1.3v1.5h-1.4v2L672.5,303.9z
		 M670.6,308.4c-1.2,0-1.7-0.5-1.7-1.5v-2.5h1.7v2.1c0,0.3,0.1,0.4,0.5,0.4h2.6c0.2,0,0.3-0.1,0.4-0.2c0.2-0.4,0.2-0.9,0.2-1.3
		l1.6,0.5c0,0.7-0.2,1.5-0.6,2.1c-0.4,0.2-0.8,0.3-1.2,0.3h-3.5L670.6,308.4z M669.8,294.1h1.6c-0.2-0.5-0.5-0.9-0.7-1.3l1.3-0.5
		c-1,0-2,0.1-3.1,0.1C669.3,292.9,669.6,293.5,669.8,294.1z M673.1,294.1h1.2c0.3-0.7,0.6-1.4,0.8-2.1c-0.9,0.1-1.9,0.2-2.9,0.3
		L673.1,294.1z M678.2,307.3l-1.2,0.9c-0.5-1.1-1.1-2.2-1.8-3.2l1.2-0.7C677.1,305.2,677.7,306.2,678.2,307.3L678.2,307.3z"/>
	<path id="Path_41" class="st1" d="M694.8,296v1.8h-4.9v3h5.8v1.8h-5.8v3.7c1.7,0.2,3.3,0.3,5,0.3c1,0,2-0.1,3.1-0.1l-0.4,1.9h-1.9
		c-4.2,0-7.2-0.4-9-1.1c-1.2-0.6-2.3-1.5-3.1-2.6c-0.7,1.5-1.7,2.9-2.8,4.1l-1.2-1.5c2-2.2,3.3-4.9,3.8-7.9l1.8,0.3
		c-0.2,1.1-0.5,2.2-0.9,3.3c0.7,1.4,2,2.5,3.5,3h0.2v-8.1h-5.1v-1.8L694.8,296L694.8,296z M697.2,296.7h-1.9v-2.8h-13v2.9h-1.9v-4.6
		h7.5c-0.3-0.6-0.6-1.2-0.9-1.7l2-0.3c0.3,0.7,0.6,1.4,0.8,2.1h7.3v4.4H697.2z"/>
	<path id="Path_42" class="st1" d="M701.6,294.3c0,1.9-0.2,3.8-0.6,5.7l-1.5-0.4c0.4-1.8,0.6-3.6,0.7-5.4L701.6,294.3z M704.1,290.3
		v18.3h-1.9v-18.3H704.1z M706.5,296.4c0.5-1.6,0.8-3.2,0.9-4.8l1.7,0.2c0,0.7-0.1,1.4-0.2,2.1h2.4v-3.6h1.9v3.6h4.2v1.8h-4.2v4.4h4
		v1.9h-4v4.3h4.7v1.8h-12.2v-1.8h5.6V302h-4.5v-1.8h4.5v-4.4h-2.7c-0.4,1.3-0.9,2.6-1.5,3.9l-1.4-1.2c0.2-0.3,0.3-0.6,0.4-0.9
		l-0.9,0.2c-0.3-1.2-0.6-2.4-1.1-3.5l1.4-0.4C705.9,294.7,706.3,295.5,706.5,296.4L706.5,296.4z"/>
</g>
<g id="Group_58">
	<path id="Path_43" class="st1" d="M10,291.8h7.8v1.8H0v-1.8h7.9c-0.2-0.5-0.4-0.9-0.6-1.3l2.1-0.4C9.7,290.6,9.9,291.2,10,291.8z
		 M12.9,308.6l-0.4-1.7L14,307c0.7,0,1.1-0.3,1.1-0.8v-5H2.7v7.5H0.9v-9.2h16v7.1c0,1.3-0.8,2-2.4,2L12.9,308.6z M14.7,294.5v4.2
		H3.2v-4.2H14.7z M13,302.1v4.2H4.9v-4.2H13z M12.9,295.9H5v1.3h7.9V295.9z M11.3,303.5H6.5v1.4h4.8
		C11.3,304.9,11.3,303.5,11.3,303.5z"/>
	<path id="Path_44" class="st1" d="M24.5,298.2l-1.3,1.3c-1-1.1-2.2-2.1-3.4-2.9l1.3-1.3C22.3,296.1,23.5,297.1,24.5,298.2z
		 M24.5,301.3c-0.8,2.5-1.7,4.9-2.8,7.2l-1.8-0.8c1.1-2.3,2.1-4.7,2.9-7.1L24.5,301.3z M25,293.3l-1.3,1.3c-1-1.1-2.2-2.1-3.4-2.9
		l1.4-1.3C22.9,291.4,24.1,292.4,25,293.3L25,293.3z M32.8,290.2v2.4h4.9v0.9c-0.2,1.2-0.6,2.4-1.1,3.5l-1.8-0.5
		c0.4-0.7,0.7-1.4,0.9-2.2h-2.9v3.6h3.6v1.6c-0.4,1.8-1.3,3.5-2.5,5c1.4,1,2.9,1.9,4.5,2.5l-1.1,1.7c-1.7-0.7-3.3-1.7-4.7-2.9
		c-1.5,1.3-3.2,2.3-5,3l-1.2-1.5c1.8-0.6,3.4-1.5,4.9-2.7c-1.4-1.4-2.3-3-2.8-4.9h-0.8c-0.1,3.2-1.1,6.3-2.8,9l-1.5-1.3
		c1.7-2.6,2.5-5.6,2.5-8.7v-6.1h5v-2.4H32.8z M27.7,294.3v3.6H31v-3.6H27.7z M34.5,299.7h-4.3c0.4,1.4,1.2,2.7,2.3,3.7
		C33.4,302.3,34.1,301,34.5,299.7L34.5,299.7z"/>
	<path id="Path_45" class="st1" d="M53.5,290.3v3.6h4c0,6.7-0.1,10.9-0.3,12.4c-0.1,1.3-1.2,2.3-2.5,2.2c0,0,0,0-0.1,0
		c-0.6,0-1.3,0-1.9-0.1l-0.5-1.7c0.7,0.1,1.4,0.1,2.1,0.1c0.7,0,1-0.4,1.2-1.3c0.1-1,0.2-4.3,0.2-9.9h-2.2v0.7
		c-0.1,5.6-1.3,9.6-3.6,12.2l-1.1-1c-2.6,0.3-5.6,0.6-8.9,0.8l-0.2-1.7c1.4-0.1,2.8-0.2,4.1-0.3v-1.4h-3.4v-1.6h3.4v-1.1h-3.5v-6.4
		h3.5v-1h-3.9v-1.6h3.9v-1c-1,0.1-2.2,0.1-3.3,0.1l-0.5-1.5c2.9,0,5.7-0.2,8.5-0.8l0.8,1.4c-1.2,0.3-2.4,0.5-3.7,0.6v1.2h3.8v1.6
		h-3.8v1h3.5v6.4h-3.5v1.1h3.5v1.6h-3.5v1.2c1.1-0.1,2.3-0.2,3.4-0.4v0.9c1.8-2.3,2.7-5.8,2.7-10.5v-0.7h-1.8v-1.7h1.8v-3.6h1.8
		V290.3z M43.9,298.6v-1.2H42v1.2H43.9z M43.9,299.9H42v1.2h1.9L43.9,299.9z M45.4,298.6h1.9v-1.2h-1.9
		C45.4,297.4,45.4,298.6,45.4,298.6z M47.4,299.9h-1.9v1.2h1.9L47.4,299.9z"/>
	<path id="Path_46" class="st1" d="M61.7,294.3c0,1.9-0.2,3.8-0.6,5.7l-1.5-0.4c0.4-1.8,0.6-3.6,0.7-5.4L61.7,294.3z M64.2,290.3
		v18.3h-1.9v-18.3H64.2z M66.6,296.4c0.5-1.6,0.8-3.2,0.9-4.8l1.7,0.2c0,0.7-0.1,1.4-0.2,2.1h2.4v-3.6h1.9v3.6h4.2v1.8h-4.2v4.4h4
		v1.9h-4v4.3h4.8v1.8H65.9v-1.8h5.6V302H67v-1.8h4.5v-4.4h-2.7c-0.4,1.3-0.9,2.6-1.5,3.9l-1.4-1.2c0.2-0.3,0.3-0.6,0.4-0.9l-0.9,0.2
		c-0.3-1.2-0.6-2.4-1.1-3.5l1.4-0.4C66.1,294.7,66.4,295.5,66.6,296.4z"/>
</g>
<g id="Group_59">
	<line id="Line_78" class="st2" x1="98.2" y1="299.4" x2="618.9" y2="299.4"/>
	<line id="Line_79" class="st2" x1="358.5" y1="39.1" x2="358.5" y2="559.7"/>
</g>
<circle id="Ellipse_39" class="st3" cx="511.4" cy="157.7" r="38.3"/>
<path id="Path_47" class="st1" d="M130.4,119.7c-0.7,1.3-1.5,2.6-2.5,3.7l-1.5-1.1c1-1,1.9-2.1,2.5-3.4L130.4,119.7z M129.7,105.1
	v2.1h3.5v-2h1.8v2h1v1.8h-1v8h1.1v1.8h-9.6V117h1.3v-8h-1.1v-1.8h1.1v-2.1H129.7z M129.7,109v1.6h3.5V109H129.7z M133.1,113.7v-1.6
	h-3.5v1.6H133.1z M133.1,116.9v-1.6h-3.5v1.6H133.1z M135.2,121.7c1.2-2,1.8-4.2,1.7-6.5v-9.6h7.1v15.7c0,1.3-0.7,1.9-2,1.9h-2.1
	l-0.5-1.9c0.7,0,1.4,0.1,2,0.1c0.4,0,0.7-0.3,0.7-0.7c0,0,0-0.1,0-0.1V117h-3.4c-0.2,2.4-1,4.6-2.4,6.6l-1.4-1.3l-1.1,0.8
	c-0.6-1.1-1.3-2.2-2-3.3l1.5-0.9C134,119.8,134.6,120.7,135.2,121.7z M142.1,107.5h-3.3v3.1h3.3V107.5z M138.8,115.3h3.3v-3.1h-3.3
	V115.3z"/>
<path id="Path_48" class="st1" d="M162.2,112.9v7.9h-3.8c2.1,0.3,4.2,0.7,6.2,1.2l-0.6,1.5c-2.2-0.6-4.5-1.1-6.8-1.5l0.6-1.3H153
	l0.8,1.1c-2.1,0.8-4.3,1.4-6.5,1.6l-0.8-1.4c2-0.2,4.1-0.6,6-1.3h-3.6v-7.8H162.2z M147.2,110.5l-0.6-1.8c2-0.8,3.8-2.1,5.3-3.7
	l1.6,0.8c-0.6,0.8-1.2,1.5-2,2.1v4.4h-1.8v-3.1C148.8,109.6,148,110.1,147.2,110.5z M160.3,115.3v-0.9h-9.5v0.9H160.3z M160.3,117.3
	v-0.9h-9.5v0.9H160.3z M160.3,118.4h-9.5v0.9h9.5V118.4z M157.3,112.1c-1.3,0-2-0.6-2-1.9v-5.1h1.9v1.9l6.3-0.4v1.7l-6.3,0.4v1.2
	c0,0.4,0.2,0.7,0.6,0.7h3.6c0.3,0,0.6-0.1,0.8-0.2c0.3-0.4,0.4-0.8,0.4-1.3l1.7,0.6c-0.2,1.2-0.4,1.9-0.8,2.2
	c-0.5,0.2-1.1,0.3-1.7,0.3C161.8,112.2,157.3,112.1,157.3,112.1z"/>
<circle id="Ellipse_40" class="st0" cx="235.4" cy="209.9" r="39.7"/>
<circle id="Ellipse_41" class="st0" cx="439" cy="390.7" r="39.7"/>
<circle id="Ellipse_42" class="st0" cx="520.8" cy="427" r="39.7"/>
<circle id="Ellipse_43" class="st0" cx="581.2" cy="497.2" r="39.7"/>
<path id="Path_49" class="st1" d="M224.4,216.9c0,1.3-0.7,1.9-2,1.9h-1.5l-0.5-1.7c0.5,0,1,0.1,1.5,0.1s0.7-0.3,0.7-1V212
	c-0.9,0.2-1.9,0.4-2.8,0.5c-0.1,2.2-0.6,4.3-1.6,6.3l-1.4-1.3c0.9-2.1,1.4-4.4,1.4-6.7v-9.9h6.2L224.4,216.9L224.4,216.9z
	 M222.6,206.4v-3.6h-2.7v3C220.8,206.1,221.7,206.3,222.6,206.4z M222.6,210.6v-2.4c-0.9-0.2-1.8-0.4-2.7-0.6v3.5
	C220.9,210.9,221.8,210.7,222.6,210.6L222.6,210.6z M234,208.9v1.8c-0.4,1.7-1.3,3.4-2.5,4.7c1.2,0.9,2.5,1.6,3.9,2.1l-1,1.6
	c-1.5-0.6-2.9-1.5-4.1-2.5c-1.4,1.1-2.9,1.9-4.6,2.5l-1-1.6c1.5-0.5,2.9-1.3,4.2-2.2c-1.2-1.3-2.1-2.8-2.6-4.5h-0.9V209h8.6
	L234,208.9L234,208.9z M233.1,201.2v4.2c0,0.4,0.2,0.7,0.6,0.7h1.4v1.8h-1.9c-1,0.1-1.9-0.6-2-1.6c0-0.1,0-0.3,0-0.4v-2.8h-2.9v0.9
	c0.1,1.8-0.8,3.5-2.2,4.6l-1.3-1.4c1.1-0.6,1.7-1.8,1.7-3v-2.9h6.6L233.1,201.2L233.1,201.2z M230.1,214.1c0.9-1,1.6-2.1,2.1-3.3
	H228C228.5,212,229.2,213.1,230.1,214.1L230.1,214.1z"/>
<path id="Path_50" class="st1" d="M255,201.2v1.6h-5.9v1.3h4.5v4.7h-15.1v-4.7h4.5v-1.3h-5.9v-1.6H255z M254.7,212.7v1.6h-7.5v4.7
	h-1.8v-4.7h-7.9v-1.6H254.7z M243.7,215.9c-1.5,1.2-3.1,2.2-4.9,2.9l-1.1-1.5c1.7-0.6,3.3-1.5,4.8-2.6L243.7,215.9z M252.8,209.9
	v1.6h-13.4v-1.6H252.8z M243,205.7h-2.6v1.6h2.6V205.7z M247.4,202.9h-2.6v1.3h2.6V202.9z M247.4,205.7h-2.6v1.6h2.6V205.7z
	 M254.9,217.4l-1.3,1.3c-1.4-1.1-2.9-2-4.5-2.9l1.3-1.2C252.2,215.6,253.7,216.6,254.9,217.4z M251.8,205.7h-2.6v1.6h2.6V205.7z"/>
<path id="Path_52" class="st1" d="M427.9,383.2c-1.1,3.5-3,6.6-5.6,9.2l-1.5-1.3c2.5-2.3,4.4-5.3,5.3-8.6L427.9,383.2z M437.3,399.5
	l-1.8,0.8c-0.3-0.7-0.5-1.3-0.8-1.9c-3.5,0.5-7.4,0.9-11.6,1.2l-0.3-1.8c1.4-0.5,3.4-3.5,5.9-9.2l1.9,0.6c-1.3,3-3,5.8-4.9,8.4
	c2.8-0.2,5.6-0.5,8.2-0.9c-0.7-1.3-1.4-2.5-2.1-3.6l1.7-0.6C435,394.7,436.3,397,437.3,399.5z M434.2,382.4c0.6,3.3,2.3,6.4,4.8,8.6
	l-1.5,1.3c-2.3-2.2-4-5-4.8-8.1h-3.2v-1.8H434.2z"/>
<path id="Path_53" class="st1" d="M446.2,382.6c-0.4,1.2-0.8,2.4-1.4,3.6v14.1h-1.9v-10.9c-0.6,0.8-1.2,1.6-1.8,2.3l-0.6-1.9
	c1.8-2.4,3.2-5.2,4-8.1L446.2,382.6z M457.5,389.5v7.9h-2.9c1.6,0.3,3.1,0.8,4.6,1.3l-0.6,1.5c-1.6-0.7-3.4-1.2-5.1-1.6l0.6-1.3
	h-3.4l0.9,1c-1.6,0.9-3.4,1.5-5.2,2l-0.7-1.5c1.6-0.3,3.1-0.8,4.6-1.4h-3.1v-7.9H457.5z M453.3,381.8v1h5.1v1.5h-5.1v0.8h4.4v1.5
	h-4.4v0.8h5.6v1.5h-12.7v-1.5h5.3v-0.8h-4.3v-1.5h4.2v-0.8h-4.9v-1.5h4.9v-1H453.3z M455.7,391.8V391h-6.8v0.8H455.7z M455.7,393.9
	v-0.8h-6.8v0.8H455.7z M455.7,395.2h-6.8v0.8h6.8L455.7,395.2z"/>
<path id="Path_54" class="st1" d="M515.9,423.6v1.8H511v3h5.8v1.8H511v3.7c1.7,0.2,3.3,0.3,5,0.3c1,0,2-0.1,3.1-0.1l-0.4,1.9h-1.9
	c-4.2,0-7.2-0.4-9-1.1c-1.2-0.6-2.3-1.5-3.1-2.6c-0.7,1.5-1.7,2.9-2.8,4.1l-1.2-1.5c2-2.2,3.3-4.9,3.8-7.9l1.8,0.3
	c-0.2,1.1-0.5,2.2-0.9,3.3c0.7,1.4,2,2.5,3.5,3h0.2v-8.1H504v-1.8L515.9,423.6L515.9,423.6z M518.3,424.3h-1.9v-2.8h-13v2.9h-1.9
	v-4.6h7.5c-0.3-0.6-0.6-1.2-0.9-1.7l2-0.3c0.3,0.7,0.6,1.4,0.8,2.1h7.3v4.4L518.3,424.3z"/>
<path id="Path_55" class="st1" d="M526.8,419.7c0.2-0.7,0.4-1.3,0.6-1.9l1.9,0.2c-0.2,0.6-0.3,1.2-0.5,1.7h10v1.9h-10.7
	c-0.7,1.7-1.6,3.3-2.7,4.7v10h-1.9v-7.9c-0.5,0.6-1.1,1.1-1.6,1.6l-1.2-1.5c2.3-1.9,4.1-4.3,5.3-7h-4.5v-1.9L526.8,419.7z
	 M532.3,429.1v-1.6c1.1-0.6,2.1-1.3,3.1-2.1h-7.2v-1.7h9.6v1.7c-1.1,1.1-2.3,2-3.6,2.9v0.9h4.8v1.8h-4.8v3.3c0.2,1-0.5,1.9-1.5,2.1
	c-0.2,0-0.3,0-0.5,0h-2.5l-0.5-1.8c0.7,0,1.4,0.1,2.2,0.1c0.4,0.1,0.8-0.2,0.9-0.7c0-0.1,0-0.1,0-0.2v-2.7h-5.6v-1.8h5.6V429.1z"/>
<path id="Path_56" class="st1" d="M566.1,495.9l-1.3,1.3c-1.1-1.1-2.2-2.1-3.5-3l1.3-1.3C563.8,493.8,565,494.8,566.1,495.9z
	 M566.4,499c-0.8,2.5-1.7,4.9-2.8,7.2l-1.9-0.8c1.1-2.3,2.1-4.6,2.9-7L566.4,499z M566.5,490.8l-1.3,1.3c-1-1-2.2-1.9-3.4-2.7
	l1.3-1.2C564.3,488.9,565.4,489.8,566.5,490.8z M572.1,493.7V491c-1.4,0.1-3,0.2-4.6,0.2l-0.6-1.7c3.7,0.1,7.4-0.4,10.9-1.4l0.9,1.6
	c-1.6,0.6-3.2,0.9-4.8,1.1v2.9h5.6v1.8H574v2.6h4.4v8.3h-1.9v-1h-6.8v1h-1.9V498h4.3v-2.5h-5.5v-1.8L572.1,493.7z M576.5,503.7v-3.8
	h-6.8v3.8H576.5z"/>
<path id="Path_57" class="st1" d="M587.3,489.8c0.2-0.7,0.4-1.3,0.6-1.9l1.9,0.2c-0.2,0.6-0.3,1.2-0.5,1.7h10v1.9h-10.7
	c-0.7,1.7-1.6,3.3-2.7,4.7v10.1H584v-7.9c-0.5,0.6-1.1,1.1-1.6,1.6l-1.2-1.5c2.3-1.9,4.1-4.3,5.3-7H582v-1.9L587.3,489.8z
	 M592.8,499.2v-1.6c1.1-0.6,2.1-1.3,3.1-2.1h-7.2v-1.7h9.6v1.7c-1.1,1.1-2.3,2-3.6,2.9v0.9h4.8v1.8h-4.8v3.3c0.2,1-0.5,1.9-1.5,2.1
	c-0.2,0-0.3,0-0.5,0h-2.5l-0.5-1.8c0.7,0,1.4,0.1,2.2,0.1c0.4,0.1,0.8-0.2,0.9-0.7c0-0.1,0-0.1,0-0.2v-2.7h-5.6v-1.8h5.6
	L592.8,499.2L592.8,499.2z"/>
<g class="st4">
	<path class="st1" d="M470.1,216.3c0.1-0.9,0.1-1.8,0.1-2.8v-1.2h2.1v0.7c0,1.1-0.1,2.2-0.2,3.3h8.2v2h-7.7
		c1.4,4.7,4.2,8.2,8.2,10.7l-1.3,1.7c-3.8-2.5-6.5-5.9-8.1-10.3c-0.5,1.7-1.2,3.3-2,4.7c0.9,0.9,2,2.1,3.2,3.5l-1.5,1.5
		c-0.9-1.2-1.8-2.3-2.8-3.4c-1.3,1.6-3,3-4.9,4L462,229c4.2-2.1,6.8-5.7,7.8-10.7h-7.2v-2H470.1z"/>
	<path class="st1" d="M500.6,220v1.8h-7.5c-0.1,0.3-0.3,0.5-0.4,0.7h7.3c0,2-0.1,3.6-0.3,4.8c-0.2,1.2-0.4,2.1-0.8,2.6
		c-0.4,0.5-0.9,0.7-1.7,0.8h-1.8l-0.5-1.9c0.5,0,0.9,0.1,1.3,0.1c0.7,0,1.1-0.3,1.3-0.9c0.2-0.6,0.3-1.9,0.4-3.8h-0.6
		c-1.4,3.3-3.5,5.5-6.4,6.5L490,229c2.6-0.9,4.5-2.5,5.7-4.8h-1.1c-1,1.7-2.6,3.1-4.8,4.1l-1.2-1.5c1.8-0.7,3.1-1.6,4-2.6h-1.3
		c-0.5,0.5-1.1,0.9-1.8,1.3l-0.8-1.1c0,0.1,0,0.1,0,0.2c0,0.9-0.2,1.6-0.5,2c-0.5,0.5-1.5,0.8-2.7,0.8l-0.6-1.9v5.2h-2v-17.9h5.9
		v1.5c-0.4,1.7-0.9,3.4-1.5,5.3c0.7,1.6,1.2,3,1.4,4.2c1.1-0.6,2-1.3,2.6-2.1h-2.4V220H500.6z M485.8,225.6c0.4,0,0.6-0.1,0.8-0.2
		c0.1-0.1,0.2-0.4,0.2-0.7c0-1.4-0.5-3-1.5-4.7c0.6-1.9,1.2-3.7,1.5-5.3h-2v10.8C485.2,225.5,485.5,225.6,485.8,225.6z M499.3,212.9
		v6.4h-9.4v-6.4H499.3z M497.4,215.3v-0.8h-5.5v0.8H497.4z M497.4,216.8h-5.5v0.9h5.5V216.8z"/>
	<path class="st1" d="M503.7,230.8l-1.6-1.4c0.8-1.3,1.2-3,1.2-5v-5.1h7.9v9.9c0,1-0.6,1.5-1.9,1.5h-1.8l-0.5-1.9
		c0.6,0.1,1.2,0.1,1.7,0.1c0.3,0,0.5-0.1,0.5-0.4v-1.7c-1.2,0.3-2.4,0.5-3.6,0.7l-0.4-1.5C505,227.9,504.5,229.5,503.7,230.8z
		 M512.5,217.7l-1.7,1.2c-0.2-0.4-0.4-0.8-0.6-1.2c-2.1,0.3-4.6,0.6-7.5,0.7l-0.6-1.7c0.4-0.1,0.7-0.3,0.9-0.5
		c1.2-1.4,2.1-2.8,2.7-4l2,0.6c-0.8,1.6-1.7,2.8-2.7,3.8c1.3-0.1,2.7-0.2,4.2-0.4c-0.3-0.5-0.7-1-1-1.6l1.6-1
		C511,215.2,511.9,216.6,512.5,217.7z M508.1,224.3c-0.7-0.2-1.3-0.3-2-0.4c-0.3-0.1-0.5-0.1-0.8-0.1v0.4c0,0.5,0,1-0.1,1.5
		c1.4-0.1,2.7-0.3,4-0.6v-4h-3.9v1.2l1.6,0.2c0.5,0.1,1.1,0.2,1.9,0.3L508.1,224.3z M514.8,230.4c-1.4,0-2.2-0.6-2.2-1.9v-6.7h2.1
		v1.8l5-0.4v1.9l-5,0.4v2.6c0,0.3,0.2,0.5,0.7,0.5h2.3c0.3,0,0.5-0.1,0.6-0.3c0.2-0.2,0.3-0.9,0.3-1.9l1.9,0.6
		c-0.2,1.7-0.4,2.7-0.8,3c-0.4,0.3-0.9,0.5-1.6,0.5H514.8z M514.7,212.6v2l4.9-0.4v1.9l-4.9,0.4v2.2c0,0.4,0.2,0.6,0.7,0.6h4.7v1.9
		h-5.3c-1.4,0-2.1-0.7-2.1-2v-6.6H514.7z"/>
	<path class="st1" d="M522.8,220.2l-0.7-2.1c2-1.8,3.4-3.8,4.2-6l2,0.4c-0.2,0.5-0.4,1-0.6,1.5h4.1c-0.3-0.6-0.6-1.1-0.9-1.6
		l2.2-0.4c0.3,0.6,0.5,1.2,0.8,2h5.6v1.7h-5.8v1h4.9v1.6h-4.9v0.9h4.9v1.6h-4.9v1h6.1v1.7h-15.1v-5.3
		C524.2,218.9,523.5,219.6,522.8,220.2z M538.8,230.8h-2.1V230h-9.9v0.8h-2.1v-6.2h14V230.8z M531.7,215.7h-4.9v1h4.9V215.7z
		 M531.7,218.3h-4.9v0.9h4.9V218.3z M531.7,220.9h-4.9v1h4.9V220.9z M536.7,228.2v-1.8h-9.9v1.8H536.7z"/>
	<path class="st1" d="M559.3,212.9v1.7h-6.9v0.8h7.6v4.2h-1.9v-2.6h-5.7v3.9h-2v-3.9h-5.7v2.6h-1.9v-4.2h7.6v-0.8h-6.9v-1.7H559.3z
		 M558.5,221.3v6.5h-6.2v0.7c0,0.3,0.1,0.4,0.5,0.4h4.8c0.4,0,0.7-0.1,0.9-0.3c0.2-0.2,0.4-0.8,0.4-1.8l1.8,0.6
		c-0.2,1.6-0.5,2.5-0.9,2.8c-0.4,0.3-1,0.4-1.9,0.4h-5.7c-1.3,0-2-0.6-2-1.7v-1.2h-6.2v-6.5H558.5z M549.6,220.3
		c-0.8,0.2-2.1,0.4-4,0.5l-0.4-1.3c1.9-0.1,3.2-0.2,4-0.3L549.6,220.3z M549.7,217.6l-0.5,1.2c-1.2-0.2-2.5-0.3-3.8-0.4l0.6-1.2
		C547.3,217.3,548.5,217.4,549.7,217.6z M550.3,223.8v-1H546v1H550.3z M550.3,225.2H546v1h4.3V225.2z M552.4,223.8h4.2v-1h-4.2
		V223.8z M556.6,225.2h-4.2v1h4.2V225.2z M557.6,219.7l-0.6,1.3c-1.3-0.3-2.6-0.5-3.9-0.7l0.6-1.1
		C555.1,219.3,556.4,219.5,557.6,219.7z M553.2,217.7c1.3-0.1,2.5-0.3,3.6-0.5l0.5,1.3c-1.1,0.2-2.4,0.3-3.9,0.4L553.2,217.7z"/>
</g>
<path class="st1" d="M494,148.9V139c0-0.2,0.2-0.4,0.4-0.5c1.5-0.5,2.7-1.1,4.2-1.6c2.9-1.1,5.7-2.2,8.6-3.5c1.3-0.5,2.6-1.1,4-1.6
	h0.5c2.9,1.1,6,2.4,9,3.5c2.6,1.1,5.3,2,7.9,3.1c0.2,0,0.4,0.2,0.4,0.4v9.7c0,0.4,0,0.4-0.4,0.2c-3.1-1.3-6.2-2.6-9.3-3.7
	c-2.4-0.9-4.8-2-7.3-2.9c-0.2,0-0.4-0.2-0.7,0c-2.2,0.9-4.6,1.8-6.8,2.7c-0.2,0.2-0.4,0.2-0.4,0.5v6.8c0,0.2,0.2,0.4,0.4,0.5
	c1.2,0.6,2.5,1.1,3.8,1.5l2.7,1.1c0.5,0.2,0.5,0.2,0.5-0.4v-4c0-0.4,0-0.4,0.4-0.2c2.9,1.3,6,2.4,9,3.7c2.6,1.1,5.1,2,7.7,3.1
	c0.4,0.2,0.4,0.2,0.4,0.5v19.6c0,0.4-0.2,0.4-0.4,0.5l-16.5,6.6c-0.4,0.2-0.9,0.2-1.3,0l-9.9-3.8c-2.2-0.9-4.4-1.8-6.6-2.6
	c-0.4,0-0.4-0.2-0.4-0.4v-9.7c0-0.4,0-0.4,0.4-0.2c1.1,0.4,2.4,0.9,3.5,1.3c3.5,1.5,7.1,2.7,10.6,4.2c0.9,0.4,1.6,0.7,2.6,1.1h0.5
	c2.2-0.9,4.4-1.8,6.6-2.6c0.4-0.2,0.4-0.2,0.4-0.5v-6.8c0-0.2,0-0.4-0.4-0.4c-2.2-0.9-4.4-1.8-6.6-2.6c-0.4-0.2-0.5-0.2-0.5,0.4v4
	c0,0.4,0,0.4-0.4,0.2l-5.5-2.2c-3.1-1.3-6-2.4-9.1-3.7c-0.7-0.3-1.4-0.6-2-0.9c0-0.4,0-0.5,0-0.7V148.9"/>
</svg>
