<?xml version="1.0" encoding="utf-8"?>
<!-- Generator: Adobe Illustrator 22.1.0, SVG Export Plug-In . SVG Version: 6.00 Build 0)  -->
<svg version="1.1" id="Layer_1" xmlns="http://www.w3.org/2000/svg" xmlns:xlink="http://www.w3.org/1999/xlink" x="0px" y="0px"
	 viewBox="0 0 718 595.7" style="enable-background:new 0 0 718 595.7;" xml:space="preserve">
<style type="text/css">
	.st0{fill:#605231;}
	.st1{fill:#F7B100;}
	.st2{fill:#FFFFFF;}
	.st3{fill:none;stroke:#FFFFFF;stroke-miterlimit:10;}
	.st4{font-family:'Lato-Bold';}
	.st5{font-size:18.28px;}
</style>
<circle id="Ellipse_38" class="st0" cx="146.5" cy="114.4" r="39.7"/>
<circle id="Ellipse_39" class="st1" cx="511.4" cy="157.7" r="38.3"/>
<circle id="Ellipse_40" class="st0" cx="235.4" cy="209.9" r="39.7"/>
<circle id="Ellipse_41" class="st0" cx="439" cy="390.7" r="39.7"/>
<circle id="Ellipse_42" class="st0" cx="520.8" cy="427" r="39.7"/>
<circle id="Ellipse_43" class="st0" cx="581.2" cy="497.2" r="39.7"/>
<path class="st2" d="M494,148.9V139c0-0.2,0.2-0.4,0.4-0.5c1.5-0.5,2.7-1.1,4.2-1.6c2.9-1.1,5.7-2.2,8.6-3.5c1.3-0.5,2.6-1.1,4-1.6
	h0.5c2.9,1.1,6,2.4,9,3.5c2.6,1.1,5.3,2,7.9,3.1c0.2,0,0.4,0.2,0.4,0.4v9.7c0,0.4,0,0.4-0.4,0.2c-3.1-1.3-6.2-2.6-9.3-3.7
	c-2.4-0.9-4.8-2-7.3-2.9c-0.2,0-0.4-0.2-0.7,0c-2.2,0.9-4.6,1.8-6.8,2.7c-0.2,0.2-0.4,0.2-0.4,0.5v6.8c0,0.2,0.2,0.4,0.4,0.5
	c1.2,0.6,2.5,1.1,3.8,1.5l2.7,1.1c0.5,0.2,0.5,0.2,0.5-0.4v-4c0-0.4,0-0.4,0.4-0.2c2.9,1.3,6,2.4,9,3.7c2.6,1.1,5.1,2,7.7,3.1
	c0.4,0.2,0.4,0.2,0.4,0.5v19.6c0,0.4-0.2,0.4-0.4,0.5l-16.5,6.6c-0.4,0.2-0.9,0.2-1.3,0l-9.9-3.8c-2.2-0.9-4.4-1.8-6.6-2.6
	c-0.4,0-0.4-0.2-0.4-0.4v-9.7c0-0.4,0-0.4,0.4-0.2c1.1,0.4,2.4,0.9,3.5,1.3c3.5,1.5,7.1,2.7,10.6,4.2c0.9,0.4,1.6,0.7,2.6,1.1h0.5
	c2.2-0.9,4.4-1.8,6.6-2.6c0.4-0.2,0.4-0.2,0.4-0.5v-6.8c0-0.2,0-0.4-0.4-0.4c-2.2-0.9-4.4-1.8-6.6-2.6c-0.4-0.2-0.5-0.2-0.5,0.4v4
	c0,0.4,0,0.4-0.4,0.2l-5.5-2.2c-3.1-1.3-6-2.4-9.1-3.7c-0.7-0.3-1.4-0.6-2-0.9c0-0.4,0-0.5,0-0.7V148.9"/>
<g>
	<path class="st2" d="M123.1,110v3.4h4.3v1.7h-4.3v4.7H121v-11.6h7.3v1.7H123.1z"/>
	<path class="st2" d="M136.2,111.7v8.2H135c-0.2,0-0.4-0.1-0.5-0.4l-0.1-0.7c-0.3,0.3-0.7,0.6-1.1,0.8c-0.4,0.2-0.9,0.3-1.4,0.3
		c-0.4,0-0.8-0.1-1.2-0.2c-0.3-0.1-0.6-0.4-0.9-0.6c-0.2-0.3-0.4-0.6-0.5-1c-0.1-0.4-0.2-0.8-0.2-1.3v-5.2h2v5.2
		c0,0.4,0.1,0.8,0.3,1.2c0.3,0.3,0.7,0.4,1,0.4c0.3,0,0.7-0.1,1-0.2c0.3-0.2,0.6-0.4,0.8-0.6v-5.9L136.2,111.7z"/>
	<path class="st2" d="M140.9,120c-0.6,0-1.2-0.2-1.6-0.6c-0.4-0.5-0.6-1.1-0.6-1.7v-4.6h-0.8c-0.1,0-0.2,0-0.3-0.1
		c-0.1-0.1-0.1-0.2-0.1-0.3v-0.8l1.3-0.2l0.4-2.2c0-0.1,0.1-0.2,0.2-0.2c0.1-0.1,0.2-0.1,0.3-0.1h1v2.6h2.2v1.4h-2.2v4.4
		c0,0.2,0.1,0.4,0.2,0.6c0.1,0.1,0.3,0.2,0.5,0.2c0.1,0,0.2,0,0.3,0l0.2-0.1l0.2-0.1c0,0,0.1,0,0.1,0c0.1,0,0.1,0,0.1,0
		c0,0,0.1,0.1,0.1,0.1l0.6,1c-0.3,0.2-0.6,0.4-1,0.5C141.7,119.9,141.3,120,140.9,120z"/>
	<path class="st2" d="M151.2,111.7v8.2H150c-0.2,0-0.4-0.1-0.5-0.4l-0.1-0.7c-0.3,0.3-0.7,0.6-1.1,0.8c-0.4,0.2-0.9,0.3-1.4,0.3
		c-0.4,0-0.8-0.1-1.2-0.2c-0.3-0.1-0.6-0.4-0.9-0.6c-0.2-0.3-0.4-0.6-0.5-1c-0.1-0.4-0.2-0.8-0.2-1.3v-5.2h2v5.2
		c0,0.4,0.1,0.8,0.4,1.2c0.3,0.3,0.6,0.4,1,0.4c0.3,0,0.7-0.1,1-0.2c0.3-0.2,0.6-0.4,0.8-0.6v-5.9L151.2,111.7z"/>
	<path class="st2" d="M155,113.1c0.2-0.4,0.5-0.8,0.9-1.2c0.4-0.3,0.8-0.4,1.2-0.4c0.3,0,0.6,0.1,0.9,0.2l-0.1,1.5
		c0,0.1-0.1,0.1-0.1,0.2c-0.1,0-0.1,0.1-0.2,0.1c-0.1,0-0.2,0-0.4,0c-0.2,0-0.3,0-0.5,0c-0.2,0-0.4,0-0.6,0.1
		c-0.2,0.1-0.3,0.2-0.5,0.3c-0.1,0.1-0.3,0.3-0.4,0.4c-0.1,0.2-0.2,0.4-0.3,0.6v5.1h-2v-8.3h1.2c0.3-0.1,0.5,0.1,0.6,0.4
		c0,0,0,0.1,0,0.1L155,113.1z"/>
	<path class="st2" d="M160.4,116c0,0.4,0.1,0.7,0.2,1.1c0.1,0.3,0.3,0.6,0.5,0.8c0.2,0.2,0.4,0.4,0.7,0.4c0.3,0.1,0.6,0.2,0.9,0.2
		c0.3,0,0.5,0,0.8-0.1c0.2-0.1,0.4-0.1,0.6-0.2l0.5-0.2c0.1-0.1,0.2-0.1,0.4-0.1c0.1,0,0.3,0.1,0.4,0.2l0.6,0.7
		c-0.2,0.3-0.5,0.5-0.7,0.6c-0.3,0.2-0.6,0.3-0.9,0.4c-0.3,0.1-0.6,0.2-0.9,0.2c-0.3,0-0.6,0.1-0.9,0.1c-0.5,0-1.1-0.1-1.6-0.3
		c-0.5-0.2-0.9-0.4-1.3-0.8c-0.4-0.4-0.7-0.9-0.9-1.4c-0.2-0.6-0.3-1.3-0.3-1.9c0-0.5,0.1-1.1,0.3-1.6c0.2-0.5,0.4-0.9,0.8-1.3
		c0.3-0.4,0.8-0.7,1.2-0.9c0.5-0.2,1.1-0.3,1.6-0.3c0.5,0,1,0.1,1.4,0.2c0.4,0.2,0.8,0.4,1.1,0.7c0.3,0.3,0.6,0.7,0.7,1.2
		c0.2,0.5,0.3,1.1,0.3,1.6c0,0.2,0,0.4-0.1,0.6c-0.1,0.1-0.2,0.2-0.4,0.2L160.4,116z M164.2,114.8c0-0.2,0-0.5-0.1-0.7
		c-0.1-0.2-0.2-0.4-0.3-0.6c-0.2-0.2-0.3-0.3-0.6-0.4c-0.3-0.1-0.5-0.2-0.8-0.2c-0.5,0-1,0.1-1.4,0.5c-0.4,0.4-0.6,0.9-0.6,1.4
		L164.2,114.8z"/>
	<path class="st2" d="M172.4,113.3c0,0.1-0.1,0.1-0.2,0.2c-0.1,0-0.1,0.1-0.2,0.1c-0.1,0-0.2,0-0.3-0.1l-0.4-0.2
		c-0.2-0.1-0.3-0.1-0.5-0.2c-0.2-0.1-0.4-0.1-0.6-0.1c-0.3,0-0.6,0.1-0.9,0.2c-0.2,0.1-0.3,0.4-0.3,0.6c0,0.2,0.1,0.3,0.2,0.4
		c0.1,0.1,0.3,0.2,0.5,0.3c0.2,0.1,0.4,0.2,0.6,0.2l0.7,0.2c0.2,0.1,0.5,0.2,0.7,0.3c0.2,0.1,0.5,0.2,0.6,0.4
		c0.4,0.4,0.6,0.9,0.6,1.5c0,0.4-0.1,0.7-0.2,1.1c-0.1,0.3-0.4,0.6-0.6,0.9c-0.3,0.3-0.7,0.4-1,0.6c-0.5,0.1-0.9,0.2-1.4,0.2
		c-0.3,0-0.5,0-0.8-0.1c-0.3,0-0.5-0.1-0.8-0.2c-0.2-0.1-0.5-0.2-0.7-0.3c-0.2-0.1-0.4-0.2-0.6-0.4l0.5-0.8c0.1-0.1,0.1-0.2,0.2-0.2
		c0.1-0.1,0.2-0.1,0.3-0.1c0.1,0,0.2,0,0.3,0.1l0.4,0.2c0.2,0.1,0.3,0.2,0.5,0.2c0.2,0.1,0.5,0.1,0.7,0.1c0.2,0,0.4,0,0.6-0.1
		c0.2,0,0.3-0.1,0.4-0.2c0.1-0.1,0.2-0.2,0.2-0.3c0-0.1,0.1-0.2,0.1-0.4c0-0.2-0.1-0.3-0.2-0.5c-0.1-0.1-0.3-0.2-0.5-0.3
		c-0.2-0.1-0.4-0.2-0.6-0.2l-0.7-0.2c-0.3-0.1-0.5-0.2-0.7-0.3c-0.2-0.1-0.5-0.3-0.6-0.4c-0.2-0.2-0.3-0.4-0.5-0.6
		c-0.1-0.3-0.2-0.6-0.2-0.9c0-0.3,0.1-0.7,0.2-1c0.1-0.3,0.3-0.6,0.6-0.8c0.3-0.2,0.6-0.4,1-0.5c0.4-0.1,0.9-0.2,1.3-0.2
		c0.5,0,1.1,0.1,1.5,0.3c0.4,0.2,0.8,0.4,1.2,0.7L172.4,113.3z"/>
</g>
<g>
	<path class="st2" d="M215.5,205.6v3.2h4v1.7h-4v3.3h5.1v1.7h-7.3v-11.6h7.3v1.7L215.5,205.6z"/>
	<path class="st2" d="M229.1,207.2v10.9h-2v-3.7c-0.3,0.3-0.7,0.6-1.1,0.8c-0.4,0.2-0.9,0.3-1.4,0.3c-0.9,0-1.7-0.4-2.2-1.1
		c-0.3-0.4-0.5-0.8-0.6-1.3c-0.2-0.6-0.2-1.2-0.2-1.8c0-0.6,0.1-1.1,0.2-1.7c0.2-0.5,0.4-1,0.7-1.4c0.3-0.4,0.7-0.7,1.1-0.9
		c0.5-0.2,1-0.3,1.5-0.3c0.4,0,0.9,0.1,1.3,0.3c0.4,0.2,0.7,0.4,0.9,0.7l0.1-0.5c0.1-0.2,0.3-0.4,0.5-0.4L229.1,207.2z M227.1,209.3
		c-0.2-0.3-0.4-0.4-0.7-0.6c-0.3-0.1-0.6-0.2-0.9-0.2c-0.3,0-0.5,0.1-0.8,0.2c-0.2,0.1-0.5,0.3-0.6,0.5c-0.2,0.3-0.3,0.6-0.4,0.9
		c-0.1,0.4-0.1,0.8-0.1,1.2c0,0.4,0,0.8,0.1,1.2c0.1,0.3,0.2,0.6,0.3,0.8c0.1,0.2,0.3,0.4,0.5,0.5c0.2,0.1,0.5,0.1,0.7,0.1
		c0.4,0,0.7-0.1,1-0.3c0.3-0.2,0.6-0.4,0.8-0.7L227.1,209.3z"/>
	<path class="st2" d="M238.1,207.2v8.2h-1.2c-0.2,0-0.4-0.1-0.5-0.4l-0.1-0.7c-0.3,0.3-0.7,0.6-1.1,0.8c-0.4,0.2-0.9,0.3-1.4,0.3
		c-0.4,0-0.8-0.1-1.2-0.2c-0.3-0.1-0.6-0.4-0.9-0.6c-0.2-0.3-0.4-0.6-0.5-1c-0.1-0.4-0.2-0.8-0.2-1.3v-5.2h2v5.2
		c0,0.4,0.1,0.8,0.4,1.2c0.3,0.3,0.6,0.4,1,0.4c0.3,0,0.7-0.1,1-0.2c0.3-0.2,0.6-0.4,0.8-0.6v-5.9L238.1,207.2z"/>
	<path class="st2" d="M242.3,204.8c0,0.2,0,0.3-0.1,0.5c-0.1,0.1-0.2,0.3-0.3,0.4c-0.1,0.1-0.3,0.2-0.4,0.3
		c-0.2,0.1-0.3,0.1-0.5,0.1c-0.2,0-0.3,0-0.5-0.1c-0.1-0.1-0.3-0.2-0.4-0.3c-0.1-0.1-0.2-0.2-0.3-0.4c-0.1-0.2-0.1-0.3-0.1-0.5
		c0-0.2,0-0.3,0.1-0.5c0.1-0.1,0.2-0.3,0.3-0.4c0.1-0.1,0.3-0.2,0.4-0.3c0.2-0.1,0.3-0.1,0.5-0.1c0.2,0,0.3,0,0.5,0.1
		c0.1,0.1,0.3,0.2,0.4,0.3c0.1,0.1,0.2,0.3,0.3,0.4C242.3,204.5,242.3,204.7,242.3,204.8z M242.1,207.2v8.2h-2v-8.2L242.1,207.2z"/>
	<path class="st2" d="M246.8,215.6c-0.6,0-1.2-0.2-1.6-0.6c-0.4-0.5-0.6-1.1-0.6-1.7v-4.6h-0.8c-0.1,0-0.2,0-0.3-0.1
		c-0.1-0.1-0.1-0.2-0.1-0.3v-0.8l1.3-0.2l0.4-2.2c0-0.1,0.1-0.2,0.2-0.2c0.1-0.1,0.2-0.1,0.3-0.1h1v2.6h2.2v1.4h-2.2v4.4
		c0,0.2,0.1,0.4,0.2,0.6c0.1,0.1,0.3,0.2,0.5,0.2c0.1,0,0.2,0,0.3,0l0.2-0.1l0.2-0.1c0,0,0.1,0,0.1,0c0.1,0,0.1,0,0.1,0
		c0,0,0.1,0.1,0.1,0.1l0.6,1c-0.3,0.2-0.6,0.4-1,0.5C247.7,215.5,247.2,215.6,246.8,215.6z"/>
	<path class="st2" d="M257.5,207.2l-4.5,10.5c-0.1,0.1-0.1,0.2-0.2,0.3c-0.1,0.1-0.3,0.1-0.4,0.1h-1.5l1.5-3.3l-3.3-7.6h1.7
		c0.1,0,0.3,0,0.4,0.1c0.1,0.1,0.2,0.2,0.2,0.3l1.7,4.3c0.1,0.1,0.1,0.3,0.1,0.4l0.1,0.4l0.1-0.4c0-0.1,0.1-0.3,0.2-0.4l1.6-4.2
		c0-0.1,0.1-0.2,0.2-0.3c0.1-0.1,0.2-0.1,0.3-0.1L257.5,207.2z"/>
</g>
<g>
	<path class="st2" d="M279,7.4v10.4h-2v-4.6h-4.9v4.6h-2V7.4h2v4.5h4.9V7.4H279z"/>
	<path class="st2" d="M283.3,17.9h-2V7.4h2V17.9z"/>
	<path class="st2" d="M294.2,12.7v4.2c-0.5,0.4-1.1,0.7-1.7,0.8c-0.6,0.2-1.3,0.3-1.9,0.3c-0.8,0-1.6-0.1-2.3-0.4
		c-0.7-0.2-1.3-0.6-1.8-1.1c-0.5-0.5-0.9-1-1.1-1.7c-0.3-0.7-0.4-1.4-0.4-2.2c0-0.7,0.1-1.5,0.4-2.2c0.5-1.3,1.5-2.3,2.8-2.8
		c0.7-0.3,1.5-0.4,2.3-0.4c0.4,0,0.8,0,1.2,0.1c0.3,0.1,0.7,0.2,1,0.3c0.3,0.1,0.6,0.3,0.9,0.4c0.3,0.2,0.5,0.3,0.7,0.6l-0.6,0.9
		c-0.1,0.1-0.2,0.2-0.3,0.3c-0.2,0-0.3,0-0.5-0.1l-0.5-0.3c-0.2-0.1-0.3-0.2-0.5-0.2c-0.2-0.1-0.4-0.1-0.7-0.2
		c-0.3,0-0.6-0.1-0.8-0.1c-0.5,0-1,0.1-1.4,0.3c-0.4,0.2-0.8,0.4-1.1,0.7c-0.3,0.3-0.5,0.7-0.7,1.2c-0.2,0.5-0.2,1-0.2,1.5
		c0,0.5,0.1,1.1,0.3,1.6c0.2,0.4,0.4,0.8,0.7,1.2c0.3,0.3,0.7,0.6,1.1,0.7c0.5,0.2,1,0.3,1.4,0.3c0.3,0,0.7,0,1-0.1
		c0.3-0.1,0.6-0.2,0.9-0.3v-1.8h-1.3c-0.1,0-0.2,0-0.3-0.1c-0.1-0.1-0.1-0.2-0.1-0.3v-1.1H294.2z"/>
	<path class="st2" d="M304.9,7.4v10.4h-2v-4.6H298v4.6h-2V7.4h2v4.5h4.9V7.4H304.9z"/>
	<path class="st2" d="M314.1,7.4c0.6,0,1.2,0.1,1.8,0.2c0.5,0.1,0.9,0.4,1.3,0.7c0.3,0.3,0.6,0.7,0.7,1.1c0.2,0.4,0.2,0.9,0.2,1.3
		c0,0.5-0.1,0.9-0.3,1.4c-0.2,0.4-0.4,0.8-0.7,1.1c-0.4,0.3-0.8,0.6-1.3,0.7c-0.6,0.2-1.2,0.3-1.8,0.3h-1.4v3.7h-1.9V7.4H314.1z
		 M314.1,12.7c0.3,0,0.6,0,0.9-0.1c0.2-0.1,0.5-0.2,0.7-0.4c0.2-0.2,0.3-0.4,0.4-0.6c0.1-0.3,0.1-0.5,0.1-0.8c0-0.2,0-0.5-0.1-0.7
		c-0.1-0.2-0.2-0.4-0.4-0.6c-0.2-0.2-0.4-0.3-0.7-0.4C314.8,9,314.5,9,314.1,9h-1.4v3.7L314.1,12.7z"/>
	<path class="st2" d="M329.7,12.7c0,0.7-0.1,1.5-0.4,2.1c-0.2,0.6-0.6,1.2-1.1,1.7c-0.5,0.5-1,0.9-1.7,1.1c-1.4,0.5-2.9,0.5-4.3,0
		c-0.6-0.3-1.2-0.6-1.7-1.1c-0.5-0.5-0.8-1.1-1.1-1.7c-0.3-0.7-0.4-1.4-0.4-2.1c0-0.7,0.1-1.5,0.4-2.2c0.2-0.6,0.6-1.2,1.1-1.7
		c0.5-0.5,1-0.8,1.7-1.1c0.7-0.3,1.4-0.4,2.2-0.4c0.5,0,1,0.1,1.5,0.2c0.4,0.1,0.9,0.3,1.3,0.5c0.4,0.2,0.7,0.5,1,0.8
		c0.3,0.3,0.6,0.7,0.8,1.1c0.2,0.4,0.4,0.9,0.5,1.3C329.6,11.7,329.7,12.2,329.7,12.7z M327.7,12.7c0-0.5-0.1-1-0.2-1.5
		c-0.1-0.4-0.4-0.8-0.7-1.2c-0.3-0.3-0.6-0.6-1-0.7c-0.9-0.3-1.9-0.3-2.8,0c-0.4,0.2-0.8,0.4-1,0.7c-0.3,0.3-0.5,0.7-0.7,1.2
		c-0.2,0.5-0.2,1-0.2,1.5c0,0.5,0.1,1,0.2,1.5c0.1,0.4,0.4,0.8,0.7,1.2c0.3,0.3,0.6,0.6,1,0.7c0.9,0.3,1.9,0.3,2.8,0
		c0.4-0.2,0.7-0.4,1-0.7c0.3-0.3,0.5-0.7,0.7-1.2C327.6,13.7,327.7,13.2,327.7,12.7z"/>
	<path class="st2" d="M338.3,9.1h-3.1v8.8h-1.9V9.1h-3.1V7.4h8.2L338.3,9.1z"/>
	<path class="st2" d="M341.6,9v2.9h3.7v1.5h-3.7v3h4.6v1.6h-6.6V7.4h6.6V9H341.6z"/>
	<path class="st2" d="M356.8,7.4v10.4h-1c-0.1,0-0.3,0-0.4-0.1c-0.1-0.1-0.2-0.1-0.3-0.3l-5.4-7c0,0.3,0,0.6,0,0.9v6.4H348V7.4h1.2
		c0.1,0,0.1,0,0.2,0c0.1,0,0.1,0.1,0.1,0.1c0.1,0,0.1,0.1,0.1,0.2l5.5,7V7.4H356.8z"/>
	<path class="st2" d="M366.4,9.1h-3.1v8.8h-1.9V9.1h-3.1V7.4h8.2L366.4,9.1z"/>
	<path class="st2" d="M369.7,17.9h-2V7.4h2V17.9z"/>
	<path class="st2" d="M381,17.9h-1.5c-0.1,0-0.3,0-0.4-0.1c-0.1-0.1-0.2-0.2-0.2-0.3l-0.8-2.1h-4.3l-0.8,2.1c0,0.1-0.1,0.2-0.2,0.3
		c-0.1,0.1-0.3,0.1-0.4,0.1h-1.5l4.1-10.4h2L381,17.9z M377.6,13.9l-1.3-3.4c-0.1-0.2-0.1-0.4-0.2-0.5c-0.1-0.2-0.1-0.4-0.2-0.7
		l-0.2,0.7c-0.1,0.2-0.1,0.4-0.2,0.6l-1.3,3.5L377.6,13.9z"/>
	<path class="st2" d="M388.2,16.3v1.6h-6.1V7.4h1.9v8.8H388.2z"/>
	<path class="st2" d="M400.8,17.9h-1.8c-0.3,0-0.6-0.1-0.7-0.4l-2.2-3.3c-0.1-0.1-0.2-0.2-0.3-0.3c-0.1-0.1-0.3-0.1-0.4-0.1h-0.8
		v4.1h-1.9V7.4h3.2c0.6,0,1.2,0.1,1.8,0.2c0.5,0.1,0.9,0.3,1.2,0.6c0.3,0.3,0.6,0.6,0.7,0.9c0.2,0.4,0.2,0.8,0.2,1.2
		c0,0.3,0,0.7-0.2,1c-0.1,0.3-0.3,0.6-0.4,0.9c-0.2,0.3-0.4,0.5-0.7,0.7c-0.3,0.2-0.6,0.4-1,0.5c0.1,0.1,0.2,0.2,0.3,0.3
		c0.1,0.1,0.2,0.2,0.3,0.4L400.8,17.9z M395.8,12.4c0.3,0,0.7,0,1-0.1c0.2-0.1,0.5-0.2,0.7-0.4c0.2-0.2,0.3-0.4,0.4-0.6
		c0.1-0.2,0.1-0.5,0.1-0.7c0-0.5-0.2-0.9-0.5-1.2c-0.5-0.3-1-0.5-1.6-0.4h-1.2v3.5L395.8,12.4z"/>
	<path class="st2" d="M403.9,9v2.9h3.7v1.5h-3.7v3h4.6v1.6H402V7.4h6.6V9H403.9z"/>
	<path class="st2" d="M417.6,9.1h-3.1v8.8h-1.9V9.1h-3.1V7.4h8.2V9.1z"/>
	<path class="st2" d="M423.2,16.3c0.3,0,0.7-0.1,1-0.2c0.3-0.1,0.5-0.3,0.7-0.5c0.2-0.2,0.4-0.5,0.5-0.8c0.1-0.3,0.2-0.7,0.2-1.1
		V7.4h1.9v6.3c0,0.6-0.1,1.2-0.3,1.7c-0.4,1-1.2,1.9-2.2,2.3c-1.2,0.4-2.4,0.4-3.6,0c-1-0.4-1.8-1.2-2.2-2.3
		c-0.2-0.5-0.3-1.1-0.3-1.7V7.4h1.9v6.2c0,0.4,0.1,0.7,0.2,1.1c0.1,0.3,0.3,0.6,0.5,0.8c0.2,0.2,0.4,0.4,0.7,0.5
		C422.4,16.3,422.8,16.3,423.2,16.3z"/>
	<path class="st2" d="M437.8,17.9h-1.8c-0.3,0-0.6-0.1-0.7-0.4l-2.2-3.3c-0.1-0.1-0.2-0.2-0.3-0.3c-0.1-0.1-0.3-0.1-0.4-0.1h-0.8
		v4.1h-1.9V7.4h3.2c0.6,0,1.2,0.1,1.8,0.2c0.5,0.1,0.9,0.3,1.2,0.6c0.3,0.3,0.6,0.6,0.7,0.9c0.2,0.4,0.2,0.8,0.2,1.2
		c0,0.3,0,0.7-0.2,1c-0.1,0.3-0.2,0.6-0.4,0.9c-0.2,0.3-0.4,0.5-0.7,0.7c-0.3,0.2-0.6,0.4-1,0.5c0.1,0.1,0.2,0.2,0.3,0.3
		c0.1,0.1,0.2,0.2,0.3,0.4L437.8,17.9z M432.8,12.4c0.3,0,0.7,0,1-0.1c0.2-0.1,0.5-0.2,0.7-0.4c0.2-0.2,0.3-0.4,0.4-0.6
		c0.1-0.2,0.1-0.5,0.1-0.7c0-0.5-0.2-0.9-0.5-1.2c-0.5-0.3-1-0.5-1.6-0.4h-1.2v3.5L432.8,12.4z"/>
	<path class="st2" d="M447.8,7.4v10.4h-1c-0.1,0-0.3,0-0.4-0.1c-0.1-0.1-0.2-0.1-0.3-0.3l-5.5-7c0,0.3,0,0.6,0,0.9v6.4H439V7.4h1.2
		c0.1,0,0.1,0,0.2,0c0.1,0,0.1,0.1,0.1,0.1c0.1,0,0.1,0.1,0.1,0.2l5.5,7V7.4H447.8z"/>
</g>
<g>
	<path class="st2" d="M277.9,588v1.6h-6.1v-10.4h1.9v8.8H277.9z"/>
	<path class="st2" d="M288.9,584.4c0,0.7-0.1,1.5-0.4,2.2c-0.2,0.6-0.6,1.2-1.1,1.7c-0.5,0.5-1,0.9-1.7,1.1c-1.4,0.5-2.9,0.5-4.3,0
		c-0.6-0.3-1.2-0.6-1.7-1.1c-0.5-0.5-0.8-1.1-1.1-1.7c-0.5-1.4-0.5-2.9,0-4.3c0.2-0.6,0.6-1.2,1.1-1.7c0.5-0.5,1-0.9,1.7-1.1
		c0.7-0.3,1.4-0.4,2.2-0.4c0.5,0,1,0.1,1.5,0.2c0.4,0.1,0.9,0.3,1.3,0.5c0.4,0.2,0.7,0.5,1,0.8c0.3,0.3,0.6,0.7,0.8,1.1
		c0.2,0.4,0.4,0.8,0.5,1.3C288.8,583.5,288.9,584,288.9,584.4z M286.9,584.4c0-0.5-0.1-1-0.2-1.5c-0.1-0.4-0.4-0.8-0.7-1.2
		c-0.3-0.3-0.6-0.6-1-0.7c-0.9-0.3-1.9-0.3-2.8,0c-0.4,0.2-0.8,0.4-1,0.7c-0.3,0.3-0.5,0.7-0.7,1.2c-0.3,1-0.3,2.1,0,3.1
		c0.1,0.4,0.4,0.8,0.7,1.2c0.3,0.3,0.6,0.6,1,0.7c0.9,0.3,1.9,0.3,2.8,0c0.4-0.2,0.7-0.4,1-0.7c0.3-0.3,0.5-0.7,0.7-1.2
		C286.8,585.5,286.9,585,286.9,584.4z"/>
	<path class="st2" d="M304.2,579.2l-3.2,10.4h-1.8l-2.3-7.1c-0.1-0.2-0.1-0.4-0.2-0.6c0,0.1,0,0.2-0.1,0.3c0,0.1-0.1,0.2-0.1,0.3
		l-2.3,7.1h-1.8l-3.2-10.4h1.6c0.1,0,0.3,0,0.4,0.1c0.1,0.1,0.2,0.2,0.2,0.3l1.8,6.2c0,0.2,0.1,0.3,0.1,0.5l0.1,0.6
		c0-0.2,0.1-0.4,0.1-0.6c0-0.2,0.1-0.3,0.2-0.5l2.1-6.2c0-0.1,0.1-0.2,0.2-0.3c0.1-0.1,0.3-0.1,0.4-0.1h0.6c0.1,0,0.3,0,0.4,0.1
		c0.1,0.1,0.2,0.2,0.2,0.3l2,6.2c0.1,0.3,0.2,0.7,0.3,1c0.1-0.4,0.1-0.7,0.2-1l1.8-6.2c0-0.1,0.1-0.2,0.2-0.3
		c0.1-0.1,0.3-0.1,0.4-0.1L304.2,579.2z"/>
	<path class="st2" d="M312.3,579.2c0.6,0,1.2,0.1,1.8,0.2c0.5,0.1,0.9,0.4,1.3,0.7c0.3,0.3,0.6,0.7,0.7,1.1c0.2,0.4,0.2,0.9,0.2,1.3
		c0,0.5-0.1,0.9-0.3,1.4c-0.2,0.4-0.4,0.8-0.7,1.1c-0.4,0.3-0.8,0.6-1.3,0.7c-0.6,0.2-1.2,0.3-1.8,0.3h-1.4v3.7H309v-10.5H312.3z
		 M312.3,584.5c0.3,0,0.6,0,0.9-0.1c0.2-0.1,0.5-0.2,0.7-0.4c0.2-0.2,0.3-0.4,0.4-0.6c0.1-0.3,0.1-0.5,0.1-0.8c0-0.2,0-0.5-0.1-0.7
		c-0.1-0.2-0.2-0.4-0.4-0.6c-0.2-0.2-0.4-0.3-0.7-0.4c-0.3-0.1-0.6-0.1-0.9-0.1h-1.4v3.7L312.3,584.5z"/>
	<path class="st2" d="M327.9,584.4c0,0.7-0.1,1.5-0.4,2.2c-0.2,0.6-0.6,1.2-1.1,1.7c-0.5,0.5-1,0.9-1.7,1.1c-1.4,0.5-2.9,0.5-4.3,0
		c-0.6-0.3-1.2-0.6-1.7-1.1c-0.5-0.5-0.8-1.1-1.1-1.7c-0.5-1.4-0.5-2.9,0-4.3c0.2-0.6,0.6-1.2,1.1-1.7c0.5-0.5,1-0.9,1.7-1.1
		c0.7-0.3,1.4-0.4,2.2-0.4c0.5,0,1,0.1,1.5,0.2c0.4,0.1,0.9,0.3,1.3,0.5c0.4,0.2,0.7,0.5,1,0.8c0.3,0.3,0.6,0.7,0.8,1.1
		c0.2,0.4,0.4,0.8,0.5,1.3C327.8,583.5,327.9,584,327.9,584.4z M325.9,584.4c0-0.5-0.1-1-0.2-1.5c-0.1-0.4-0.4-0.8-0.7-1.2
		c-0.3-0.3-0.6-0.6-1-0.7c-0.9-0.3-1.9-0.3-2.8,0c-0.4,0.2-0.8,0.4-1,0.7c-0.3,0.3-0.5,0.7-0.7,1.2c-0.3,1-0.3,2.1,0,3.1
		c0.1,0.4,0.4,0.8,0.7,1.2c0.3,0.3,0.6,0.6,1,0.7c0.9,0.3,1.9,0.3,2.8,0c0.4-0.2,0.7-0.4,1-0.7c0.3-0.3,0.5-0.7,0.7-1.2
		C325.8,585.5,325.9,585,325.9,584.4z"/>
	<path class="st2" d="M336.5,580.8h-3.1v8.8h-1.9v-8.8h-3.1v-1.6h8.2V580.8z"/>
	<path class="st2" d="M339.8,580.8v2.9h3.7v1.5h-3.7v3h4.6v1.6h-6.6v-10.5h6.6v1.5H339.8z"/>
	<path class="st2" d="M355,579.2v10.4h-1c-0.1,0-0.3,0-0.4-0.1c-0.1-0.1-0.2-0.1-0.3-0.3l-5.5-7c0,0.3,0,0.6,0,0.9v6.4h-1.7v-10.4
		h1.2c0.1,0,0.2,0.1,0.3,0.1c0.1,0,0.1,0.1,0.1,0.2l5.5,7v-7.3L355,579.2z"/>
	<path class="st2" d="M364.6,580.8h-3.1v8.8h-1.9v-8.8h-3.1v-1.6h8.2V580.8z"/>
	<path class="st2" d="M367.9,589.7h-2v-10.4h2V589.7z"/>
	<path class="st2" d="M379.2,589.7h-1.5c-0.1,0-0.3,0-0.4-0.1c-0.1-0.1-0.2-0.2-0.2-0.3l-0.8-2.2H372l-0.8,2.2
		c0,0.1-0.1,0.2-0.2,0.3c-0.1,0.1-0.3,0.1-0.4,0.1H369l4.1-10.4h2L379.2,589.7z M375.8,585.7l-1.3-3.4c-0.1-0.2-0.1-0.4-0.2-0.5
		c-0.1-0.2-0.1-0.4-0.2-0.7c-0.1,0.2-0.1,0.5-0.2,0.7c-0.1,0.2-0.1,0.4-0.2,0.6l-1.3,3.5L375.8,585.7z"/>
	<path class="st2" d="M386.4,588v1.6h-6.1v-10.4h1.9v8.8H386.4z"/>
	<path class="st2" d="M399.1,589.7h-1.8c-0.3,0-0.6-0.1-0.7-0.4l-2.2-3.3c-0.1-0.1-0.2-0.2-0.3-0.3c-0.1-0.1-0.3-0.1-0.4-0.1h-0.8
		v4.1h-1.9v-10.4h3.2c0.6,0,1.2,0.1,1.8,0.2c0.5,0.1,0.9,0.3,1.2,0.6c0.3,0.3,0.6,0.6,0.7,0.9c0.3,0.7,0.3,1.5,0.1,2.2
		c-0.1,0.3-0.3,0.6-0.4,0.9c-0.2,0.3-0.4,0.5-0.7,0.7c-0.3,0.2-0.6,0.4-1,0.5c0.1,0.1,0.2,0.2,0.3,0.3c0.1,0.1,0.2,0.2,0.3,0.4
		L399.1,589.7z M394.1,584.2c0.3,0,0.7,0,1-0.1c0.2-0.1,0.5-0.2,0.7-0.4c0.2-0.2,0.3-0.4,0.4-0.6c0.1-0.2,0.1-0.5,0.1-0.7
		c0-0.5-0.2-0.9-0.5-1.2c-0.5-0.3-1-0.5-1.6-0.4h-1.2v3.5L394.1,584.2z"/>
	<path class="st2" d="M402.1,580.8v2.9h3.7v1.5h-3.7v3h4.6v1.6h-6.6v-10.5h6.6v1.5H402.1z"/>
	<path class="st2" d="M415.8,580.8h-3.1v8.8h-1.9v-8.8h-3.1v-1.6h8.2V580.8z"/>
	<path class="st2" d="M421.4,588.1c0.3,0,0.7-0.1,1-0.2c0.3-0.1,0.5-0.3,0.7-0.5c0.2-0.2,0.4-0.5,0.5-0.8c0.1-0.4,0.2-0.7,0.2-1.1
		v-6.3h1.9v6.3c0,0.6-0.1,1.2-0.3,1.7c-0.4,1-1.2,1.9-2.2,2.3c-1.2,0.4-2.4,0.4-3.6,0c-1-0.4-1.8-1.2-2.2-2.3
		c-0.2-0.5-0.3-1.1-0.3-1.7v-6.3h1.9v6.2c0,0.4,0,0.7,0.2,1.1c0.1,0.3,0.3,0.6,0.5,0.8c0.2,0.2,0.4,0.4,0.7,0.5
		C420.7,588,421,588.1,421.4,588.1z"/>
	<path class="st2" d="M436.1,589.7h-1.8c-0.3,0-0.6-0.1-0.7-0.4l-2.2-3.3c-0.1-0.1-0.2-0.2-0.3-0.3c-0.1-0.1-0.3-0.1-0.4-0.1h-0.8
		v4.1h-1.9v-10.4h3.2c0.6,0,1.2,0.1,1.8,0.2c0.5,0.1,0.9,0.3,1.2,0.6c0.3,0.3,0.6,0.6,0.7,0.9c0.3,0.7,0.3,1.5,0.1,2.2
		c-0.1,0.3-0.3,0.6-0.4,0.9c-0.2,0.3-0.4,0.5-0.7,0.7c-0.3,0.2-0.6,0.4-1,0.5c0.1,0.1,0.2,0.2,0.3,0.3c0.1,0.1,0.2,0.2,0.3,0.4
		L436.1,589.7z M431.1,584.2c0.3,0,0.7,0,1-0.1c0.2-0.1,0.5-0.2,0.7-0.4c0.2-0.2,0.3-0.4,0.4-0.6c0.1-0.2,0.1-0.5,0.1-0.7
		c0-0.5-0.2-0.9-0.5-1.2c-0.5-0.3-1-0.5-1.6-0.4h-1.2v3.5L431.1,584.2z"/>
	<path class="st2" d="M446,579.2v10.4h-1c-0.1,0-0.3,0-0.4-0.1c-0.1-0.1-0.2-0.1-0.3-0.3l-5.5-7c0,0.3,0,0.6,0,0.9v6.4h-1.7v-10.4
		h1.2c0.1,0,0.1,0,0.2,0c0,0,0.1,0.1,0.1,0.1l0.1,0.2l5.5,7c0-0.2,0-0.3,0-0.5v-6.8L446,579.2z"/>
</g>
<g>
	<path class="st2" d="M10.2,294.1L6,304.5H4.2L0,294.1h1.6c0.1,0,0.3,0,0.4,0.1c0.1,0.1,0.2,0.2,0.2,0.3l2.5,6.4
		c0.1,0.2,0.2,0.4,0.2,0.7c0.1,0.3,0.1,0.5,0.2,0.8c0.1-0.3,0.1-0.5,0.2-0.8c0.1-0.2,0.1-0.5,0.2-0.7l2.4-6.4c0-0.1,0.1-0.2,0.2-0.3
		c0.1-0.1,0.3-0.1,0.4-0.1H10.2z"/>
	<path class="st2" d="M20.9,299.3c0,0.7-0.1,1.5-0.4,2.2c-0.2,0.6-0.6,1.2-1.1,1.7c-0.5,0.5-1,0.9-1.7,1.1c-1.4,0.5-2.9,0.5-4.3,0
		c-0.6-0.3-1.2-0.6-1.7-1.1c-0.5-0.5-0.8-1.1-1.1-1.7c-0.5-1.4-0.5-2.9,0-4.3c0.2-0.6,0.6-1.2,1.1-1.7c0.5-0.5,1-0.9,1.7-1.1
		c0.7-0.3,1.4-0.4,2.2-0.4c0.5,0,1,0.1,1.5,0.2c0.4,0.1,0.9,0.3,1.3,0.5c0.4,0.2,0.7,0.5,1.1,0.8c0.3,0.3,0.6,0.7,0.8,1
		c0.2,0.4,0.4,0.8,0.5,1.3C20.8,298.3,20.9,298.8,20.9,299.3z M18.9,299.3c0-0.5-0.1-1-0.2-1.5c-0.1-0.4-0.4-0.8-0.7-1.2
		c-0.3-0.3-0.6-0.6-1-0.7c-0.9-0.3-1.9-0.3-2.8,0c-0.4,0.2-0.8,0.4-1,0.7c-0.3,0.3-0.5,0.7-0.7,1.2c-0.3,1-0.3,2.1,0,3.1
		c0.1,0.4,0.4,0.8,0.7,1.2c0.3,0.3,0.6,0.6,1,0.7c0.9,0.3,1.9,0.3,2.8,0c0.4-0.2,0.8-0.4,1-0.7c0.3-0.3,0.5-0.7,0.7-1.2
		C18.8,300.3,18.9,299.8,18.9,299.3z"/>
	<path class="st2" d="M28.7,302.9v1.6h-6.1v-10.4h2v8.8L28.7,302.9z"/>
	<path class="st2" d="M39.1,304.5h-1.5c-0.1,0-0.3,0-0.4-0.1c-0.1-0.1-0.2-0.2-0.2-0.3l-0.8-2.1h-4.3l-0.7,2.1
		c0,0.1-0.1,0.2-0.2,0.3c-0.1,0.1-0.3,0.1-0.4,0.1h-1.5l4.1-10.4h2L39.1,304.5z M35.6,300.6l-1.3-3.5c-0.1-0.2-0.1-0.4-0.2-0.5
		c-0.1-0.2-0.1-0.4-0.2-0.7l-0.2,0.7c-0.1,0.2-0.1,0.4-0.2,0.6l-1.3,3.5H35.6z"/>
	<path class="st2" d="M46.4,295.7h-3.1v8.8h-1.9v-8.8h-3.1v-1.6h8.2V295.7z"/>
	<path class="st2" d="M49.8,304.5h-2v-10.4h2V304.5z"/>
	<path class="st2" d="M58.2,302.9v1.6h-6.1v-10.4H54v8.8L58.2,302.9z"/>
	<path class="st2" d="M61.5,295.6v2.9h3.7v1.5h-3.7v3h4.6v1.6h-6.6v-10.4h6.6v1.5H61.5z"/>
</g>
<g>
	<path class="st2" d="M674.3,296c0,0.1-0.1,0.2-0.2,0.2c-0.1,0-0.2,0.1-0.2,0.1c-0.1,0-0.2,0-0.3-0.1l-0.4-0.2
		c-0.2-0.1-0.4-0.2-0.6-0.3c-0.3-0.1-0.5-0.1-0.8-0.1c-0.2,0-0.5,0-0.7,0.1c-0.2,0.1-0.4,0.1-0.5,0.3c-0.1,0.1-0.2,0.3-0.3,0.4
		c-0.1,0.2-0.1,0.3-0.1,0.5c0,0.2,0.1,0.4,0.2,0.6c0.2,0.2,0.3,0.3,0.5,0.4c0.2,0.1,0.5,0.2,0.8,0.3l0.9,0.3
		c0.3,0.1,0.6,0.2,0.9,0.4c0.3,0.1,0.5,0.3,0.8,0.5c0.2,0.2,0.4,0.5,0.5,0.8c0.1,0.3,0.2,0.7,0.2,1.1c0,0.5-0.1,0.9-0.2,1.3
		c-0.2,0.4-0.4,0.8-0.7,1.1c-0.3,0.3-0.7,0.6-1.1,0.7c-0.5,0.2-1,0.3-1.5,0.3c-0.3,0-0.7,0-1-0.1c-0.3-0.1-0.6-0.2-0.9-0.3
		c-0.3-0.1-0.6-0.3-0.8-0.4c-0.3-0.2-0.5-0.3-0.7-0.6l0.6-0.9c0.1-0.1,0.1-0.1,0.2-0.2c0.1,0,0.2-0.1,0.2-0.1c0.1,0,0.3,0.1,0.4,0.2
		l0.5,0.3c0.2,0.1,0.4,0.2,0.7,0.3c0.3,0.1,0.6,0.2,0.9,0.2c0.5,0,0.9-0.1,1.3-0.4c0.3-0.3,0.5-0.7,0.5-1.1c0-0.2-0.1-0.5-0.2-0.7
		c-0.1-0.2-0.3-0.3-0.5-0.4c-0.2-0.1-0.5-0.2-0.8-0.3l-0.9-0.3c-0.3-0.1-0.6-0.2-0.9-0.3c-0.3-0.1-0.5-0.3-0.8-0.5
		c-0.2-0.2-0.4-0.5-0.5-0.8c-0.1-0.4-0.2-0.8-0.2-1.2c0-0.4,0.1-0.8,0.2-1.1c0.2-0.4,0.4-0.7,0.7-1c0.3-0.3,0.7-0.5,1.1-0.7
		c0.5-0.2,1-0.3,1.4-0.3c0.6,0,1.2,0.1,1.7,0.3c0.5,0.2,0.9,0.5,1.3,0.8L674.3,296z"/>
	<path class="st2" d="M684,295.7h-3.1v8.8h-1.9v-8.8h-3.1v-1.6h8.2V295.7z"/>
	<path class="st2" d="M693.3,304.5h-1.5c-0.1,0-0.3,0-0.4-0.1c-0.1-0.1-0.2-0.2-0.2-0.3l-0.8-2.2H686l-0.8,2.2
		c0,0.1-0.1,0.2-0.2,0.3c-0.1,0.1-0.3,0.1-0.4,0.1h-1.5l4.1-10.4h2L693.3,304.5z M689.9,300.6l-1.3-3.5c-0.1-0.2-0.1-0.4-0.2-0.5
		c-0.1-0.2-0.1-0.4-0.2-0.7l-0.2,0.7c-0.1,0.2-0.1,0.4-0.2,0.6l-1.3,3.5H689.9z"/>
	<path class="st2" d="M698,294.1c0.6,0,1.2,0.1,1.8,0.2c0.4,0.1,0.8,0.3,1.2,0.6c0.3,0.2,0.6,0.5,0.7,0.9c0.1,0.4,0.2,0.8,0.2,1.2
		c0,0.2,0,0.5-0.1,0.7c-0.1,0.2-0.2,0.4-0.3,0.6c-0.2,0.2-0.4,0.4-0.6,0.5c-0.3,0.2-0.5,0.3-0.8,0.4c1.4,0.3,2.2,1.1,2.2,2.3
		c0,0.4-0.1,0.8-0.3,1.2c-0.2,0.4-0.4,0.7-0.7,1c-0.4,0.3-0.8,0.5-1.2,0.6c-0.5,0.2-1.1,0.2-1.6,0.2h-3.9v-10.5H698z M696.3,295.6v3
		h1.5c0.5,0,1.1-0.1,1.5-0.4c0.4-0.3,0.5-0.7,0.5-1.1c0-0.4-0.1-0.9-0.5-1.2c-0.4-0.3-0.9-0.4-1.4-0.3H696.3z M698.3,303
		c0.3,0,0.6,0,0.9-0.1c0.2-0.1,0.4-0.2,0.6-0.3c0.1-0.1,0.3-0.3,0.3-0.5c0.1-0.2,0.1-0.4,0.1-0.6c0-0.2,0-0.4-0.1-0.6
		c-0.1-0.2-0.2-0.3-0.3-0.5c-0.2-0.1-0.4-0.2-0.6-0.3c-0.3-0.1-0.6-0.1-0.9-0.1h-2v3.1L698.3,303z"/>
	<path class="st2" d="M710,302.9v1.6h-6.1v-10.4h1.9v8.8L710,302.9z"/>
	<path class="st2" d="M713.4,295.6v2.9h3.7v1.5h-3.7v3h4.6v1.6h-6.6v-10.4h6.6v1.5H713.4z"/>
</g>
<line class="st3" x1="69.4" y1="298.6" x2="648.5" y2="298.6"/>
<line class="st3" x1="359" y1="32.7" x2="359" y2="570.9"/>
<g>
	<path class="st2" d="M417.1,387h-3.5v9.8h-2.2V387H408v-1.8h9.1V387z"/>
	<path class="st2" d="M418.5,390c0.2-0.4,0.5-0.8,0.9-1.2c0.4-0.3,0.8-0.4,1.2-0.4c0.3,0,0.6,0.1,0.9,0.2l-0.1,1.5
		c0,0.1-0.1,0.1-0.1,0.2c-0.1,0-0.1,0.1-0.2,0.1c-0.1,0-0.2,0-0.4,0c-0.2,0-0.3,0-0.5,0c-0.2,0-0.4,0-0.6,0.1
		c-0.2,0.1-0.3,0.2-0.5,0.3c-0.1,0.1-0.3,0.3-0.4,0.4c-0.1,0.2-0.2,0.4-0.3,0.6v5.1h-2v-8.3h1.2c0.3-0.1,0.5,0.1,0.6,0.4
		c0,0,0,0.1,0,0.1L418.5,390z"/>
	<path class="st2" d="M423.9,393c0,0.4,0.1,0.7,0.2,1.1c0.1,0.3,0.3,0.6,0.5,0.8c0.2,0.2,0.4,0.4,0.7,0.4c0.3,0.1,0.6,0.2,0.9,0.2
		c0.3,0,0.5,0,0.8-0.1c0.2-0.1,0.4-0.1,0.6-0.2l0.5-0.2c0.1-0.1,0.2-0.1,0.4-0.1c0.1,0,0.3,0.1,0.4,0.2l0.6,0.7
		c-0.2,0.3-0.5,0.5-0.7,0.6c-0.3,0.2-0.6,0.3-0.9,0.4c-0.3,0.1-0.6,0.2-0.9,0.2c-0.3,0-0.6,0-0.9,0c-0.5,0-1.1-0.1-1.6-0.3
		c-0.5-0.2-0.9-0.4-1.3-0.8c-0.4-0.4-0.7-0.9-0.9-1.4c-0.2-0.6-0.3-1.3-0.3-1.9c0-0.5,0.1-1.1,0.3-1.6c0.2-0.5,0.4-0.9,0.8-1.3
		c0.3-0.4,0.8-0.7,1.2-0.9c0.5-0.2,1.1-0.3,1.6-0.3c0.5,0,1,0.1,1.4,0.2c0.4,0.2,0.8,0.4,1.1,0.7c0.3,0.3,0.6,0.6,0.8,1
		c0.2,0.5,0.3,1.1,0.3,1.6c0,0.2,0,0.4-0.1,0.6c-0.1,0.1-0.2,0.2-0.4,0.2L423.9,393z M427.7,391.8c0-0.2,0-0.5-0.1-0.7
		c-0.1-0.2-0.2-0.4-0.3-0.6c-0.2-0.2-0.3-0.3-0.6-0.4c-0.3-0.1-0.5-0.2-0.8-0.2c-0.5,0-1,0.1-1.4,0.5c-0.4,0.4-0.6,0.9-0.6,1.4
		L427.7,391.8z"/>
	<path class="st2" d="M430.8,389.8c0.9-0.9,2.1-1.3,3.4-1.3c0.4,0,0.9,0.1,1.3,0.2c0.4,0.1,0.7,0.4,1,0.7c0.3,0.3,0.5,0.6,0.6,1
		c0.1,0.4,0.2,0.8,0.2,1.3v5.2h-0.9c-0.1,0-0.3,0-0.4-0.1c-0.1-0.1-0.2-0.2-0.2-0.3l-0.2-0.6c-0.2,0.2-0.4,0.3-0.6,0.5
		c-0.2,0.1-0.4,0.3-0.6,0.4c-0.2,0.1-0.4,0.2-0.7,0.2c-0.3,0.1-0.5,0.1-0.8,0.1c-0.3,0-0.6,0-1-0.1c-0.3-0.1-0.6-0.2-0.8-0.4
		c-0.2-0.2-0.4-0.4-0.5-0.7c-0.1-0.3-0.2-0.6-0.2-1c0-0.2,0-0.4,0.1-0.6c0.1-0.2,0.2-0.4,0.3-0.6c0.2-0.2,0.4-0.4,0.6-0.5
		c0.3-0.2,0.6-0.3,0.9-0.4c0.4-0.1,0.8-0.2,1.3-0.3c0.6-0.1,1.1-0.1,1.7-0.1v-0.5c0-0.4-0.1-0.9-0.4-1.2c-0.3-0.3-0.6-0.4-1-0.4
		c-0.3,0-0.5,0-0.8,0.1c-0.2,0.1-0.4,0.2-0.6,0.3l-0.4,0.2c-0.1,0.1-0.3,0.1-0.4,0.1c-0.1,0-0.2,0-0.4-0.1c-0.1-0.1-0.2-0.2-0.2-0.3
		L430.8,389.8z M435.3,393.4c-0.5,0-1,0.1-1.4,0.1c-0.3,0.1-0.6,0.1-0.9,0.3c-0.2,0.1-0.4,0.2-0.5,0.4c-0.3,0.4-0.2,0.9,0.2,1.2
		c0.2,0.2,0.5,0.2,0.8,0.2c0.4,0,0.7-0.1,1.1-0.2c0.3-0.2,0.6-0.4,0.9-0.7L435.3,393.4z"/>
	<path class="st2" d="M444.1,390.2c0,0.1-0.1,0.1-0.2,0.2c-0.1,0-0.1,0.1-0.2,0.1c-0.1,0-0.2,0-0.3-0.1l-0.4-0.2
		c-0.2-0.1-0.3-0.1-0.5-0.2c-0.2-0.1-0.4-0.1-0.6-0.1c-0.3,0-0.6,0.1-0.9,0.2c-0.2,0.1-0.3,0.4-0.3,0.6c0,0.2,0.1,0.3,0.2,0.4
		c0.1,0.1,0.3,0.2,0.5,0.3c0.2,0.1,0.4,0.2,0.6,0.2l0.7,0.2c0.2,0.1,0.5,0.2,0.7,0.3c0.2,0.1,0.4,0.2,0.6,0.4
		c0.4,0.4,0.7,0.9,0.6,1.5c0,0.4-0.1,0.7-0.2,1.1c-0.1,0.3-0.4,0.6-0.6,0.9c-0.3,0.3-0.7,0.4-1,0.6c-0.5,0.1-0.9,0.2-1.4,0.2
		c-0.3,0-0.5,0-0.8-0.1c-0.3,0-0.5-0.1-0.8-0.2c-0.2-0.1-0.5-0.2-0.7-0.3c-0.2-0.1-0.4-0.2-0.6-0.4l0.5-0.8c0.1-0.1,0.1-0.2,0.2-0.2
		c0.1-0.1,0.2-0.1,0.3-0.1c0.1,0,0.2,0,0.3,0.1l0.4,0.2c0.2,0.1,0.3,0.2,0.5,0.2c0.2,0.1,0.5,0.1,0.7,0.1c0.2,0,0.4,0,0.6-0.1
		c0.2,0,0.3-0.1,0.4-0.2c0.1-0.1,0.2-0.2,0.2-0.3c0-0.1,0.1-0.2,0.1-0.4c0-0.2-0.1-0.3-0.2-0.5c-0.1-0.1-0.3-0.2-0.5-0.3
		c-0.2-0.1-0.4-0.2-0.6-0.2l-0.7-0.2c-0.3-0.1-0.5-0.2-0.7-0.3c-0.2-0.1-0.5-0.3-0.6-0.4c-0.2-0.2-0.3-0.4-0.5-0.6
		c-0.1-0.3-0.2-0.6-0.2-0.9c0-0.3,0.1-0.7,0.2-1c0.1-0.3,0.3-0.6,0.6-0.8c0.3-0.2,0.6-0.4,1-0.5c0.4-0.1,0.9-0.2,1.3-0.2
		c0.5,0,1.1,0.1,1.5,0.3c0.4,0.2,0.8,0.4,1.2,0.7L444.1,390.2z"/>
	<path class="st2" d="M453.2,388.6v8.2H452c-0.2,0-0.4-0.1-0.5-0.4l-0.1-0.7c-0.3,0.3-0.7,0.6-1.1,0.8c-0.4,0.2-0.9,0.3-1.4,0.3
		c-0.4,0-0.8-0.1-1.2-0.2c-0.3-0.1-0.6-0.4-0.9-0.6c-0.2-0.3-0.4-0.6-0.5-1c-0.1-0.4-0.2-0.8-0.2-1.3v-5.2h2v5.2
		c0,0.4,0.1,0.8,0.3,1.2c0.3,0.3,0.7,0.4,1,0.4c0.3,0,0.7-0.1,1-0.2c0.3-0.2,0.6-0.4,0.8-0.6v-5.9L453.2,388.6z"/>
	<path class="st2" d="M457,390c0.2-0.4,0.5-0.8,0.9-1.2c0.4-0.3,0.8-0.4,1.2-0.4c0.3,0,0.6,0.1,0.9,0.2l-0.1,1.5
		c0,0.1-0.1,0.1-0.1,0.2c-0.1,0-0.1,0.1-0.2,0.1c-0.1,0-0.2,0-0.4,0c-0.2,0-0.3,0-0.5,0c-0.2,0-0.4,0-0.6,0.1
		c-0.2,0.1-0.3,0.2-0.5,0.3c-0.1,0.1-0.3,0.3-0.4,0.4c-0.1,0.2-0.2,0.4-0.3,0.6v5.1h-2v-8.3h1.2c0.3-0.1,0.5,0.1,0.6,0.4
		c0,0,0,0.1,0,0.1L457,390z"/>
	<path class="st2" d="M468.6,388.6l-4.5,10.5c-0.1,0.1-0.1,0.2-0.2,0.3c-0.1,0.1-0.3,0.1-0.4,0.1h-1.5l1.5-3.3l-3.3-7.6h1.7
		c0.1,0,0.3,0,0.4,0.1c0.1,0.1,0.2,0.2,0.2,0.3l1.7,4.3c0.1,0.1,0.1,0.3,0.1,0.4l0.1,0.4l0.1-0.4c0-0.1,0.1-0.3,0.2-0.4l1.6-4.2
		c0-0.1,0.1-0.2,0.2-0.3c0.1-0.1,0.2-0.1,0.3-0.1L468.6,388.6z"/>
</g>
<g>
	<path class="st2" d="M488.7,426.8c0.1,0,0.2,0,0.3,0.1l0.8,0.8c-0.4,0.5-1,0.9-1.6,1.2c-0.7,0.3-1.5,0.4-2.2,0.4
		c-0.7,0-1.4-0.1-2.1-0.4c-0.6-0.2-1.2-0.6-1.6-1.1c-0.4-0.5-0.8-1.1-1-1.7c-0.2-0.7-0.4-1.4-0.4-2.1c0-0.7,0.1-1.5,0.4-2.2
		c0.2-0.6,0.6-1.2,1.1-1.7c0.5-0.5,1-0.8,1.6-1.1c0.7-0.3,1.4-0.4,2.1-0.4c0.7,0,1.4,0.1,2,0.4c0.6,0.2,1.1,0.6,1.5,1l-0.6,0.9
		c0,0.1-0.1,0.1-0.1,0.2c-0.1,0-0.2,0.1-0.2,0.1c-0.1,0-0.2,0-0.2-0.1l-0.3-0.2l-0.3-0.2c-0.1-0.1-0.3-0.1-0.4-0.2
		c-0.2-0.1-0.4-0.1-0.6-0.2c-0.2,0-0.5-0.1-0.7-0.1c-0.4,0-0.9,0.1-1.3,0.2c-0.4,0.2-0.7,0.4-1,0.7c-0.3,0.3-0.5,0.7-0.6,1.2
		c-0.2,0.5-0.2,1-0.2,1.6c0,0.5,0.1,1.1,0.2,1.6c0.1,0.4,0.4,0.8,0.7,1.2c0.3,0.3,0.6,0.6,1,0.7c0.4,0.2,0.8,0.3,1.2,0.2
		c0.2,0,0.5,0,0.7,0c0.2,0,0.4-0.1,0.6-0.2c0.2-0.1,0.4-0.1,0.5-0.2c0.2-0.1,0.3-0.2,0.5-0.4c0,0,0.1-0.1,0.2-0.1
		C488.6,426.8,488.6,426.8,488.7,426.8z"/>
	<path class="st2" d="M492,425.7c0,0.3,0.1,0.7,0.2,1c0.1,0.3,0.2,0.5,0.4,0.7c0.2,0.2,0.4,0.3,0.6,0.4c0.3,0.1,0.5,0.1,0.8,0.1
		c0.3,0,0.5,0,0.7-0.1c0.2-0.1,0.4-0.1,0.5-0.2l0.4-0.2c0.1-0.1,0.2-0.1,0.3-0.1c0.1,0,0.3,0.1,0.3,0.2l0.5,0.6
		c-0.2,0.2-0.4,0.4-0.7,0.6c-0.3,0.2-0.5,0.3-0.8,0.4c-0.3,0.1-0.5,0.2-0.8,0.2c-0.3,0-0.5,0.1-0.8,0.1c-0.5,0-1-0.1-1.4-0.3
		c-0.4-0.2-0.8-0.5-1.2-0.8c-0.4-0.4-0.6-0.8-0.8-1.2c-0.2-0.5-0.3-1.1-0.3-1.7c0-0.5,0.1-1,0.2-1.4c0.2-0.4,0.4-0.8,0.7-1.2
		c0.3-0.3,0.7-0.6,1.1-0.8c0.5-0.2,1-0.3,1.5-0.3c0.4,0,0.9,0.1,1.3,0.2c0.4,0.1,0.7,0.4,1,0.6c0.3,0.3,0.5,0.7,0.7,1
		c0.2,0.5,0.2,0.9,0.2,1.4c0,0.2,0,0.4-0.1,0.5c-0.1,0.1-0.2,0.2-0.3,0.1L492,425.7z M495.4,424.7c0-0.2,0-0.4-0.1-0.6
		c-0.1-0.2-0.2-0.4-0.3-0.5c-0.1-0.2-0.3-0.3-0.5-0.4c-0.2-0.1-0.5-0.1-0.7-0.1c-0.4,0-0.9,0.1-1.2,0.4c-0.3,0.3-0.5,0.8-0.6,1.2
		L495.4,424.7z"/>
	<path class="st2" d="M500,423.1c0.2-0.4,0.5-0.8,0.8-1c0.3-0.3,0.7-0.4,1.1-0.4c0.3,0,0.6,0.1,0.8,0.2l-0.1,1.3
		c0,0.1-0.1,0.1-0.1,0.2c-0.1,0-0.1,0.1-0.2,0.1c-0.1,0-0.2,0-0.3,0c-0.1,0-0.3,0-0.4,0c-0.2,0-0.4,0-0.5,0.1
		c-0.2,0.1-0.3,0.1-0.4,0.2c-0.1,0.1-0.2,0.2-0.3,0.4c-0.1,0.2-0.2,0.3-0.3,0.5v4.6h-1.8v-7.4h1.1c0.2-0.1,0.5,0.1,0.5,0.3
		c0,0,0,0.1,0,0.1L500,423.1z"/>
	<path class="st2" d="M511.2,429.2h-1.8v-6.1H506v4c0,0.2,0,0.4,0.2,0.5c0.1,0.1,0.3,0.2,0.5,0.2c0.1,0,0.2,0,0.3,0l0.2-0.1l0.1-0.1
		c0,0,0.1,0,0.1,0c0,0,0.1,0,0.1,0c0,0,0.1,0.1,0.1,0.1l0.5,0.9c-0.3,0.2-0.6,0.4-0.9,0.5c-0.3,0.1-0.7,0.2-1,0.2
		c-0.5,0-1.1-0.2-1.5-0.5c-0.4-0.4-0.5-1-0.5-1.5v-4.1h-0.8c-0.1,0-0.2,0-0.2-0.1c-0.1-0.1-0.1-0.2-0.1-0.3v-0.7l1.2-0.2l0.4-2
		c0-0.1,0.1-0.2,0.1-0.2c0.1-0.1,0.2-0.1,0.3-0.1h0.9v2.3h5.2L511.2,429.2z M511.5,419.6c0,0.1,0,0.3-0.1,0.4
		c-0.1,0.3-0.3,0.5-0.6,0.6c-0.1,0.1-0.3,0.1-0.4,0.1c-0.1,0-0.3,0-0.4-0.1c-0.3-0.1-0.5-0.3-0.6-0.6c-0.1-0.1-0.1-0.3-0.1-0.4
		c0-0.2,0-0.3,0.1-0.4c0.1-0.1,0.1-0.3,0.2-0.4c0.1-0.1,0.2-0.2,0.4-0.2c0.1-0.1,0.3-0.1,0.4-0.1c0.2,0,0.3,0,0.4,0.1
		c0.1,0.1,0.3,0.1,0.4,0.2c0.1,0.1,0.2,0.2,0.2,0.4C511.4,419.3,511.5,419.5,511.5,419.6L511.5,419.6z"/>
	<path class="st2" d="M513.5,429.2v-6l-0.6-0.1c-0.1,0-0.2-0.1-0.3-0.1c-0.1-0.1-0.1-0.2-0.1-0.3v-0.7h1.1v-0.5
		c0-0.4,0.1-0.8,0.2-1.1c0.2-0.7,0.8-1.2,1.4-1.4c0.4-0.1,0.8-0.2,1.2-0.2c0.3,0,0.6,0,1,0.1v0.9c0,0.1,0,0.1-0.1,0.2
		c0,0-0.1,0.1-0.1,0.1c-0.1,0-0.1,0-0.2,0h-0.2c-0.2,0-0.4,0-0.6,0.1c-0.2,0-0.3,0.1-0.4,0.2c-0.1,0.1-0.2,0.3-0.3,0.4
		c-0.1,0.2-0.1,0.5-0.1,0.7v0.5h1.9v1.3h-1.9v6.1L513.5,429.2z"/>
	<path class="st2" d="M517.9,422.8c0.8-0.8,1.9-1.2,3.1-1.2c0.4,0,0.8,0.1,1.2,0.2c0.3,0.1,0.6,0.3,0.9,0.6c0.2,0.3,0.4,0.6,0.5,0.9
		c0.1,0.4,0.2,0.8,0.2,1.2v4.7h-0.8c-0.1,0-0.2,0-0.4-0.1c-0.1-0.1-0.2-0.2-0.2-0.3l-0.2-0.5c-0.2,0.2-0.4,0.3-0.5,0.4
		c-0.2,0.1-0.4,0.2-0.6,0.3c-0.2,0.1-0.4,0.2-0.6,0.2c-0.2,0-0.5,0.1-0.7,0.1c-0.3,0-0.6,0-0.9-0.1c-0.3-0.1-0.5-0.2-0.7-0.4
		c-0.2-0.2-0.3-0.4-0.4-0.6c-0.1-0.3-0.2-0.6-0.2-0.9c0-0.2,0-0.4,0.1-0.6c0.1-0.2,0.2-0.4,0.3-0.5c0.2-0.2,0.3-0.3,0.6-0.5
		c0.2-0.2,0.5-0.3,0.8-0.4c0.4-0.1,0.8-0.2,1.2-0.3c0.5-0.1,1-0.1,1.5-0.1v-0.4c0-0.4-0.1-0.8-0.3-1.1c-0.2-0.2-0.6-0.4-0.9-0.4
		c-0.2,0-0.5,0-0.7,0.1c-0.2,0.1-0.3,0.1-0.5,0.2l-0.4,0.2c-0.1,0.1-0.3,0.1-0.4,0.1c-0.1,0-0.2,0-0.3-0.1c-0.1-0.1-0.2-0.1-0.2-0.2
		L517.9,422.8z M522,426c-0.4,0-0.9,0.1-1.3,0.1c-0.3,0-0.5,0.1-0.8,0.2c-0.2,0.1-0.3,0.2-0.5,0.4c-0.2,0.4-0.2,0.8,0.1,1.1
		c0.2,0.1,0.5,0.2,0.7,0.2c0.3,0,0.6-0.1,0.9-0.2c0.3-0.2,0.6-0.4,0.8-0.6L522,426z"/>
	<path class="st2" d="M530.7,423.4c0,0.1-0.1,0.1-0.2,0.2c-0.1,0-0.1,0.1-0.2,0.1c-0.1,0-0.2,0-0.3-0.1l-0.3-0.2
		c-0.1-0.1-0.3-0.1-0.4-0.2c-0.2-0.1-0.4-0.1-0.6-0.1c-0.3,0-0.5,0.1-0.8,0.2c-0.2,0.1-0.4,0.3-0.6,0.5c-0.2,0.2-0.3,0.5-0.4,0.8
		c-0.1,0.3-0.1,0.7-0.1,1c0,0.4,0,0.7,0.1,1c0.1,0.3,0.2,0.6,0.4,0.8c0.2,0.2,0.3,0.4,0.6,0.5c0.3,0.1,0.5,0.2,0.8,0.2
		c0.2,0,0.5,0,0.7-0.1c0.2-0.1,0.3-0.1,0.4-0.2l0.3-0.2c0.1-0.1,0.2-0.1,0.3-0.1c0.1,0,0.3,0.1,0.3,0.2l0.5,0.6
		c-0.2,0.2-0.4,0.4-0.6,0.6c-0.2,0.2-0.5,0.3-0.7,0.4c-0.3,0.1-0.5,0.2-0.8,0.2c-0.3,0-0.5,0.1-0.8,0.1c-0.4,0-0.9-0.1-1.3-0.3
		c-0.4-0.2-0.8-0.4-1.1-0.7c-0.3-0.3-0.6-0.8-0.7-1.2c-0.2-0.5-0.3-1.1-0.3-1.6c0-0.5,0.1-1,0.2-1.5c0.1-0.4,0.4-0.9,0.7-1.2
		c0.3-0.3,0.7-0.6,1.1-0.8c0.5-0.2,1-0.3,1.5-0.3c0.5,0,1,0.1,1.4,0.3c0.4,0.2,0.8,0.5,1.1,0.8L530.7,423.4z"/>
	<path class="st2" d="M532.2,422.8c0.8-0.8,1.9-1.2,3.1-1.2c0.4,0,0.8,0.1,1.2,0.2c0.3,0.1,0.6,0.3,0.9,0.6c0.2,0.3,0.4,0.6,0.5,0.9
		c0.1,0.4,0.2,0.8,0.2,1.2v4.7h-0.8c-0.1,0-0.3,0-0.4-0.1c-0.1-0.1-0.2-0.2-0.2-0.3l-0.2-0.5c-0.2,0.2-0.4,0.3-0.5,0.4
		c-0.2,0.1-0.4,0.2-0.6,0.3c-0.2,0.1-0.4,0.2-0.6,0.2c-0.2,0-0.5,0.1-0.7,0.1c-0.3,0-0.6,0-0.9-0.1c-0.3-0.1-0.5-0.2-0.7-0.4
		c-0.2-0.2-0.3-0.4-0.4-0.6c-0.1-0.3-0.2-0.6-0.2-0.9c0-0.2,0-0.4,0.1-0.6c0.1-0.2,0.2-0.4,0.3-0.5c0.2-0.2,0.3-0.3,0.6-0.5
		c0.2-0.2,0.5-0.3,0.8-0.4c0.4-0.1,0.8-0.2,1.2-0.3c0.5-0.1,1-0.1,1.5-0.1v-0.4c0-0.4-0.1-0.8-0.3-1.1c-0.2-0.2-0.6-0.4-0.9-0.4
		c-0.2,0-0.5,0-0.7,0.1c-0.2,0.1-0.3,0.1-0.5,0.2l-0.4,0.2c-0.1,0.1-0.3,0.1-0.4,0.1c-0.1,0-0.2,0-0.3-0.1c-0.1-0.1-0.2-0.1-0.2-0.2
		L532.2,422.8z M536.3,426c-0.4,0-0.9,0.1-1.3,0.1c-0.3,0-0.5,0.1-0.8,0.2c-0.2,0.1-0.3,0.2-0.5,0.4c-0.2,0.4-0.2,0.8,0.1,1.1
		c0.2,0.1,0.5,0.2,0.7,0.2c0.3,0,0.6-0.1,0.9-0.2c0.3-0.2,0.6-0.4,0.8-0.6L536.3,426z"/>
	<path class="st2" d="M542,429.3c-0.5,0-1.1-0.2-1.5-0.5c-0.4-0.4-0.5-1-0.5-1.5v-4.1h-0.8c-0.1,0-0.2,0-0.2-0.1
		c-0.1-0.1-0.1-0.2-0.1-0.3v-0.7l1.2-0.2l0.4-2c0-0.1,0.1-0.2,0.1-0.2c0.1-0.1,0.2-0.1,0.3-0.1h0.9v2.4h2v1.3h-2v4
		c0,0.2,0,0.4,0.2,0.5c0.1,0.1,0.3,0.2,0.5,0.2c0.1,0,0.2,0,0.3,0l0.2-0.1l0.1-0.1c0,0,0.1,0,0.1,0c0,0,0.1,0,0.1,0
		c0,0,0.1,0.1,0.1,0.1l0.5,0.9c-0.3,0.2-0.6,0.4-0.9,0.5C542.7,429.3,542.4,429.3,542,429.3z"/>
	<path class="st2" d="M546.2,425.7c0,0.3,0.1,0.7,0.2,1c0.1,0.3,0.2,0.5,0.4,0.7c0.2,0.2,0.4,0.3,0.6,0.4c0.3,0.1,0.5,0.1,0.8,0.1
		c0.3,0,0.5,0,0.7-0.1c0.2-0.1,0.4-0.1,0.5-0.2l0.4-0.2c0.1-0.1,0.2-0.1,0.3-0.1c0.1,0,0.3,0.1,0.3,0.2l0.5,0.6
		c-0.2,0.2-0.4,0.4-0.7,0.6c-0.3,0.2-0.5,0.3-0.8,0.4c-0.3,0.1-0.5,0.2-0.8,0.2c-0.3,0-0.5,0.1-0.8,0.1c-0.5,0-1-0.1-1.4-0.3
		c-0.4-0.2-0.8-0.5-1.2-0.8c-0.4-0.4-0.6-0.8-0.8-1.2c-0.2-0.5-0.3-1.1-0.3-1.7c0-0.5,0.1-1,0.2-1.4c0.2-0.4,0.4-0.8,0.7-1.2
		c0.3-0.3,0.7-0.6,1.1-0.8c0.5-0.2,1-0.3,1.5-0.3c0.4,0,0.9,0.1,1.3,0.2c0.4,0.1,0.7,0.4,1,0.6c0.3,0.3,0.5,0.7,0.7,1
		c0.2,0.5,0.2,0.9,0.2,1.4c0,0.2,0,0.4-0.1,0.5c-0.1,0.1-0.2,0.2-0.3,0.1L546.2,425.7z M549.6,424.7c0-0.2,0-0.4-0.1-0.6
		c-0.1-0.2-0.2-0.4-0.3-0.5c-0.1-0.2-0.3-0.3-0.5-0.4c-0.2-0.1-0.5-0.1-0.7-0.1c-0.4,0-0.9,0.1-1.2,0.4c-0.3,0.3-0.5,0.8-0.6,1.2
		L549.6,424.7z"/>
	<path class="st2" d="M559,418.5v10.7h-1.1c-0.2,0-0.4-0.1-0.4-0.3l-0.2-0.7c-0.3,0.3-0.6,0.6-1,0.8c-0.4,0.2-0.9,0.3-1.4,0.3
		c-0.4,0-0.8-0.1-1.1-0.2c-0.3-0.2-0.6-0.4-0.9-0.7c-0.3-0.4-0.4-0.8-0.6-1.2c-0.1-0.5-0.2-1.1-0.2-1.6c0-0.5,0.1-1,0.2-1.5
		c0.1-0.4,0.4-0.9,0.6-1.2c0.3-0.3,0.6-0.6,1-0.8c0.4-0.2,0.9-0.3,1.3-0.3c0.4,0,0.7,0.1,1.1,0.2c0.3,0.1,0.6,0.3,0.8,0.5v-3.9
		L559,418.5z M557.2,423.7c-0.2-0.2-0.4-0.4-0.7-0.5c-0.3-0.1-0.5-0.2-0.8-0.2c-0.3,0-0.5,0-0.7,0.2c-0.2,0.1-0.4,0.3-0.6,0.5
		c-0.2,0.2-0.3,0.5-0.4,0.8c-0.1,0.4-0.1,0.7-0.1,1.1c0,0.4,0,0.7,0.1,1.1c0.1,0.3,0.2,0.5,0.3,0.7c0.1,0.2,0.3,0.3,0.5,0.4
		c0.2,0.1,0.4,0.1,0.6,0.1c0.3,0,0.7-0.1,0.9-0.2c0.3-0.2,0.5-0.4,0.7-0.7L557.2,423.7z"/>
	<path class="st2" d="M505.4,441.3c0,0.7-0.1,1.4-0.4,2.1c-0.5,1.3-1.5,2.2-2.7,2.7c-0.7,0.3-1.4,0.4-2.2,0.4h-4v-10.4h4
		c0.7,0,1.5,0.1,2.2,0.4c0.6,0.2,1.2,0.6,1.7,1.1c0.5,0.5,0.8,1,1.1,1.6C505.2,439.9,505.4,440.6,505.4,441.3z M503.4,441.3
		c0-0.5-0.1-1-0.2-1.5c-0.1-0.4-0.4-0.8-0.7-1.2c-0.3-0.3-0.6-0.6-1-0.7c-0.4-0.2-0.9-0.3-1.4-0.2h-2v7.3h2c0.5,0,0.9-0.1,1.4-0.3
		c0.4-0.2,0.8-0.4,1-0.7c0.3-0.3,0.5-0.7,0.7-1.2C503.3,442.3,503.4,441.8,503.4,441.3L503.4,441.3z"/>
	<path class="st2" d="M508.1,443c0,0.3,0.1,0.7,0.2,1c0.1,0.3,0.2,0.5,0.4,0.7c0.2,0.2,0.4,0.3,0.6,0.4c0.3,0.1,0.5,0.1,0.8,0.1
		c0.3,0,0.5,0,0.7-0.1c0.2-0.1,0.4-0.1,0.5-0.2l0.4-0.2c0.1-0.1,0.2-0.1,0.3-0.1c0.1,0,0.3,0.1,0.3,0.2l0.5,0.6
		c-0.2,0.2-0.4,0.4-0.7,0.6c-0.3,0.2-0.5,0.3-0.8,0.4c-0.3,0.1-0.5,0.2-0.8,0.2c-0.3,0-0.5,0.1-0.8,0.1c-0.5,0-1-0.1-1.4-0.3
		c-0.4-0.2-0.8-0.5-1.2-0.8c-0.4-0.4-0.6-0.8-0.8-1.2c-0.2-0.5-0.3-1.1-0.3-1.7c0-0.5,0.1-1,0.2-1.4c0.2-0.4,0.4-0.8,0.7-1.2
		c0.3-0.3,0.7-0.6,1.1-0.8c0.5-0.2,1-0.3,1.5-0.3c0.4,0,0.9,0.1,1.3,0.2c0.4,0.1,0.7,0.4,1,0.6c0.3,0.3,0.5,0.7,0.7,1
		c0.2,0.5,0.2,0.9,0.2,1.4c0,0.2,0,0.4-0.1,0.5c-0.1,0.1-0.2,0.2-0.3,0.1L508.1,443z M511.5,441.9c0-0.2,0-0.4-0.1-0.6
		c-0.1-0.2-0.2-0.4-0.3-0.5c-0.1-0.2-0.3-0.3-0.5-0.4c-0.2-0.1-0.5-0.1-0.7-0.1c-0.4,0-0.9,0.1-1.2,0.4c-0.3,0.3-0.5,0.8-0.6,1.2
		L511.5,441.9z"/>
	<path class="st2" d="M516.1,440.1c0.3-0.3,0.6-0.6,1-0.8c0.4-0.2,0.9-0.3,1.4-0.3c0.4,0,0.8,0.1,1.1,0.3c0.3,0.2,0.6,0.4,0.9,0.7
		c0.3,0.3,0.5,0.7,0.6,1.1c0.1,0.5,0.2,1.1,0.2,1.6c0,0.5-0.1,1-0.2,1.5c-0.1,0.4-0.4,0.9-0.6,1.2c-0.6,0.7-1.4,1.1-2.3,1.1
		c-0.4,0-0.7-0.1-1.1-0.2c-0.3-0.1-0.6-0.3-0.8-0.5v3h-1.8v-9.8h1.1c0.2,0,0.4,0.1,0.5,0.3L516.1,440.1z M516.2,444.6
		c0.2,0.2,0.4,0.4,0.7,0.5c0.3,0.1,0.5,0.2,0.8,0.2c0.3,0,0.5,0,0.7-0.2c0.2-0.1,0.4-0.3,0.6-0.5c0.2-0.2,0.3-0.5,0.4-0.8
		c0.1-0.4,0.1-0.7,0.2-1.1c0-0.4,0-0.7-0.1-1.1c-0.1-0.3-0.2-0.5-0.3-0.7c-0.1-0.2-0.3-0.3-0.5-0.4c-0.2-0.1-0.4-0.1-0.6-0.1
		c-0.3,0-0.7,0.1-0.9,0.2c-0.3,0.2-0.5,0.4-0.7,0.7L516.2,444.6z"/>
	<path class="st2" d="M525.8,439c0.5,0,1,0.1,1.5,0.3c0.9,0.3,1.6,1.1,1.9,2c0.4,1,0.4,2.2,0,3.2c-0.2,0.4-0.4,0.9-0.7,1.2
		c-0.3,0.3-0.7,0.6-1.2,0.8c-0.5,0.2-1,0.3-1.5,0.3c-0.5,0-1-0.1-1.5-0.3c-0.4-0.2-0.8-0.5-1.2-0.8c-0.3-0.3-0.6-0.8-0.7-1.2
		c-0.4-1-0.4-2.2,0-3.2c0.2-0.4,0.4-0.9,0.7-1.2c0.3-0.3,0.7-0.6,1.2-0.8C524.8,439,525.3,439,525.8,439z M525.8,445.2
		c0.5,0,1-0.2,1.4-0.6c0.6-1.1,0.6-2.5,0-3.6c-0.7-0.8-1.8-0.8-2.6-0.2c-0.1,0.1-0.1,0.1-0.2,0.2c-0.3,0.5-0.5,1.2-0.4,1.8
		c0,0.6,0.1,1.3,0.4,1.8C524.7,445,525.3,445.3,525.8,445.2z"/>
	<path class="st2" d="M535.3,440.5c0,0.1-0.1,0.1-0.2,0.2c-0.1,0-0.1,0.1-0.2,0c-0.1,0-0.2,0-0.3-0.1l-0.3-0.2
		c-0.1-0.1-0.3-0.1-0.4-0.2c-0.2-0.1-0.4-0.1-0.6-0.1c-0.3,0-0.6,0.1-0.8,0.2c-0.2,0.1-0.3,0.4-0.3,0.6c0,0.1,0,0.3,0.2,0.4
		c0.1,0.1,0.3,0.2,0.4,0.3c0.2,0.1,0.4,0.2,0.6,0.2l0.7,0.2c0.2,0.1,0.4,0.2,0.7,0.3c0.2,0.1,0.4,0.2,0.6,0.4
		c0.2,0.2,0.3,0.3,0.4,0.5c0.1,0.3,0.2,0.5,0.2,0.8c0,0.3-0.1,0.7-0.2,1c-0.1,0.3-0.3,0.6-0.6,0.8c-0.3,0.2-0.6,0.4-0.9,0.5
		c-0.4,0.1-0.8,0.2-1.3,0.2c-0.2,0-0.5,0-0.7-0.1c-0.2,0-0.5-0.1-0.7-0.2c-0.2-0.1-0.4-0.2-0.6-0.3c-0.2-0.1-0.3-0.2-0.5-0.4
		l0.4-0.7c0-0.1,0.1-0.1,0.2-0.2c0.1,0,0.2-0.1,0.3-0.1c0.1,0,0.2,0,0.3,0.1l0.3,0.2c0.1,0.1,0.3,0.1,0.5,0.2
		c0.2,0.1,0.4,0.1,0.7,0.1c0.2,0,0.4,0,0.5-0.1c0.1,0,0.3-0.1,0.4-0.2c0.1-0.1,0.2-0.2,0.2-0.3c0-0.1,0.1-0.2,0.1-0.3
		c0-0.2,0-0.3-0.2-0.4c-0.1-0.1-0.3-0.2-0.4-0.3c-0.2-0.1-0.4-0.2-0.6-0.3l-0.7-0.2c-0.2-0.1-0.5-0.2-0.7-0.3
		c-0.2-0.1-0.4-0.2-0.6-0.4c-0.2-0.2-0.3-0.4-0.4-0.6c-0.1-0.3-0.2-0.5-0.2-0.8c0-0.3,0.1-0.6,0.2-0.9c0.1-0.3,0.3-0.5,0.5-0.7
		c0.3-0.2,0.6-0.4,0.9-0.5c0.4-0.1,0.8-0.2,1.2-0.2c0.5,0,0.9,0.1,1.4,0.2c0.4,0.2,0.7,0.4,1,0.7L535.3,440.5z"/>
	<path class="st2" d="M539.2,436.9c0,0.1,0,0.3-0.1,0.4c-0.1,0.3-0.3,0.5-0.6,0.6c-0.1,0.1-0.3,0.1-0.4,0.1c-0.1,0-0.3,0-0.4-0.1
		c-0.3-0.1-0.5-0.3-0.6-0.6c-0.1-0.1-0.1-0.3-0.1-0.4c0-0.3,0.1-0.6,0.3-0.8c0.1-0.1,0.2-0.2,0.4-0.2c0.1-0.1,0.3-0.1,0.4-0.1
		c0.2,0,0.3,0,0.4,0.1c0.1,0.1,0.3,0.1,0.4,0.2c0.1,0.1,0.2,0.2,0.2,0.4C539.2,436.6,539.2,436.8,539.2,436.9z M539,439.1v7.4h-1.8
		v-7.4H539z"/>
	<path class="st2" d="M543.3,446.6c-0.5,0-1.1-0.2-1.5-0.5c-0.4-0.4-0.5-1-0.5-1.5v-4.1h-0.8c-0.1,0-0.2,0-0.2-0.1
		c-0.1-0.1-0.1-0.2-0.1-0.3v-0.7l1.2-0.2l0.4-2c0-0.1,0.1-0.2,0.1-0.2c0.1-0.1,0.2-0.1,0.3-0.1h0.9v2.3h2v1.3h-2v4
		c0,0.2,0,0.4,0.2,0.5c0.1,0.1,0.3,0.2,0.5,0.2c0.1,0,0.2,0,0.3,0l0.2-0.1l0.1-0.1c0,0,0.1,0,0.1,0c0,0,0.1,0,0.1,0
		c0,0,0.1,0.1,0.1,0.1l0.5,0.9c-0.3,0.2-0.6,0.4-0.9,0.5C544,446.6,543.6,446.6,543.3,446.6z"/>
</g>
<g>
	<path class="st2" d="M565,491.7c0,0.7-0.1,1.4-0.4,2.1c-0.5,1.3-1.5,2.2-2.7,2.7c-0.7,0.3-1.4,0.4-2.2,0.4h-4v-10.4h4
		c0.7,0,1.5,0.1,2.2,0.4c0.6,0.2,1.2,0.6,1.7,1c0.5,0.5,0.8,1,1.1,1.6C564.8,490.2,565,490.9,565,491.7z M563,491.7
		c0-0.5-0.1-1-0.2-1.5c-0.1-0.4-0.4-0.8-0.7-1.2c-0.3-0.3-0.6-0.6-1-0.7c-0.4-0.2-0.9-0.3-1.4-0.2h-2v7.3h2c0.5,0,1-0.1,1.4-0.2
		c0.4-0.2,0.8-0.4,1-0.7c0.3-0.3,0.5-0.7,0.7-1.2C562.9,492.7,563,492.2,563,491.7L563,491.7z"/>
	<path class="st2" d="M567.7,493.4c0,0.3,0.1,0.7,0.2,1c0.1,0.3,0.2,0.5,0.4,0.7c0.2,0.2,0.4,0.3,0.6,0.4c0.3,0.1,0.5,0.1,0.8,0.1
		c0.3,0,0.5,0,0.7-0.1c0.2-0.1,0.4-0.1,0.5-0.2l0.4-0.2c0.1-0.1,0.2-0.1,0.3-0.1c0.1,0,0.3,0.1,0.3,0.2l0.5,0.6
		c-0.2,0.2-0.4,0.4-0.7,0.6c-0.3,0.2-0.5,0.3-0.8,0.4c-0.3,0.1-0.5,0.2-0.8,0.2c-0.3,0-0.5,0.1-0.8,0.1c-0.5,0-1-0.1-1.4-0.3
		c-0.4-0.2-0.8-0.5-1.2-0.8c-0.4-0.4-0.6-0.8-0.8-1.2c-0.2-0.5-0.3-1.1-0.3-1.7c0-0.5,0.1-1,0.2-1.4c0.2-0.4,0.4-0.8,0.7-1.2
		c0.3-0.3,0.7-0.6,1.1-0.8c0.5-0.2,1-0.3,1.5-0.3c0.4,0,0.9,0.1,1.3,0.2c0.4,0.1,0.7,0.4,1,0.6c0.3,0.3,0.5,0.7,0.7,1
		c0.2,0.5,0.2,0.9,0.2,1.4c0,0.2,0,0.4-0.1,0.5c-0.1,0.1-0.2,0.2-0.3,0.1L567.7,493.4z M571.1,492.3c0-0.2,0-0.4-0.1-0.6
		c-0.1-0.2-0.2-0.4-0.3-0.5c-0.1-0.2-0.3-0.3-0.5-0.4c-0.2-0.1-0.5-0.1-0.7-0.1c-0.4,0-0.9,0.1-1.2,0.4c-0.3,0.3-0.5,0.8-0.6,1.2
		L571.1,492.3z"/>
	<path class="st2" d="M574,496.9v-7.4h1.1c0.2,0,0.4,0.1,0.5,0.3l0.1,0.5c0.1-0.1,0.3-0.3,0.4-0.4c0.1-0.1,0.3-0.2,0.5-0.3
		c0.2-0.1,0.3-0.2,0.5-0.2c0.2-0.1,0.4-0.1,0.6-0.1c0.4,0,0.8,0.1,1.2,0.4c0.3,0.3,0.5,0.6,0.7,1c0.1-0.2,0.3-0.4,0.4-0.6
		c0.2-0.2,0.4-0.3,0.6-0.4c0.2-0.1,0.4-0.2,0.7-0.2c0.2-0.1,0.5-0.1,0.7-0.1c0.4,0,0.7,0.1,1.1,0.2c0.3,0.1,0.6,0.3,0.8,0.5
		c0.2,0.3,0.4,0.6,0.5,0.9c0.1,0.4,0.2,0.8,0.2,1.2v4.7h-1.8v-4.7c0-0.4-0.1-0.8-0.3-1.1c-0.2-0.2-0.6-0.4-0.9-0.4
		c-0.2,0-0.3,0-0.5,0.1c-0.2,0.1-0.3,0.2-0.4,0.3c-0.1,0.1-0.2,0.3-0.3,0.4c-0.1,0.2-0.1,0.4-0.1,0.6v4.7h-1.8v-4.7
		c0-0.4-0.1-0.8-0.3-1.1c-0.2-0.2-0.5-0.4-0.9-0.3c-0.3,0-0.5,0.1-0.7,0.2c-0.2,0.1-0.4,0.3-0.6,0.5v5.4L574,496.9z"/>
	<path class="st2" d="M585.9,490.5c0.8-0.8,1.9-1.2,3.1-1.2c0.4,0,0.8,0.1,1.2,0.2c0.3,0.1,0.6,0.3,0.9,0.6c0.2,0.3,0.4,0.6,0.5,0.9
		c0.1,0.4,0.2,0.8,0.2,1.2v4.7h-0.8c-0.1,0-0.3,0-0.4-0.1c-0.1-0.1-0.2-0.2-0.2-0.3l-0.2-0.5c-0.2,0.2-0.4,0.3-0.5,0.4
		c-0.2,0.1-0.4,0.2-0.6,0.3c-0.2,0.1-0.4,0.2-0.6,0.2c-0.2,0-0.5,0.1-0.7,0.1c-0.3,0-0.6,0-0.9-0.1c-0.3-0.1-0.5-0.2-0.7-0.4
		c-0.2-0.2-0.3-0.4-0.4-0.6c-0.1-0.3-0.2-0.6-0.2-0.9c0-0.2,0-0.4,0.1-0.6c0.1-0.2,0.2-0.4,0.3-0.5c0.2-0.2,0.3-0.3,0.6-0.5
		c0.2-0.2,0.5-0.3,0.8-0.4c0.4-0.1,0.8-0.2,1.2-0.3c0.5-0.1,1-0.1,1.5-0.1v-0.4c0-0.4-0.1-0.8-0.3-1.1c-0.2-0.2-0.6-0.4-0.9-0.4
		c-0.2,0-0.5,0-0.7,0.1c-0.2,0.1-0.3,0.1-0.5,0.2l-0.4,0.2c-0.1,0.1-0.3,0.1-0.4,0.1c-0.1,0-0.2,0-0.3-0.1c-0.1-0.1-0.2-0.1-0.2-0.2
		L585.9,490.5z M590,493.7c-0.4,0-0.9,0.1-1.3,0.1c-0.3,0-0.5,0.1-0.8,0.2c-0.2,0.1-0.3,0.2-0.5,0.4c-0.2,0.4-0.2,0.8,0.1,1.1
		c0.2,0.1,0.5,0.2,0.7,0.2c0.3,0,0.6-0.1,0.9-0.2c0.3-0.2,0.6-0.4,0.8-0.6L590,493.7z"/>
	<path class="st2" d="M595,490.4c0.1-0.1,0.3-0.3,0.5-0.4c0.2-0.1,0.3-0.2,0.5-0.3c0.2-0.1,0.4-0.2,0.6-0.2c0.2-0.1,0.5-0.1,0.7-0.1
		c0.4,0,0.7,0.1,1.1,0.2c0.3,0.1,0.6,0.3,0.8,0.6c0.2,0.3,0.4,0.6,0.5,0.9c0.1,0.4,0.2,0.8,0.2,1.1v4.7H598v-4.7
		c0-0.4-0.1-0.7-0.3-1c-0.2-0.3-0.6-0.4-0.9-0.4c-0.3,0-0.6,0.1-0.9,0.2c-0.3,0.1-0.6,0.3-0.8,0.6v5.3h-1.8v-7.4h1.1
		c0.2,0,0.4,0.1,0.5,0.3L595,490.4z"/>
	<path class="st2" d="M607.9,486.2v10.7h-1.1c-0.2,0-0.4-0.1-0.4-0.3l-0.2-0.7c-0.3,0.3-0.6,0.6-1,0.8c-0.4,0.2-0.9,0.3-1.4,0.3
		c-0.4,0-0.8-0.1-1.1-0.3c-0.3-0.2-0.6-0.4-0.9-0.7c-0.3-0.4-0.4-0.8-0.6-1.2c-0.1-0.5-0.2-1.1-0.2-1.6c0-0.5,0.1-1,0.2-1.5
		c0.1-0.4,0.4-0.9,0.6-1.2c0.3-0.3,0.6-0.6,1-0.8c0.4-0.2,0.9-0.3,1.3-0.3c0.4,0,0.7,0.1,1.1,0.2c0.3,0.1,0.6,0.3,0.8,0.5v-3.9
		L607.9,486.2z M606.1,491.4c-0.2-0.2-0.4-0.4-0.7-0.5c-0.3-0.1-0.5-0.2-0.8-0.2c-0.3,0-0.5,0-0.7,0.2c-0.2,0.1-0.4,0.3-0.6,0.5
		c-0.2,0.2-0.3,0.5-0.4,0.8c-0.1,0.4-0.1,0.7-0.1,1.1c0,0.4,0,0.7,0.1,1.1c0.1,0.3,0.2,0.5,0.3,0.7c0.1,0.2,0.3,0.3,0.5,0.4
		c0.2,0.1,0.4,0.1,0.6,0.1c0.3,0,0.7-0.1,0.9-0.2c0.3-0.2,0.5-0.4,0.7-0.7L606.1,491.4z"/>
	<path class="st2" d="M566.9,508.9c0,0.7-0.1,1.4-0.4,2.1c-0.5,1.3-1.5,2.2-2.7,2.7c-0.7,0.3-1.4,0.4-2.2,0.4h-4v-10.4h4
		c0.7,0,1.5,0.1,2.2,0.4c0.6,0.2,1.2,0.6,1.7,1.1c0.5,0.5,0.8,1,1.1,1.6C566.8,507.5,566.9,508.2,566.9,508.9z M564.9,508.9
		c0-0.5-0.1-1-0.2-1.5c-0.1-0.4-0.4-0.8-0.7-1.2c-0.3-0.3-0.6-0.6-1-0.7c-0.4-0.2-0.9-0.3-1.4-0.2h-2v7.3h2c0.5,0,0.9-0.1,1.4-0.3
		c0.4-0.2,0.7-0.4,1-0.7c0.3-0.3,0.5-0.7,0.7-1.2C564.9,510,564.9,509.5,564.9,508.9z"/>
	<path class="st2" d="M569.6,510.7c0,0.3,0.1,0.7,0.2,1c0.1,0.3,0.2,0.5,0.4,0.7c0.2,0.2,0.4,0.3,0.6,0.4c0.3,0.1,0.5,0.1,0.8,0.1
		c0.3,0,0.5,0,0.7-0.1c0.2-0.1,0.4-0.1,0.5-0.2l0.4-0.2c0.1-0.1,0.2-0.1,0.3-0.1c0.1,0,0.3,0.1,0.3,0.2l0.5,0.6
		c-0.2,0.2-0.4,0.4-0.7,0.6c-0.3,0.2-0.5,0.3-0.8,0.4c-0.3,0.1-0.5,0.2-0.8,0.2c-0.3,0-0.5,0.1-0.8,0.1c-0.5,0-1-0.1-1.4-0.3
		c-0.4-0.2-0.8-0.5-1.2-0.8c-0.4-0.4-0.6-0.8-0.8-1.2c-0.2-0.5-0.3-1.1-0.3-1.7c0-0.5,0.1-1,0.2-1.4c0.2-0.4,0.4-0.8,0.7-1.2
		c0.3-0.3,0.7-0.6,1.1-0.8c0.5-0.2,1-0.3,1.5-0.3c0.4,0,0.9,0.1,1.3,0.2c0.4,0.1,0.7,0.4,1,0.6c0.3,0.3,0.5,0.7,0.7,1
		c0.2,0.5,0.2,0.9,0.2,1.4c0,0.2,0,0.4-0.1,0.5c-0.1,0.1-0.2,0.2-0.3,0.1L569.6,510.7z M573,509.6c0-0.2,0-0.4-0.1-0.6
		c-0.1-0.2-0.2-0.4-0.3-0.5c-0.1-0.2-0.3-0.3-0.5-0.4c-0.2-0.1-0.5-0.1-0.7-0.1c-0.4,0-0.9,0.1-1.2,0.4c-0.3,0.3-0.5,0.8-0.6,1.2
		L573,509.6z"/>
	<path class="st2" d="M577.6,507.8c0.3-0.3,0.6-0.6,1-0.8c0.4-0.2,0.9-0.3,1.4-0.3c0.4,0,0.8,0.1,1.1,0.3c0.3,0.2,0.6,0.4,0.9,0.7
		c0.3,0.4,0.4,0.8,0.6,1.2c0.1,0.5,0.2,1.1,0.2,1.6c0,0.5-0.1,1-0.2,1.5c-0.1,0.4-0.4,0.9-0.6,1.2c-0.3,0.3-0.6,0.6-1,0.8
		c-0.4,0.2-0.9,0.3-1.4,0.3c-0.4,0-0.7-0.1-1.1-0.2c-0.3-0.1-0.6-0.3-0.8-0.5v3h-1.8v-9.8h1.1c0.2,0,0.4,0.1,0.5,0.3L577.6,507.8z
		 M577.7,512.2c0.2,0.2,0.4,0.4,0.7,0.5c0.3,0.1,0.5,0.2,0.8,0.2c0.3,0,0.5,0,0.7-0.2c0.2-0.1,0.4-0.3,0.6-0.5
		c0.2-0.2,0.3-0.5,0.4-0.8c0.1-0.4,0.1-0.7,0.1-1.1c0-0.4,0-0.7-0.1-1.1c-0.1-0.3-0.2-0.5-0.3-0.7c-0.1-0.2-0.3-0.3-0.5-0.4
		c-0.2-0.1-0.4-0.1-0.6-0.1c-0.3,0-0.7,0.1-0.9,0.2c-0.3,0.2-0.5,0.4-0.7,0.7L577.7,512.2z"/>
	<path class="st2" d="M587.4,506.7c0.5,0,1,0.1,1.5,0.3c0.4,0.2,0.8,0.5,1.2,0.8c0.3,0.3,0.6,0.7,0.7,1.2c0.4,1,0.4,2.2,0,3.2
		c-0.2,0.4-0.4,0.9-0.7,1.2c-0.3,0.3-0.7,0.6-1.2,0.8c-0.5,0.2-1,0.3-1.5,0.3c-0.5,0-1-0.1-1.5-0.3c-0.4-0.2-0.8-0.5-1.2-0.8
		c-0.3-0.3-0.6-0.8-0.7-1.2c-0.4-1-0.4-2.2,0-3.2c0.2-0.4,0.4-0.9,0.7-1.2c0.3-0.3,0.7-0.6,1.2-0.8
		C586.4,506.7,586.9,506.6,587.4,506.7z M587.4,512.9c0.5,0,1-0.2,1.4-0.6c0.6-1.1,0.6-2.5,0-3.6c-0.7-0.8-1.8-0.8-2.6-0.2
		c-0.1,0.1-0.1,0.1-0.2,0.2c-0.3,0.5-0.5,1.2-0.4,1.8c0,0.6,0.1,1.3,0.4,1.8C586.3,512.7,586.8,512.9,587.4,512.9z"/>
	<path class="st2" d="M596.9,508.2c0,0.1-0.1,0.1-0.2,0.2c-0.1,0-0.1,0.1-0.2,0c-0.1,0-0.2,0-0.3-0.1l-0.3-0.2
		c-0.1-0.1-0.3-0.1-0.4-0.2c-0.2-0.1-0.4-0.1-0.6-0.1c-0.3,0-0.6,0.1-0.8,0.2c-0.2,0.1-0.3,0.4-0.3,0.6c0,0.1,0,0.3,0.2,0.4
		c0.1,0.1,0.3,0.2,0.4,0.3c0.2,0.1,0.4,0.2,0.6,0.2l0.7,0.2c0.2,0.1,0.4,0.2,0.7,0.3c0.2,0.1,0.4,0.2,0.6,0.4
		c0.2,0.2,0.3,0.3,0.4,0.5c0.1,0.3,0.2,0.5,0.2,0.8c0,0.3-0.1,0.7-0.2,1c-0.1,0.3-0.3,0.6-0.6,0.8c-0.3,0.2-0.6,0.4-0.9,0.5
		c-0.7,0.2-1.3,0.2-2,0.1c-0.2,0-0.5-0.1-0.7-0.2c-0.2-0.1-0.4-0.2-0.6-0.3c-0.2-0.1-0.3-0.2-0.5-0.4l0.4-0.7c0-0.1,0.1-0.1,0.2-0.2
		c0.1,0,0.2-0.1,0.3-0.1c0.1,0,0.2,0,0.3,0.1l0.3,0.2c0.1,0.1,0.3,0.1,0.5,0.2c0.2,0.1,0.4,0.1,0.7,0.1c0.2,0,0.4,0,0.5-0.1
		c0.1,0,0.3-0.1,0.4-0.2c0.1-0.1,0.2-0.2,0.2-0.3c0-0.1,0.1-0.2,0.1-0.3c0-0.2,0-0.3-0.2-0.4c-0.1-0.1-0.3-0.2-0.4-0.3
		c-0.2-0.1-0.4-0.2-0.6-0.2l-0.7-0.2c-0.2-0.1-0.5-0.2-0.7-0.3c-0.2-0.1-0.4-0.2-0.6-0.4c-0.2-0.2-0.3-0.4-0.4-0.6
		c-0.1-0.3-0.2-0.5-0.2-0.8c0-0.3,0.1-0.6,0.2-0.9c0.1-0.3,0.3-0.5,0.5-0.7c0.3-0.2,0.6-0.4,0.9-0.5c0.4-0.1,0.8-0.2,1.2-0.2
		c0.5,0,0.9,0.1,1.4,0.2c0.4,0.2,0.7,0.4,1,0.7L596.9,508.2z"/>
	<path class="st2" d="M600.8,504.6c0,0.1,0,0.3-0.1,0.4c-0.1,0.1-0.1,0.3-0.2,0.4c-0.1,0.1-0.2,0.2-0.4,0.2
		c-0.1,0.1-0.3,0.1-0.4,0.1c-0.1,0-0.3,0-0.4-0.1c-0.3-0.1-0.5-0.3-0.6-0.6c-0.1-0.1-0.1-0.3-0.1-0.4c0-0.2,0-0.3,0.1-0.4
		c0.1-0.1,0.1-0.3,0.2-0.4c0.1-0.1,0.2-0.2,0.4-0.2c0.1-0.1,0.3-0.1,0.4-0.1c0.2,0,0.3,0,0.4,0.1c0.1,0.1,0.3,0.1,0.4,0.2
		c0.1,0.1,0.2,0.2,0.2,0.4C600.8,504.3,600.8,504.5,600.8,504.6z M600.5,506.8v7.4h-1.8v-7.4H600.5z"/>
	<path class="st2" d="M604.8,514.3c-0.5,0-1.1-0.2-1.5-0.5c-0.4-0.4-0.5-1-0.5-1.5v-4.1H602c-0.1,0-0.2,0-0.2-0.1
		c-0.1-0.1-0.1-0.2-0.1-0.3V507l1.2-0.2l0.4-2c0-0.2,0.2-0.3,0.4-0.3h0.9v2.3h2v1.3h-2v4c0,0.2,0,0.4,0.2,0.5
		c0.1,0.1,0.3,0.2,0.5,0.2c0.1,0,0.2,0,0.3,0l0.2-0.1l0.1-0.1c0,0,0.1,0,0.1,0c0,0,0.1,0,0.1,0c0,0,0.1,0.1,0.1,0.1l0.5,0.9
		c-0.3,0.2-0.6,0.4-0.9,0.5C605.5,514.3,605.2,514.3,604.8,514.3z"/>
</g>
<text transform="matrix(1 0 0 1 428.3301 225.1217)" class="st2 st4 st5">Vending solar energy</text>
</svg>
