<svg xmlns="http://www.w3.org/2000/svg" viewBox="0 0 360 250"><defs><style>.cls-1,.cls-2{fill:none;stroke:#fff;stroke-miterlimit:10;}.cls-2{stroke-width:3px;}.cls-3{fill:#fff;}</style></defs><title>easy</title><g id="content"><circle class="cls-1" cx="180.64" cy="125.97" r="69.22"/><circle class="cls-2" cx="180.64" cy="125.97" r="60.71"/><polygon class="cls-3" points="180.64 92.1 159.38 100.91 159.38 126.83 180.64 135.64 180.64 129.53 180.64 122.41 171.6 118.66 171.6 109.08 180.64 105.33 201.91 114.14 201.91 100.91 180.64 92.1"/><polygon class="cls-3" points="180.64 116.3 180.64 122.41 180.64 129.53 189.69 133.27 189.69 142.86 180.64 146.6 180.64 146.6 159.38 137.79 159.38 151.03 180.64 159.83 180.64 159.83 201.91 151.03 201.91 125.1 180.64 116.3"/><polyline class="cls-2" points="107.55 215.13 98.28 220.49 107.55 225.84"/><line class="cls-2" x1="98.28" y1="220.49" x2="180" y2="220.49"/><polyline class="cls-2" points="252.45 26.1 261.72 31.45 252.45 36.8"/><line class="cls-2" x1="261.72" y1="31.45" x2="180" y2="31.45"/><line class="cls-1" x1="180" y1="225.87" x2="127.87" y2="225.87"/><line class="cls-1" x1="232.47" y1="26.07" x2="180.33" y2="26.07"/></g></svg>