<svg xmlns="http://www.w3.org/2000/svg" viewBox="0 0 830 404.34"><defs><style>.cls-1{fill:#fff;}.cls-2{fill:#f7b400;}.cls-3{fill:#a58641;}.cls-4{fill:none;stroke:#fff;stroke-miterlimit:10;}</style></defs><title>pie_chart</title><g id="圖層_1" data-name="圖層 1"><path class="cls-1" d="M706.29,386.68h-.82V375.36h.82Z"/><path class="cls-1" d="M717.8,384.78a.19.19,0,0,1,.14.06l.32.34a5.38,5.38,0,0,1-.76.68,4.61,4.61,0,0,1-.9.51,5.29,5.29,0,0,1-1.08.33,6.7,6.7,0,0,1-1.29.12,5.49,5.49,0,0,1-2.16-.41,4.83,4.83,0,0,1-1.68-1.17,5.29,5.29,0,0,1-1.09-1.83,7,7,0,0,1-.39-2.38,6.64,6.64,0,0,1,.4-2.35,5.4,5.4,0,0,1,1.12-1.83,5,5,0,0,1,1.73-1.18,5.74,5.74,0,0,1,2.22-.42,5.47,5.47,0,0,1,2.06.36,5.57,5.57,0,0,1,1.63,1l-.25.36a.22.22,0,0,1-.2.1.65.65,0,0,1-.31-.18,4.07,4.07,0,0,0-.6-.39,5.14,5.14,0,0,0-1-.39,4.71,4.71,0,0,0-1.37-.18,4.86,4.86,0,0,0-1.88.35,4.13,4.13,0,0,0-1.46,1,4.64,4.64,0,0,0-1,1.6,6.75,6.75,0,0,0,0,4.26,4.69,4.69,0,0,0,1,1.6,4.13,4.13,0,0,0,1.44,1,4.58,4.58,0,0,0,1.79.35,6.55,6.55,0,0,0,1.08-.08,4.17,4.17,0,0,0,.88-.24,3.91,3.91,0,0,0,.74-.39,5.63,5.63,0,0,0,.68-.54l.08-.05Z"/><path class="cls-1" d="M730.32,381a6.85,6.85,0,0,1-.39,2.38,5.26,5.26,0,0,1-1.1,1.82,4.87,4.87,0,0,1-1.71,1.17,6,6,0,0,1-4.39,0,4.87,4.87,0,0,1-1.7-1.17,5.27,5.27,0,0,1-1.1-1.82,7.4,7.4,0,0,1,0-4.75,5.27,5.27,0,0,1,1.1-1.82,4.92,4.92,0,0,1,1.7-1.17,5.61,5.61,0,0,1,2.19-.42,5.7,5.7,0,0,1,2.2.41,4.84,4.84,0,0,1,1.71,1.17,5.31,5.31,0,0,1,1.1,1.83A6.83,6.83,0,0,1,730.32,381Zm-.85,0a6.46,6.46,0,0,0-.33-2.13,4.54,4.54,0,0,0-.93-1.6,4,4,0,0,0-1.44-1,5.11,5.11,0,0,0-3.7,0,4,4,0,0,0-1.44,1,4.55,4.55,0,0,0-.94,1.6,7,7,0,0,0,0,4.26,4.56,4.56,0,0,0,.94,1.6,4,4,0,0,0,1.44,1,5.16,5.16,0,0,0,3.7,0,4,4,0,0,0,1.44-1,4.55,4.55,0,0,0,.93-1.6A6.44,6.44,0,0,0,729.47,381Z"/><path class="cls-1" d="M740.2,375.36a4.49,4.49,0,0,1,3,.87,3.11,3.11,0,0,1,1,2.49,3.31,3.31,0,0,1-.28,1.37,3.08,3.08,0,0,1-.8,1.08,3.74,3.74,0,0,1-1.26.7,5.2,5.2,0,0,1-1.67.25h-2.1v4.56h-.82V375.36Zm0,6.1a4,4,0,0,0,1.34-.21,3,3,0,0,0,1-.58,2.5,2.5,0,0,0,.63-.87,2.68,2.68,0,0,0,.22-1.09,2.53,2.53,0,0,0-.8-2,3.53,3.53,0,0,0-2.39-.7h-2.1v5.46Z"/><path class="cls-1" d="M745.66,379.85a4.64,4.64,0,0,1,1.31-.94,3.66,3.66,0,0,1,1.56-.32,2.83,2.83,0,0,1,1.12.2,2.06,2.06,0,0,1,.8.58,2.56,2.56,0,0,1,.48.92,4.23,4.23,0,0,1,.16,1.2v5.18h-.3a.27.27,0,0,1-.3-.22l-.11-1a8.34,8.34,0,0,1-.65.58,3.89,3.89,0,0,1-.68.43,3.51,3.51,0,0,1-.76.27,3.94,3.94,0,0,1-.9.1,2.63,2.63,0,0,1-.79-.12,2,2,0,0,1-.68-.37,1.79,1.79,0,0,1-.48-.64,2.2,2.2,0,0,1-.18-.93,1.66,1.66,0,0,1,.29-.94,2.37,2.37,0,0,1,.9-.75,6,6,0,0,1,1.58-.51,13.64,13.64,0,0,1,2.32-.22v-.83a2.67,2.67,0,0,0-.48-1.7,1.7,1.7,0,0,0-1.41-.6,2.67,2.67,0,0,0-1,.16,3.54,3.54,0,0,0-.68.35,4.44,4.44,0,0,0-.46.35.49.49,0,0,1-.3.16.24.24,0,0,1-.14,0,.36.36,0,0,1-.1-.1Zm4.68,3a14.8,14.8,0,0,0-2,.18,5.65,5.65,0,0,0-1.35.38,2,2,0,0,0-.79.57,1.21,1.21,0,0,0-.26.76,1.67,1.67,0,0,0,.13.69,1.36,1.36,0,0,0,.35.48,1.4,1.4,0,0,0,.51.28,2,2,0,0,0,.6.09,3.38,3.38,0,0,0,.85-.1,3.14,3.14,0,0,0,.72-.28,3.49,3.49,0,0,0,.62-.43c.19-.17.38-.34.57-.54Z"/><path class="cls-1" d="M754.36,380.64a5,5,0,0,1,.42-.87,2.76,2.76,0,0,1,.54-.64,2.26,2.26,0,0,1,.69-.4,2.44,2.44,0,0,1,.84-.14,2.71,2.71,0,0,1,.49,0,1.25,1.25,0,0,1,.42.16l-.06.53a.15.15,0,0,1-.15.13,1.19,1.19,0,0,1-.29-.06,2,2,0,0,0-.52-.06,2.22,2.22,0,0,0-.82.14,1.9,1.9,0,0,0-.64.42,2.68,2.68,0,0,0-.5.69,6.61,6.61,0,0,0-.39.95v5.15h-.77v-8H754a.27.27,0,0,1,.19.06.33.33,0,0,1,.07.19Z"/><path class="cls-1" d="M765.89,386.68h-.77v-7.14h-4.61v5.4a1.67,1.67,0,0,0,.08.56,1,1,0,0,0,.23.39.9.9,0,0,0,.35.22,1.24,1.24,0,0,0,.43.07,1.33,1.33,0,0,0,.5-.08,2.06,2.06,0,0,0,.36-.18l.25-.18a.27.27,0,0,1,.15-.08.17.17,0,0,1,.13.08l.21.34a2.2,2.2,0,0,1-.77.54,2.41,2.41,0,0,1-1,.2,1.71,1.71,0,0,1-1.26-.45,1.88,1.88,0,0,1-.45-1.38v-5.44H758.6a.22.22,0,0,1-.14,0,.17.17,0,0,1-.06-.14v-.3l1.36-.1.19-2.85A.29.29,0,0,1,760,376a.17.17,0,0,1,.14-.06h.36v3h5.38Zm.35-10.8a.6.6,0,0,1-.06.27.77.77,0,0,1-.39.37.68.68,0,0,1-.54,0,.74.74,0,0,1-.22-.15.77.77,0,0,1-.15-.22.64.64,0,0,1-.06-.27.7.7,0,0,1,.06-.28.72.72,0,0,1,.38-.38.69.69,0,0,1,.54,0,.76.76,0,0,1,.23.15.73.73,0,0,1,.16.23A.66.66,0,0,1,766.24,375.88Z"/><path class="cls-1" d="M774,379.79l-.08.07a.16.16,0,0,1-.1,0,.4.4,0,0,1-.22-.11,2.68,2.68,0,0,0-.37-.24,3.12,3.12,0,0,0-.58-.24,2.87,2.87,0,0,0-.84-.11,2.91,2.91,0,0,0-1.22.24,2.46,2.46,0,0,0-.9.7,3.11,3.11,0,0,0-.56,1.1,5.2,5.2,0,0,0-.19,1.46,5.14,5.14,0,0,0,.2,1.49,3.15,3.15,0,0,0,.56,1.09,2.38,2.38,0,0,0,.87.68,2.72,2.72,0,0,0,1.14.23,2.94,2.94,0,0,0,1-.14,3.16,3.16,0,0,0,.64-.3,2.62,2.62,0,0,0,.4-.3.4.4,0,0,1,.24-.14.2.2,0,0,1,.16.08l.2.26a2.34,2.34,0,0,1-.46.45,3.17,3.17,0,0,1-.63.36,3.83,3.83,0,0,1-.76.24,4.25,4.25,0,0,1-.86.08,3.42,3.42,0,0,1-1.39-.28,3,3,0,0,1-1.08-.8,3.75,3.75,0,0,1-.7-1.28,6,6,0,0,1,0-3.39,3.71,3.71,0,0,1,.7-1.3,3.19,3.19,0,0,1,1.13-.84,3.7,3.7,0,0,1,1.53-.3,3.59,3.59,0,0,1,1.38.25,3.41,3.41,0,0,1,1,.67Z"/><path class="cls-1" d="M777.32,376a.62.62,0,0,1-.06.27.83.83,0,0,1-.16.22.73.73,0,0,1-.22.15.66.66,0,0,1-.27.06.66.66,0,0,1-.27-.06.73.73,0,0,1-.38-.37.65.65,0,0,1-.06-.27.71.71,0,0,1,.21-.5.74.74,0,0,1,.22-.15.68.68,0,0,1,.27-.06.67.67,0,0,1,.27.06.73.73,0,0,1,.22.15.79.79,0,0,1,.16.23A.68.68,0,0,1,777.32,376Zm-.33,2.74v8h-.76v-8Z"/><path class="cls-1" d="M780.44,380.15a4.23,4.23,0,0,1,1.24-1.14,3,3,0,0,1,1.59-.42,2.77,2.77,0,0,1,2.28,1,4.78,4.78,0,0,1,.82,3,5.6,5.6,0,0,1-.23,1.63,3.86,3.86,0,0,1-.67,1.31,3.2,3.2,0,0,1-1.09.88,3.3,3.3,0,0,1-1.48.32,3.1,3.1,0,0,1-1.4-.3,2.89,2.89,0,0,1-1-.87v3.88h-.77V378.72h.42a.21.21,0,0,1,.23.2Zm0,4.79a3.4,3.4,0,0,0,.48.58,2.44,2.44,0,0,0,.53.38,2.18,2.18,0,0,0,.6.21,3.42,3.42,0,0,0,.67.06,2.79,2.79,0,0,0,1.23-.26,2.43,2.43,0,0,0,.88-.72,3.27,3.27,0,0,0,.54-1.12,5.42,5.42,0,0,0,.18-1.44,4.22,4.22,0,0,0-.66-2.61,2.25,2.25,0,0,0-1.88-.84,2.61,2.61,0,0,0-1.43.41,4.07,4.07,0,0,0-1.14,1.14Z"/><path class="cls-1" d="M788.31,379.85a4.64,4.64,0,0,1,1.31-.94,3.66,3.66,0,0,1,1.56-.32,2.83,2.83,0,0,1,1.12.2,2.06,2.06,0,0,1,.8.58,2.56,2.56,0,0,1,.48.92,4.23,4.23,0,0,1,.16,1.2v5.18h-.3a.27.27,0,0,1-.3-.22l-.11-1a8.34,8.34,0,0,1-.65.58,3.89,3.89,0,0,1-.68.43,3.51,3.51,0,0,1-.76.27,3.94,3.94,0,0,1-.9.1,2.63,2.63,0,0,1-.79-.12,2,2,0,0,1-.68-.37,1.79,1.79,0,0,1-.48-.64,2.2,2.2,0,0,1-.18-.93,1.66,1.66,0,0,1,.29-.94,2.37,2.37,0,0,1,.9-.75,6,6,0,0,1,1.58-.51,13.64,13.64,0,0,1,2.32-.22v-.83a2.67,2.67,0,0,0-.48-1.7,1.7,1.7,0,0,0-1.41-.6,2.67,2.67,0,0,0-1,.16,3.54,3.54,0,0,0-.68.35,4.44,4.44,0,0,0-.46.35.49.49,0,0,1-.3.16.24.24,0,0,1-.14,0,.36.36,0,0,1-.1-.1Zm4.68,3a14.8,14.8,0,0,0-2,.18,5.65,5.65,0,0,0-1.35.38,2,2,0,0,0-.79.57,1.21,1.21,0,0,0-.26.76,1.67,1.67,0,0,0,.13.69,1.36,1.36,0,0,0,.35.48,1.4,1.4,0,0,0,.51.28,2,2,0,0,0,.6.09,3.38,3.38,0,0,0,.85-.1,3.14,3.14,0,0,0,.72-.28,3.49,3.49,0,0,0,.62-.43c.19-.17.38-.34.57-.54Z"/><path class="cls-1" d="M797,380.11a4.51,4.51,0,0,1,1.28-1.1,3.18,3.18,0,0,1,1.61-.42,3,3,0,0,1,1.16.21,2.12,2.12,0,0,1,.83.6,2.66,2.66,0,0,1,.5.94,4.27,4.27,0,0,1,.17,1.25v5.09h-.77v-5.09a2.72,2.72,0,0,0-.51-1.76,1.88,1.88,0,0,0-1.56-.64,2.83,2.83,0,0,0-1.45.4,4.1,4.1,0,0,0-1.2,1.1v6h-.77v-8h.42a.21.21,0,0,1,.23.2Z"/><path class="cls-1" d="M807.15,386.81a1.71,1.71,0,0,1-1.26-.45,1.88,1.88,0,0,1-.45-1.38v-5.44h-1.14a.22.22,0,0,1-.14,0,.17.17,0,0,1-.06-.14v-.3l1.36-.1.19-2.85a.29.29,0,0,1,.06-.13.17.17,0,0,1,.14-.06h.36v3h2.51v.57H806.2v5.4a1.67,1.67,0,0,0,.08.56,1,1,0,0,0,.23.39.9.9,0,0,0,.35.22,1.24,1.24,0,0,0,.43.07,1.33,1.33,0,0,0,.5-.08,2.06,2.06,0,0,0,.36-.18l.25-.18a.27.27,0,0,1,.15-.08.17.17,0,0,1,.13.08l.21.34a2.2,2.2,0,0,1-.77.54A2.41,2.41,0,0,1,807.15,386.81Z"/><path class="cls-1" d="M814.83,379.71a.2.2,0,0,1-.18.11.42.42,0,0,1-.22-.1,3.33,3.33,0,0,0-.36-.22,3,3,0,0,0-.56-.22,2.91,2.91,0,0,0-.82-.1,2.37,2.37,0,0,0-.79.12,1.94,1.94,0,0,0-.61.33,1.47,1.47,0,0,0-.39.48,1.3,1.3,0,0,0-.14.58,1,1,0,0,0,.19.62,1.65,1.65,0,0,0,.5.42,3.65,3.65,0,0,0,.71.3l.81.26q.41.13.81.28a3,3,0,0,1,.71.39,1.85,1.85,0,0,1,.5.57,1.62,1.62,0,0,1,.19.82,2.53,2.53,0,0,1-.18,1,2.16,2.16,0,0,1-.54.78,2.6,2.6,0,0,1-.88.52,3.41,3.41,0,0,1-1.19.19,3.57,3.57,0,0,1-1.45-.27,4.07,4.07,0,0,1-1.09-.7l.18-.27a.29.29,0,0,1,.09-.1.26.26,0,0,1,.14,0,.43.43,0,0,1,.25.13,2.75,2.75,0,0,0,.4.28,3.45,3.45,0,0,0,.61.28,2.75,2.75,0,0,0,.9.13,2.57,2.57,0,0,0,.89-.14,1.84,1.84,0,0,0,.64-.38,1.59,1.59,0,0,0,.39-.56,1.8,1.8,0,0,0,.13-.68,1.1,1.1,0,0,0-.19-.66,1.65,1.65,0,0,0-.5-.45,3.47,3.47,0,0,0-.71-.31l-.81-.26q-.42-.13-.81-.28a3,3,0,0,1-.71-.38,1.84,1.84,0,0,1-.5-.56,1.63,1.63,0,0,1-.19-.83,1.89,1.89,0,0,1,.18-.82,2.09,2.09,0,0,1,.52-.69,2.57,2.57,0,0,1,.83-.47,3.22,3.22,0,0,1,1.1-.18,3.72,3.72,0,0,1,1.29.21,3,3,0,0,1,1,.64Z"/><path class="cls-1" d="M119.62,86.23a.23.23,0,0,1-.21.14.46.46,0,0,1-.27-.15,3.44,3.44,0,0,0-1.14-.66,3.52,3.52,0,0,0-2.12,0,2.27,2.27,0,0,0-.79.48,2,2,0,0,0-.48.7,2.19,2.19,0,0,0-.16.84,1.71,1.71,0,0,0,.24,1,2.21,2.21,0,0,0,.64.64,4.2,4.2,0,0,0,.91.44l1,.36q.54.18,1,.39a3.75,3.75,0,0,1,.91.53,2.44,2.44,0,0,1,.64.79,2.51,2.51,0,0,1,.24,1.16,3.68,3.68,0,0,1-.24,1.34,3.13,3.13,0,0,1-.71,1.09A3.31,3.31,0,0,1,118,96a4.12,4.12,0,0,1-1.54.27,4.35,4.35,0,0,1-1.93-.4,4.56,4.56,0,0,1-1.42-1.08l.22-.35a.28.28,0,0,1,.22-.12.33.33,0,0,1,.18.1l.27.24.38.3a3.22,3.22,0,0,0,.52.3,3.68,3.68,0,0,0,.68.24,3.58,3.58,0,0,0,.87.1,3.32,3.32,0,0,0,1.2-.2,2.63,2.63,0,0,0,.89-.56,2.35,2.35,0,0,0,.56-.84,2.76,2.76,0,0,0,.19-1,1.82,1.82,0,0,0-.24-1,2.12,2.12,0,0,0-.64-.65,4.21,4.21,0,0,0-.91-.44l-1-.34c-.36-.11-.71-.24-1-.38a3.6,3.6,0,0,1-.91-.53,2.42,2.42,0,0,1-.64-.81,2.69,2.69,0,0,1-.24-1.21,2.86,2.86,0,0,1,.22-1.1,2.71,2.71,0,0,1,.63-.93,3.11,3.11,0,0,1,1-.65,3.76,3.76,0,0,1,1.4-.24,4.23,4.23,0,0,1,1.58.28,3.78,3.78,0,0,1,1.28.86Z"/><path class="cls-1" d="M132.74,90.51a6.85,6.85,0,0,1-.39,2.38,5.28,5.28,0,0,1-1.1,1.82,4.87,4.87,0,0,1-1.71,1.17,6,6,0,0,1-4.39,0,4.88,4.88,0,0,1-1.71-1.17,5.28,5.28,0,0,1-1.1-1.82,7.39,7.39,0,0,1,0-4.75,5.28,5.28,0,0,1,1.1-1.82,4.93,4.93,0,0,1,1.71-1.17,5.6,5.6,0,0,1,2.19-.42,5.69,5.69,0,0,1,2.2.41,4.85,4.85,0,0,1,1.71,1.17,5.32,5.32,0,0,1,1.1,1.83A6.83,6.83,0,0,1,132.74,90.51Zm-.85,0a6.46,6.46,0,0,0-.33-2.13,4.55,4.55,0,0,0-.93-1.6,4,4,0,0,0-1.44-1,5.1,5.1,0,0,0-3.7,0,4,4,0,0,0-1.44,1,4.55,4.55,0,0,0-.94,1.6,7,7,0,0,0,0,4.26,4.57,4.57,0,0,0,.94,1.6,4,4,0,0,0,1.44,1,5.16,5.16,0,0,0,3.7,0,4,4,0,0,0,1.44-1,4.56,4.56,0,0,0,.93-1.6A6.44,6.44,0,0,0,131.89,90.51Z"/><path class="cls-1" d="M141.53,95.48v.7h-6.18V84.86h.82V95.48Z"/><path class="cls-1" d="M152,96.18h-.63a.28.28,0,0,1-.18-.06.41.41,0,0,1-.11-.16l-1.33-3.29h-5.56L142.91,96a.34.34,0,0,1-.11.15.29.29,0,0,1-.19.06H142l4.63-11.32h.81Zm-2.5-4.11-2.3-5.72a5.57,5.57,0,0,1-.23-.67c0,.13-.07.25-.1.36s-.08.22-.12.32l-2.3,5.71Z"/><path class="cls-1" d="M160.67,84.86a4.49,4.49,0,0,1,3,.87,3.11,3.11,0,0,1,1,2.49,3.32,3.32,0,0,1-.28,1.37,3.09,3.09,0,0,1-.8,1.08,3.73,3.73,0,0,1-1.26.7,5.19,5.19,0,0,1-1.67.25h-2.1v4.56h-.82V84.86Zm0,6.1a4,4,0,0,0,1.34-.21,3,3,0,0,0,1-.58,2.48,2.48,0,0,0,.63-.87,2.67,2.67,0,0,0,.22-1.09,2.53,2.53,0,0,0-.8-2,3.53,3.53,0,0,0-2.39-.7h-2.1V91Z"/><path class="cls-1" d="M169.3,88.09a3.83,3.83,0,0,1,1.53.29,3.13,3.13,0,0,1,1.14.83,3.67,3.67,0,0,1,.71,1.29,6,6,0,0,1,0,3.38,3.68,3.68,0,0,1-.71,1.29,3.09,3.09,0,0,1-1.14.82,4.23,4.23,0,0,1-3.06,0,3.12,3.12,0,0,1-1.14-.82,3.64,3.64,0,0,1-.71-1.29,6,6,0,0,1,0-3.38,3.63,3.63,0,0,1,.71-1.29,3.15,3.15,0,0,1,1.14-.83A3.83,3.83,0,0,1,169.3,88.09Zm0,7.59a3,3,0,0,0,1.24-.24,2.34,2.34,0,0,0,.89-.7,3.08,3.08,0,0,0,.53-1.1,6,6,0,0,0,0-2.88,3.12,3.12,0,0,0-.53-1.11,2.38,2.38,0,0,0-.89-.71,3.24,3.24,0,0,0-2.49,0,2.38,2.38,0,0,0-.89.71,3.18,3.18,0,0,0-.54,1.11,5.88,5.88,0,0,0,0,2.88,3.13,3.13,0,0,0,.54,1.1,2.34,2.34,0,0,0,.89.7A2.94,2.94,0,0,0,169.3,95.68Z"/><path class="cls-1" d="M185.5,88.22l-2.66,8h-.57c-.09,0-.15-.06-.18-.17l-2.18-6.46c0-.08-.05-.16-.07-.24s0-.16-.06-.24a3.2,3.2,0,0,1-.12.48L177.46,96a.2.2,0,0,1-.19.17h-.54l-2.66-8h.58a.28.28,0,0,1,.18.06.29.29,0,0,1,.1.13l2,6.28L177,95q0,.17.06.34l.1-.34c0-.12.07-.23.11-.36l2.13-6.34a.22.22,0,0,1,.22-.18H180a.23.23,0,0,1,.23.18l2.11,6.34.1.35.09.34.07-.34c0-.11.05-.23.09-.35l2-6.28a.3.3,0,0,1,.1-.14.29.29,0,0,1,.17-.05Z"/><path class="cls-1" d="M187.39,91.88V92a5.4,5.4,0,0,0,.21,1.58,3.23,3.23,0,0,0,.59,1.14,2.44,2.44,0,0,0,.93.69,3.06,3.06,0,0,0,1.22.23,3.63,3.63,0,0,0,1-.13,3.83,3.83,0,0,0,.74-.3,4.06,4.06,0,0,0,.48-.3.54.54,0,0,1,.26-.13.19.19,0,0,1,.16.08l.21.26a2.17,2.17,0,0,1-.51.45,3.62,3.62,0,0,1-.7.36,5.16,5.16,0,0,1-.83.24,4.59,4.59,0,0,1-.89.09,3.81,3.81,0,0,1-1.49-.28,3.16,3.16,0,0,1-1.15-.83,3.78,3.78,0,0,1-.74-1.33,5.77,5.77,0,0,1-.26-1.8,4.9,4.9,0,0,1,.24-1.58,3.61,3.61,0,0,1,.7-1.25,3.2,3.2,0,0,1,1.13-.82,3.7,3.7,0,0,1,1.52-.3,3.31,3.31,0,0,1,1.25.23,2.84,2.84,0,0,1,1,.68,3.2,3.2,0,0,1,.67,1.09,4.19,4.19,0,0,1,.24,1.49.43.43,0,0,1,0,.24.19.19,0,0,1-.16.06Zm5.31-.49a3.42,3.42,0,0,0-.18-1.15,2.42,2.42,0,0,0-.51-.86,2.22,2.22,0,0,0-.78-.54,2.59,2.59,0,0,0-1-.19,3,3,0,0,0-1.1.19,2.44,2.44,0,0,0-.84.55,2.77,2.77,0,0,0-.57.86,4,4,0,0,0-.29,1.13Z"/><path class="cls-1" d="M196.19,90.14a5,5,0,0,1,.42-.87,2.76,2.76,0,0,1,.54-.64,2.26,2.26,0,0,1,.69-.4,2.44,2.44,0,0,1,.84-.14,2.71,2.71,0,0,1,.49,0,1.25,1.25,0,0,1,.42.16l-.06.53a.15.15,0,0,1-.15.13,1.19,1.19,0,0,1-.29-.06,2,2,0,0,0-.52-.06,2.21,2.21,0,0,0-.82.14,1.89,1.89,0,0,0-.64.42,2.68,2.68,0,0,0-.5.69,6.61,6.61,0,0,0-.39.95v5.15h-.77v-8h.41a.27.27,0,0,1,.19.06.32.32,0,0,1,.07.19Z"/><path class="cls-1" d="M211.66,95.48v.7h-6.18V84.86h.82V95.48Z"/><path class="cls-1" d="M214.68,96.3a1.71,1.71,0,0,1-1.26-.45,1.87,1.87,0,0,1-.45-1.38V89h-1.14a.21.21,0,0,1-.14,0,.17.17,0,0,1-.06-.14v-.3l1.36-.1.19-2.85a.28.28,0,0,1,.06-.13.17.17,0,0,1,.14-.06h.36v3h2.51V89h-2.51v5.4a1.7,1.7,0,0,0,.08.56,1.06,1.06,0,0,0,.23.39.91.91,0,0,0,.35.22,1.25,1.25,0,0,0,.43.07,1.34,1.34,0,0,0,.5-.08,2.09,2.09,0,0,0,.36-.18l.25-.18a.27.27,0,0,1,.15-.08.17.17,0,0,1,.13.08l.21.34a2.22,2.22,0,0,1-.77.54A2.41,2.41,0,0,1,214.68,96.3Z"/><path class="cls-1" d="M224.18,84.54V96.18h-.42a.22.22,0,0,1-.24-.21l-.08-1.26a4.23,4.23,0,0,1-1.23,1.14,3,3,0,0,1-1.58.42,2.77,2.77,0,0,1-2.29-1,4.8,4.8,0,0,1-.82-3,5.6,5.6,0,0,1,.23-1.63,3.93,3.93,0,0,1,.67-1.31,3.16,3.16,0,0,1,1.08-.88,3.3,3.3,0,0,1,1.48-.32,3.1,3.1,0,0,1,1.4.3,2.93,2.93,0,0,1,1,.88V84.54Zm-.76,5.39a2.73,2.73,0,0,0-1-1,3,3,0,0,0-2.5,0,2.43,2.43,0,0,0-.88.72,3.26,3.26,0,0,0-.54,1.12,5.35,5.35,0,0,0-.18,1.44,4.24,4.24,0,0,0,.65,2.61,2.25,2.25,0,0,0,1.88.84,2.64,2.64,0,0,0,1.43-.41,3.89,3.89,0,0,0,1.14-1.14Z"/><path class="cls-1" d="M226.62,95.56a.74.74,0,0,1,.06-.29.72.72,0,0,1,.16-.24.78.78,0,0,1,.23-.16.72.72,0,0,1,.58,0,.74.74,0,0,1,.24.16.78.78,0,0,1,.16.24.71.71,0,0,1,.06.29.69.69,0,0,1-.06.29.79.79,0,0,1-.16.23.72.72,0,0,1-.24.16.74.74,0,0,1-.29.06.72.72,0,0,1-.74-.74Z"/><path class="cls-2" d="M326.83,84.53,415,205.88v-150A149.31,149.31,0,0,0,326.83,84.53Z"/><path class="cls-3" d="M415,55.88v150L326.83,84.53A150,150,0,1,0,415,55.88Z"/><polyline class="cls-4" points="344.2 70.01 325.6 51.41 214.2 51.41"/><polyline class="cls-4" points="533.8 330.58 552.4 349.18 673.8 349.18"/><path class="cls-1" d="M134.45,67.54v3.4h-19.2v-3.4h7.67V43.12q0-1.1.08-2.22l-6.37,5.47a1.43,1.43,0,0,1-.65.34,1.62,1.62,0,0,1-.6,0,1.43,1.43,0,0,1-.51-.2,1.27,1.27,0,0,1-.36-.33l-1.4-1.92L123.78,35h3.63v32.5Z"/><path class="cls-1" d="M165.5,53a28.94,28.94,0,0,1-1,8.14,17,17,0,0,1-2.76,5.69,11.1,11.1,0,0,1-4.14,3.35,12.43,12.43,0,0,1-10.23,0,11.14,11.14,0,0,1-4.11-3.35,16.79,16.79,0,0,1-2.75-5.69,29.26,29.26,0,0,1-1-8.14,29.41,29.41,0,0,1,1-8.15,16.93,16.93,0,0,1,2.75-5.71,11.11,11.11,0,0,1,4.11-3.36,12.43,12.43,0,0,1,10.23,0,11.07,11.07,0,0,1,4.14,3.36,17.13,17.13,0,0,1,2.76,5.71A29.08,29.08,0,0,1,165.5,53Zm-4.62,0a29.36,29.36,0,0,0-.69-6.89,13.85,13.85,0,0,0-1.85-4.49,7,7,0,0,0-2.69-2.44,7.2,7.2,0,0,0-6.35,0,6.89,6.89,0,0,0-2.67,2.44,14,14,0,0,0-1.84,4.49A29.26,29.26,0,0,0,144.1,53a29.09,29.09,0,0,0,.69,6.88,14,14,0,0,0,1.84,4.47,6.9,6.9,0,0,0,2.67,2.44,7.21,7.21,0,0,0,6.35,0,7,7,0,0,0,2.69-2.44,13.85,13.85,0,0,0,1.85-4.47A29.2,29.2,0,0,0,160.88,53Z"/><path class="cls-1" d="M178.86,53.09a6.74,6.74,0,0,1-.43,2.47,5.51,5.51,0,0,1-1.14,1.84,4.87,4.87,0,0,1-1.66,1.14,5.13,5.13,0,0,1-2,.39,5.29,5.29,0,0,1-2.05-.39,4.68,4.68,0,0,1-1.65-1.14,5.3,5.3,0,0,1-1.09-1.84,7.28,7.28,0,0,1-.39-2.47,7.45,7.45,0,0,1,.39-2.51,5.38,5.38,0,0,1,1.09-1.86,4.64,4.64,0,0,1,1.65-1.15,5.59,5.59,0,0,1,4.12,0,4.73,4.73,0,0,1,1.66,1.15,5.28,5.28,0,0,1,1.1,1.86A7.4,7.4,0,0,1,178.86,53.09Zm8.33-5.19a1.81,1.81,0,0,1,.38-.35,1.08,1.08,0,0,1,.6-.15h2.12L173.08,70.47a1.14,1.14,0,0,1-.38.34,1.1,1.1,0,0,1-.56.13H170Zm-10.6,5.19a6.41,6.41,0,0,0-.23-1.84,3.55,3.55,0,0,0-.63-1.24,2.33,2.33,0,0,0-.95-.7,3.1,3.1,0,0,0-1.15-.21,3,3,0,0,0-1.13.21,2.29,2.29,0,0,0-.92.7,3.58,3.58,0,0,0-.62,1.24,6.34,6.34,0,0,0-.23,1.84,6.19,6.19,0,0,0,.23,1.82,3.41,3.41,0,0,0,.63,1.22,2.27,2.27,0,0,0,.92.67,3.08,3.08,0,0,0,1.13.21,3.2,3.2,0,0,0,1.15-.21,2.32,2.32,0,0,0,.95-.67,3.39,3.39,0,0,0,.63-1.22A6.26,6.26,0,0,0,176.59,53.09Zm15.29,12.3a6.67,6.67,0,0,1-.43,2.46,5.56,5.56,0,0,1-1.14,1.83,4.85,4.85,0,0,1-1.66,1.14,5.13,5.13,0,0,1-2,.39,5.31,5.31,0,0,1-2.06-.39A4.69,4.69,0,0,1,183,69.69a5.31,5.31,0,0,1-1.09-1.83,7.16,7.16,0,0,1-.39-2.46,7.48,7.48,0,0,1,.39-2.52A5.38,5.38,0,0,1,183,61a4.66,4.66,0,0,1,1.64-1.15,5.31,5.31,0,0,1,2.06-.39,5.38,5.38,0,0,1,2.06.39A4.62,4.62,0,0,1,190.38,61a5.45,5.45,0,0,1,1.1,1.86A7.38,7.38,0,0,1,191.88,65.39Zm-2.27,0a6.51,6.51,0,0,0-.23-1.85,3.46,3.46,0,0,0-.63-1.24,2.37,2.37,0,0,0-.95-.69,3.1,3.1,0,0,0-1.15-.21,3,3,0,0,0-1.14.21,2.32,2.32,0,0,0-.93.69,3.38,3.38,0,0,0-.62,1.24,6.67,6.67,0,0,0-.22,1.85A6.33,6.33,0,0,0,184,67.2a3.3,3.3,0,0,0,.62,1.21,2.27,2.27,0,0,0,.93.67,3.16,3.16,0,0,0,1.14.21,3.22,3.22,0,0,0,1.15-.21,2.32,2.32,0,0,0,.95-.67,3.38,3.38,0,0,0,.63-1.21A6.18,6.18,0,0,0,189.62,65.39Z"/><path class="cls-1" d="M718.73,348.41l1-1.37c.32-.43.62-.87.9-1.3a10,10,0,0,1-3.1,1.67,11.44,11.44,0,0,1-3.65.58,10.89,10.89,0,0,1-3.84-.68,9.22,9.22,0,0,1-3.19-2,9.56,9.56,0,0,1-2.19-3.22,11.86,11.86,0,0,1,.06-8.79,10.84,10.84,0,0,1,2.45-3.57,11.5,11.5,0,0,1,3.75-2.4,12.69,12.69,0,0,1,4.78-.87,12.37,12.37,0,0,1,4.68.85,10.28,10.28,0,0,1,5.91,6,13.08,13.08,0,0,1,.81,4.7,14.47,14.47,0,0,1-.29,2.94,16.07,16.07,0,0,1-.83,2.72,19.35,19.35,0,0,1-1.31,2.65q-.77,1.31-1.75,2.69l-8.72,12.6a2.28,2.28,0,0,1-.93.76,3.14,3.14,0,0,1-1.37.29h-4.1Zm-10.4-11a8.83,8.83,0,0,0,.49,3,6.17,6.17,0,0,0,1.4,2.26,5.87,5.87,0,0,0,2.22,1.4,8.59,8.59,0,0,0,2.94.47,8.12,8.12,0,0,0,3.19-.59,7.09,7.09,0,0,0,2.34-1.56,6.72,6.72,0,0,0,1.45-2.25,7.19,7.19,0,0,0,.5-2.65,8.23,8.23,0,0,0-.54-3,6.73,6.73,0,0,0-1.49-2.31,6.49,6.49,0,0,0-2.26-1.46,7.89,7.89,0,0,0-2.89-.51,8,8,0,0,0-3,.54,7,7,0,0,0-2.32,1.49,6.44,6.44,0,0,0-1.5,2.28A7.79,7.79,0,0,0,708.33,337.38Z"/><path class="cls-1" d="M757.76,344.78a29,29,0,0,1-1,8.14,17,17,0,0,1-2.76,5.69,11.09,11.09,0,0,1-4.14,3.35,12.43,12.43,0,0,1-10.22,0,11.14,11.14,0,0,1-4.11-3.35,16.84,16.84,0,0,1-2.75-5.69,33.66,33.66,0,0,1,0-16.29,17,17,0,0,1,2.75-5.71,11.11,11.11,0,0,1,4.11-3.36,12.43,12.43,0,0,1,10.22,0,11.05,11.05,0,0,1,4.14,3.36,17.12,17.12,0,0,1,2.76,5.71A29.16,29.16,0,0,1,757.76,344.78Zm-4.62,0a29.25,29.25,0,0,0-.69-6.89,13.82,13.82,0,0,0-1.85-4.49,7,7,0,0,0-2.69-2.44,7.2,7.2,0,0,0-6.35,0,6.89,6.89,0,0,0-2.68,2.44,14,14,0,0,0-1.84,4.49,34.78,34.78,0,0,0,0,13.76,14,14,0,0,0,1.84,4.47,6.89,6.89,0,0,0,2.68,2.44,7.2,7.2,0,0,0,6.35,0,7,7,0,0,0,2.69-2.44,13.81,13.81,0,0,0,1.85-4.47A29.09,29.09,0,0,0,753.13,344.78Z"/><path class="cls-1" d="M771.12,344.83a6.73,6.73,0,0,1-.43,2.47,5.55,5.55,0,0,1-1.14,1.84,4.85,4.85,0,0,1-1.66,1.14,5.13,5.13,0,0,1-2,.39,5.32,5.32,0,0,1-2.05-.39,4.68,4.68,0,0,1-1.65-1.14,5.27,5.27,0,0,1-1.09-1.84,7.22,7.22,0,0,1-.39-2.47,7.41,7.41,0,0,1,.39-2.51,5.36,5.36,0,0,1,1.09-1.86,4.64,4.64,0,0,1,1.65-1.15,5.6,5.6,0,0,1,4.12,0,4.72,4.72,0,0,1,1.66,1.15,5.32,5.32,0,0,1,1.1,1.86A7.46,7.46,0,0,1,771.12,344.83Zm8.33-5.19a1.77,1.77,0,0,1,.39-.34,1.07,1.07,0,0,1,.6-.15h2.12l-17.21,23.06a1.15,1.15,0,0,1-.38.34,1.11,1.11,0,0,1-.56.13h-2.15Zm-10.59,5.19a6.35,6.35,0,0,0-.23-1.84,3.49,3.49,0,0,0-.63-1.24,2.32,2.32,0,0,0-.94-.7,3.1,3.1,0,0,0-1.15-.21,3,3,0,0,0-1.13.21,2.29,2.29,0,0,0-.92.7,3.61,3.61,0,0,0-.62,1.24,6.42,6.42,0,0,0-.23,1.84,6.26,6.26,0,0,0,.23,1.81,3.42,3.42,0,0,0,.63,1.22,2.28,2.28,0,0,0,.92.67,3.09,3.09,0,0,0,1.13.21,3.22,3.22,0,0,0,1.15-.21,2.31,2.31,0,0,0,.94-.67,3.31,3.31,0,0,0,.63-1.22A6.19,6.19,0,0,0,768.85,344.83Zm15.29,12.3a6.71,6.71,0,0,1-.43,2.46,5.57,5.57,0,0,1-1.14,1.83,4.87,4.87,0,0,1-1.66,1.14,5.14,5.14,0,0,1-2,.39,5.3,5.3,0,0,1-2.06-.39,4.69,4.69,0,0,1-1.64-1.14,5.29,5.29,0,0,1-1.09-1.83,7.2,7.2,0,0,1-.39-2.46,7.53,7.53,0,0,1,.39-2.52,5.34,5.34,0,0,1,1.09-1.86,4.62,4.62,0,0,1,1.64-1.15,5.28,5.28,0,0,1,2.06-.39,5.36,5.36,0,0,1,2.06.39,4.61,4.61,0,0,1,1.66,1.15,5.44,5.44,0,0,1,1.1,1.86A7.33,7.33,0,0,1,784.14,357.13Zm-2.27,0a6.43,6.43,0,0,0-.23-1.85A3.39,3.39,0,0,0,781,354a2.35,2.35,0,0,0-.94-.69,3.13,3.13,0,0,0-1.15-.21,3.06,3.06,0,0,0-1.14.21,2.3,2.3,0,0,0-.93.69,3.44,3.44,0,0,0-.62,1.24,6.67,6.67,0,0,0-.22,1.85,6.35,6.35,0,0,0,.22,1.81,3.37,3.37,0,0,0,.62,1.21,2.26,2.26,0,0,0,.93.67,3.15,3.15,0,0,0,1.14.21,3.23,3.23,0,0,0,1.15-.21,2.3,2.3,0,0,0,.94-.67,3.33,3.33,0,0,0,.63-1.21A6.12,6.12,0,0,0,781.88,357.13Z"/></g></svg>