<svg xmlns="http://www.w3.org/2000/svg" xmlns:xlink="http://www.w3.org/1999/xlink" viewBox="0 0 718 625">
  <defs>
    <style>
      .cls-1, .cls-6 {
        fill: #fff;
      }

      .cls-2 {
        clip-path: url(#clip-Artboard_1);
      }

      .cls-3 {
        fill: #605231;
      }

      .cls-4 {
        fill: none;
        stroke: #fff;
        stroke-miterlimit: 10;
      }

      .cls-5 {
        fill: #f7b100;
      }

      .cls-6 {
        font-size: 20px;
        font-family: HelveticaNeue, Helvetica Neue;
      }

      .cls-7 {
        clip-path: url(#clip-path);
      }

      .cls-8 {
        clip-path: url(#clip-path-2);
      }
    </style>
    <clipPath id="clip-path">
      <path id="Path_1" data-name="Path 1" class="cls-1" d="M8,25.094V15.217c0-.183.183-.366.366-.549,1.463-.549,2.744-1.1,4.207-1.646,2.927-1.1,5.67-2.195,8.6-3.475C22.45,9,23.731,8.449,25.194,7.9h.549c2.927,1.1,6.036,2.378,8.963,3.475,2.561,1.1,5.3,2.012,7.865,3.11a.393.393,0,0,1,.366.366v9.695c0,.366,0,.366-.366.183-3.11-1.28-6.219-2.561-9.329-3.658-2.378-.915-4.756-2.012-7.317-2.927-.183,0-.366-.183-.732,0-2.195.915-4.573,1.829-6.768,2.744-.183.183-.366.183-.366.549V28.2c0,.183.183.366.366.549a32.977,32.977,0,0,0,3.841,1.463l2.744,1.1c.549.183.549.183.549-.366V26.923c0-.366,0-.366.366-.183,2.927,1.28,6.036,2.378,8.963,3.658,2.561,1.1,5.122,2.012,7.682,3.11.366.183.366.183.366.549V53.629c0,.366-.183.366-.366.549L26.109,60.763a1.547,1.547,0,0,1-1.28,0l-9.877-3.841c-2.195-.915-4.39-1.829-6.585-2.561C8,54.361,8,54.178,8,53.995V44.3c0-.366,0-.366.366-.183,1.1.366,2.378.915,3.475,1.28,3.475,1.463,7.134,2.744,10.609,4.207.915.366,1.646.732,2.561,1.1h.549c2.195-.915,4.39-1.829,6.585-2.561.366-.183.366-.183.366-.549V40.825c0-.183,0-.366-.366-.366-2.195-.915-4.39-1.829-6.585-2.561-.366-.183-.549-.183-.549.366v4.024c0,.366,0,.366-.366.183l-5.487-2.195c-3.11-1.28-6.036-2.378-9.146-3.658A21.459,21.459,0,0,1,8,35.7c0-.366,0-.549,0-.732V25.094" transform="translate(-8 -7.9)"/>
    </clipPath>
    <clipPath id="clip-path-2">
      <rect id="Rectangle_3" data-name="Rectangle 3" class="cls-1" width="223.158" height="89.629"/>
    </clipPath>
    <clipPath id="clip-Artboard_1">
      <rect width="718" height="625"/>
    </clipPath>
  </defs>
  <g id="Artboard_1" data-name="Artboard – 1" class="cls-2">
    <rect fill="transparent" width="718" height="625"/>
    <g id="Group_140" data-name="Group 140" transform="translate(1032 -3228)">
      <g id="f61f0e75949db2dc676525e227f02d96" transform="translate(-1049.3 3241.8)">
        <circle id="Ellipse_38" data-name="Ellipse 38" class="cls-3" cx="39.7" cy="39.7" r="39.7" transform="translate(124.1 90.2)"/>
        <g id="Group_55" data-name="Group 55">
          <path id="Path_33" data-name="Path 33" class="cls-1" d="M353,592.5a19.975,19.975,0,0,1-1.9,4.2v13.5h-1.8V599.5c-.6.7-1.2,1.5-1.9,2.2l-.6-2a22.452,22.452,0,0,0,4.5-8Zm2.1,12.5c1.1-.3,2.2-.7,3.3-1.1l.3,1.6c-1.6.5-3.5,1.1-5.7,1.7l-.5-1.6c.5-.2.7-.6.7-1.3V593.5a69.446,69.446,0,0,0,10.1-1.7l1,1.5c-.9.2-2,.5-3.3.7,0,1.6,0,3.1.1,4.4h3.6v1.8h-3.5a22.779,22.779,0,0,0,.6,5.2c.4,1.4.9,2.2,1.4,2.3.3-.1.5-1.1.8-3.2l1.5,1c-.4,2.7-1.1,4.1-2.2,4.1a2.593,2.593,0,0,1-1.8-.9,7.638,7.638,0,0,1-1.5-3.4,26.316,26.316,0,0,1-.5-5.2h-4.4Zm4.8,3.1v1.8h-6.6v-1.8Zm-.5-13.6q-1.95.3-4.2.6v3.5h4.3C359.5,597.3,359.4,595.9,359.4,594.5Z"/>
          <path id="Path_34" data-name="Path 34" class="cls-1" d="M372.6,591.8v2h2.9v1.7h-2.9v2h3.6v1.7h-1.5a9.385,9.385,0,0,1-.6,2.4h1.5v1.7h-3v2h3.6V607h-3.6v3.3h-1.8V607h-3.7v-1.7h3.7v-2h-3v-1.8h1.5c-.2-.9-.3-1.7-.5-2.4h-1.6v-1.7h3.6v-2h-2.9v-1.7h2.9v-2h1.8Zm.4,7.3h-2.6c.2.8.3,1.6.5,2.4h1.4A13.7,13.7,0,0,0,373,599.1Zm5.5,11.1h-1.8V592.5h7.9a16.1,16.1,0,0,1-.4,4.7c-.2.8-1,1.1-2.2,1.1h-1.3l-.5-1.6h1a2.22,2.22,0,0,0,.9-.1,1,1,0,0,0,.5-.4,7.833,7.833,0,0,0,.2-2.1h-4.3v5.4h6.3v1.6a16.331,16.331,0,0,1-1.7,5.4,17.876,17.876,0,0,0,2.5,2.2l-1.2,1.5a12.114,12.114,0,0,1-2.3-2.2,11.333,11.333,0,0,1-2.7,2.2l-.8-1.5v1.5Zm0-1.6a9.141,9.141,0,0,0,2.4-2,12.792,12.792,0,0,1-2-5.2h-.4Zm3.4-3.6a17.854,17.854,0,0,0,1.2-3.7h-2.5A6.162,6.162,0,0,0,381.9,605Z"/>
          <path id="Path_35" data-name="Path 35" class="cls-1" d="M387.1,594.1v-1.6H395v1.7h-2.2v2h1.7v12.7h-5.6v1.2h-1.3V596.2h1.7v-2h-2.2v-.1Zm6,13.3v-4.8h-.7c-.7,0-1-.4-1-1.1v-4h-.9v1.3a7.234,7.234,0,0,1-1.2,4.6l-.5-.4v4.4Zm-3.5-8.6v-1.3h-.8v4.8A5.866,5.866,0,0,0,389.6,598.8Zm2.9,5.3v1.6h-3.1v-1.6Zm-1-10h-.9v2h.9Zm.7,7.1c0,.2.1.3.4.3h.5v-4h-.8v3.7Zm4.2.9-1,.5c-.3-1.8-.7-3.5-1-4.9l1-.4A28.86,28.86,0,0,1,396.4,602.1Zm1.7-10.1v8.9c0,4.3-.8,7.4-2.2,9.4l-1.3-1.2c1.3-1.7,1.9-4.4,1.9-8.2V592Zm1.8,10.2-.8.4c-.3-1.8-.5-3.5-.8-4.9l.8-.3C399.3,598.8,399.6,600.4,399.9,602.2Zm1.5-10.1v17.8h-1.5V592.1Zm1.7,10-.8.4c-.2-1.8-.5-3.5-.7-4.9l.8-.4C402.6,598.7,402.9,600.3,403.1,602.1Zm1.8-10.2v18.3h-1.6V591.9Z"/>
        </g>
        <g id="Group_56" data-name="Group 56">
          <path id="Path_36" data-name="Path 36" class="cls-1" d="M357.9,18.7h7.8v1.8H347.9V18.7h7.9c-.2-.5-.4-.9-.6-1.3l2.1-.4A11.5,11.5,0,0,1,357.9,18.7Zm2.9,16.9-.4-1.7,1.5.1c.7,0,1.1-.3,1.1-.8V28.1H350.6v7.5h-1.8V26.4h16v7.1c0,1.3-.8,2-2.4,2l-1.6.1Zm1.8-14.2v4.2H351.1V21.4h11.5Zm-1.7,7.7v4.2h-8.1V29.1h8.1Zm-.1-6.3h-7.9v1.3h7.9Zm-1.6,7.7h-4.8v1.4h4.8Z"/>
          <path id="Path_37" data-name="Path 37" class="cls-1" d="M373.2,17.2v2h2.9v1.7h-2.9v2h3.6v1.7h-1.5a9.384,9.384,0,0,1-.6,2.4h1.5v1.7h-3v2h3.6v1.7h-3.6v3.3h-1.8V32.4h-3.7V30.7h3.7v-2h-3V26.9h1.5c-.2-.9-.3-1.7-.5-2.4h-1.6V22.8h3.6v-2h-2.9V19.1h2.9v-2h1.8Zm.4,7.3H371c.2.8.3,1.6.5,2.4h1.4A13.7,13.7,0,0,0,373.6,24.5Zm5.5,11.1h-1.8V17.9h7.9a16.1,16.1,0,0,1-.4,4.7c-.2.8-1,1.1-2.2,1.1h-1.3l-.5-1.6h1a2.22,2.22,0,0,0,.9-.1,1,1,0,0,0,.5-.4,7.833,7.833,0,0,0,.2-2.1h-4.3v5.4h6.3v1.6a16.331,16.331,0,0,1-1.7,5.4,17.875,17.875,0,0,0,2.5,2.2L385,35.6a12.113,12.113,0,0,1-2.3-2.2,11.332,11.332,0,0,1-2.7,2.2l-.8-1.5-.1,1.5Zm0-1.6a9.141,9.141,0,0,0,2.4-2,12.792,12.792,0,0,1-2-5.2h-.4Zm3.4-3.6a17.855,17.855,0,0,0,1.2-3.7h-2.5A6.889,6.889,0,0,0,382.5,30.4Z"/>
          <path id="Path_38" data-name="Path 38" class="cls-1" d="M387.7,19.5V17.9h7.9v1.7h-2.2v2h1.7V34.3h-5.6v1.2h-1.3v-14h1.7v-2Zm6,13.3V28H393c-.7,0-1-.4-1-1.1v-4h-.9v1.3a7.234,7.234,0,0,1-1.2,4.6l-.5-.4v4.4Zm-3.5-8.6V22.9h-.8v4.8A5.866,5.866,0,0,0,390.2,24.2Zm2.9,5.3v1.6H390V29.5Zm-1-10h-.9v2h.9Zm.8,7.1c0,.2.1.3.4.3h.5v-4H393l-.1,3.7Zm4.1.9-1,.5c-.3-1.8-.7-3.5-1-4.9l1-.4A21.37,21.37,0,0,1,397,27.5Zm1.8-10.1v8.9c0,4.3-.8,7.4-2.2,9.4l-1.3-1.2c1.3-1.7,1.9-4.4,1.9-8.2V17.4Zm1.7,10.2-.8.4c-.3-1.8-.5-3.5-.8-4.9l.8-.3C399.9,24.2,400.2,25.8,400.5,27.6ZM402,17.5V35.3h-1.5V17.5Zm1.7,10-.8.4c-.2-1.8-.5-3.5-.7-4.9l.8-.4C403.2,24.1,403.5,25.7,403.7,27.5Zm1.8-10.2V35.6h-1.6V17.3Z"/>
        </g>
        <g id="Group_57" data-name="Group 57">
          <path id="Path_39" data-name="Path 39" class="cls-1" d="M667.2,307.3H675v1.8H657.2v-1.8h7.9c-.2-.5-.4-.9-.6-1.3l2.1-.4A8.512,8.512,0,0,1,667.2,307.3Zm2.9,16.8-.4-1.7,1.5.1c.7,0,1.1-.3,1.1-.8v-5H659.9v7.5h-1.8V315h16v7.1c0,1.3-.8,2-2.4,2Zm1.8-14.1v4.2H660.4V310Zm-1.7,7.6v4.2h-8.1v-4.2Zm-.1-6.2h-7.9v1.3h7.9Zm-1.6,7.6h-4.8v1.4h4.8Z"/>
          <path id="Path_40" data-name="Path 40" class="cls-1" d="M677.2,307.2a23.846,23.846,0,0,0,5.7-1.3l.6,1.6a18.665,18.665,0,0,1-2.2.7v2.9h1.8v1.6h-1.8v.9a32.741,32.741,0,0,1,2.4,2.7l-1,1.5c-.5-1-1-1.8-1.3-2.5v8.8h-1.7v-7.9a16.418,16.418,0,0,1-1.9,4l-.8-2a15.5,15.5,0,0,0,2.6-5.5h-2.3v-1.6h2.3v-2.5c-.7.1-1.3.2-2,.3Zm8.3,13.1a18.815,18.815,0,0,1-1.5,3.8l-1.4-.9A12.974,12.974,0,0,0,684,320Zm0-10.7a6.225,6.225,0,0,0-.8-1.2l1.2-.5h-1.6l-.5-1.5a55.957,55.957,0,0,0,9.9-.7l.8,1.4-2.1.3,1.4.4c-.2.6-.5,1.2-.7,1.8h.9V311h-4v.9h4.6v1.4H683.7v-1.4h4.5V311h-4v-1.4Zm4.3,9.8c.5.6.9,1.2,1.2,1.6l-1.2.9c-.4-.6-.8-1.3-1.4-2.1l.6-.4h-4.5V318h7.8v-.7H684v-1.2h8.3v-.7h-7.6v-1.3h9.4V316h1.3v1.5H694v2l-4.2-.1Zm-1.9,4.5c-1.2,0-1.7-.5-1.7-1.5v-2.5h1.7V322c0,.3.1.4.5.4H691a.52.52,0,0,0,.4-.2,2.749,2.749,0,0,0,.2-1.3l1.6.5a3.433,3.433,0,0,1-.6,2.1,2.133,2.133,0,0,1-1.2.3h-3.5Zm-.8-14.3h1.6c-.2-.5-.5-.9-.7-1.3l1.3-.5c-1,0-2,.1-3.1.1A5.557,5.557,0,0,1,687.1,309.6Zm3.3,0h1.2a10.23,10.23,0,0,0,.8-2.1c-.9.1-1.9.2-2.9.3Zm5.1,13.2-1.2.9a27.411,27.411,0,0,0-1.8-3.2l1.2-.7A26.339,26.339,0,0,1,695.5,322.8Z"/>
          <path id="Path_41" data-name="Path 41" class="cls-1" d="M712.1,311.5v1.8h-4.9v3H713v1.8h-5.8v3.7a35.271,35.271,0,0,0,5,.3c1,0,2-.1,3.1-.1l-.4,1.9H713c-4.2,0-7.2-.4-9-1.1a7.878,7.878,0,0,1-3.1-2.6,15.59,15.59,0,0,1-2.8,4.1l-1.2-1.5a15.051,15.051,0,0,0,3.8-7.9l1.8.3a15.911,15.911,0,0,1-.9,3.3,5.938,5.938,0,0,0,3.5,3h.2v-8.1h-5.1v-1.8l11.9-.1Zm2.4.7h-1.9v-2.8h-13v2.9h-1.9v-4.6h7.5c-.3-.6-.6-1.2-.9-1.7l2-.3a10.23,10.23,0,0,1,.8,2.1h7.3v4.4Z"/>
          <path id="Path_42" data-name="Path 42" class="cls-1" d="M718.9,309.8a34.34,34.34,0,0,1-.6,5.7l-1.5-.4a30.625,30.625,0,0,0,.7-5.4Zm2.5-4v18.3h-1.9V305.8Zm2.4,6.1a18.564,18.564,0,0,0,.9-4.8l1.7.2a14.914,14.914,0,0,1-.2,2.1h2.4v-3.6h1.9v3.6h4.2v1.8h-4.2v4.4h4v1.9h-4v4.3h4.7v1.8H723v-1.8h5.6v-4.3h-4.5v-1.8h4.5v-4.4h-2.7a22.56,22.56,0,0,1-1.5,3.9L723,314a3.553,3.553,0,0,0,.4-.9l-.9.2a20.361,20.361,0,0,0-1.1-3.5l1.4-.4A9.971,9.971,0,0,1,723.8,311.9Z"/>
        </g>
        <g id="Group_58" data-name="Group 58">
          <path id="Path_43" data-name="Path 43" class="cls-1" d="M27.3,307.3h7.8v1.8H17.3v-1.8h7.9c-.2-.5-.4-.9-.6-1.3l2.1-.4A8.51,8.51,0,0,1,27.3,307.3Zm2.9,16.8-.4-1.7,1.5.1c.7,0,1.1-.3,1.1-.8v-5H20v7.5H18.2V315h16v7.1c0,1.3-.8,2-2.4,2ZM32,310v4.2H20.5V310Zm-1.7,7.6v4.2H22.2v-4.2Zm-.1-6.2H22.3v1.3h7.9ZM28.6,319H23.8v1.4h4.8V319Z"/>
          <path id="Path_44" data-name="Path 44" class="cls-1" d="M41.8,313.7,40.5,315a21.145,21.145,0,0,0-3.4-2.9l1.3-1.3A24.616,24.616,0,0,1,41.8,313.7Zm0,3.1A56.565,56.565,0,0,1,39,324l-1.8-.8a62.2,62.2,0,0,0,2.9-7.1Zm.5-8L41,310.1a21.145,21.145,0,0,0-3.4-2.9l1.4-1.3C40.2,306.9,41.4,307.9,42.3,308.8Zm7.8-3.1v2.4H55v.9a15.725,15.725,0,0,1-1.1,3.5l-1.8-.5a7.261,7.261,0,0,0,.9-2.2H50.1v3.6h3.6V315a12.415,12.415,0,0,1-2.5,5,21.178,21.178,0,0,0,4.5,2.5l-1.1,1.7a17.89,17.89,0,0,1-4.7-2.9,17.485,17.485,0,0,1-5,3l-1.2-1.5a15.243,15.243,0,0,0,4.9-2.7,10.619,10.619,0,0,1-2.8-4.9H45a17.421,17.421,0,0,1-2.8,9l-1.5-1.3a15.682,15.682,0,0,0,2.5-8.7v-6.1h5v-2.4ZM45,309.8v3.6h3.3v-3.6Zm6.8,5.4H47.5a8.541,8.541,0,0,0,2.3,3.7A12.015,12.015,0,0,0,51.8,315.2Z"/>
          <path id="Path_45" data-name="Path 45" class="cls-1" d="M70.8,305.8v3.6h4c0,6.7-.1,10.9-.3,12.4a2.383,2.383,0,0,1-2.6,2.2,15.764,15.764,0,0,1-1.9-.1l-.5-1.7a16.232,16.232,0,0,0,2.1.1c.7,0,1-.4,1.2-1.3.1-1,.2-4.3.2-9.9H70.8v.7c-.1,5.6-1.3,9.6-3.6,12.2l-1.1-1c-2.6.3-5.6.6-8.9.8l-.2-1.7c1.4-.1,2.8-.2,4.1-.3v-1.4H57.7v-1.6h3.4v-1.1H57.6v-6.4h3.5v-1H57.2v-1.6h3.9v-1c-1,.1-2.2.1-3.3.1l-.5-1.5a40.207,40.207,0,0,0,8.5-.8l.8,1.4a19.076,19.076,0,0,1-3.7.6v1.2h3.8v1.6H62.9v1h3.5v6.4H62.9v1.1h3.5v1.6H62.9v1.2a31.82,31.82,0,0,0,3.4-.4v.9q2.7-3.45,2.7-10.5v-.7H67.2v-1.7H69v-3.6h1.8Zm-9.6,8.3v-1.2H59.3v1.2Zm0,1.3H59.3v1.2h1.9Zm1.5-1.3h1.9v-1.2H62.7v1.2Zm2,1.3H62.8v1.2h1.9Z"/>
          <path id="Path_46" data-name="Path 46" class="cls-1" d="M79,309.8a34.339,34.339,0,0,1-.6,5.7l-1.5-.4a30.623,30.623,0,0,0,.7-5.4Zm2.5-4v18.3H79.6V305.8Zm2.4,6.1a18.562,18.562,0,0,0,.9-4.8l1.7.2a14.919,14.919,0,0,1-.2,2.1h2.4v-3.6h1.9v3.6h4.2v1.8H90.6v4.4h4v1.9h-4v4.3h4.8v1.8H83.2v-1.8h5.6v-4.3H84.3v-1.8h4.5v-4.4H86.1a22.556,22.556,0,0,1-1.5,3.9L83.2,314a3.552,3.552,0,0,0,.4-.9l-.9.2a20.362,20.362,0,0,0-1.1-3.5l1.4-.4A17.2,17.2,0,0,1,83.9,311.9Z"/>
        </g>
        <g id="Group_59" data-name="Group 59">
          <line id="Line_78" data-name="Line 78" class="cls-4" x2="520.7" transform="translate(115.5 314.9)"/>
          <line id="Line_79" data-name="Line 79" class="cls-4" y2="520.6" transform="translate(375.8 54.6)"/>
        </g>
        <circle id="Ellipse_39" data-name="Ellipse 39" class="cls-5" cx="38.3" cy="38.3" r="38.3" transform="translate(490.4 134.9)"/>
        <path id="Path_47" data-name="Path 47" class="cls-1" d="M147.7,135.2a17.108,17.108,0,0,1-2.5,3.7l-1.5-1.1a12.485,12.485,0,0,0,2.5-3.4Zm-.7-14.6v2.1h3.5v-2h1.8v2h1v1.8h-1v8h1.1v1.8h-9.6v-1.8h1.3v-8H144v-1.8h1.1v-2.1Zm0,3.9v1.6h3.5v-1.6Zm3.4,4.7v-1.6h-3.5v1.6Zm0,3.2v-1.6h-3.5v1.6Zm2.1,4.8a12.082,12.082,0,0,0,1.7-6.5v-9.6h7.1v15.7c0,1.3-.7,1.9-2,1.9h-2.1l-.5-1.9c.7,0,1.4.1,2,.1a.713.713,0,0,0,.7-.8v-3.6H156a13.754,13.754,0,0,1-2.4,6.6l-1.4-1.3-1.1.8a32.359,32.359,0,0,0-2-3.3l1.5-.9A27.947,27.947,0,0,1,152.5,137.2Zm6.9-14.2h-3.3v3.1h3.3Zm-3.3,7.8h3.3v-3.1h-3.3Z"/>
        <path id="Path_48" data-name="Path 48" class="cls-1" d="M179.5,128.4v7.9h-3.8a56.746,56.746,0,0,1,6.2,1.2l-.6,1.5a67.825,67.825,0,0,0-6.8-1.5l.6-1.3h-4.8l.8,1.1a24.486,24.486,0,0,1-6.5,1.6l-.8-1.4a27.5,27.5,0,0,0,6-1.3h-3.6v-7.8Zm-15-2.4-.6-1.8a14.974,14.974,0,0,0,5.3-3.7l1.6.8a9.837,9.837,0,0,1-2,2.1v4.4H167v-3.1C166.1,125.1,165.3,125.6,164.5,126Zm13.1,4.8v-.9h-9.5v.9Zm0,2v-.9h-9.5v.9Zm0,1.1h-9.5v.9h9.5Zm-3-6.3c-1.3,0-2-.6-2-1.9v-5.1h1.9v1.9l6.3-.4v1.7l-6.3.4v1.2c0,.4.2.7.6.7h3.6a1.549,1.549,0,0,0,.8-.2,2.437,2.437,0,0,0,.4-1.3l1.7.6c-.2,1.2-.4,1.9-.8,2.2a3.689,3.689,0,0,1-1.7.3l-4.5-.1Z"/>
        <circle id="Ellipse_40" data-name="Ellipse 40" class="cls-3" cx="39.7" cy="39.7" r="39.7" transform="translate(213 185.7)"/>
        <circle id="Ellipse_41" data-name="Ellipse 41" class="cls-3" cx="39.7" cy="39.7" r="39.7" transform="translate(416.6 366.5)"/>
        <circle id="Ellipse_42" data-name="Ellipse 42" class="cls-3" cx="39.7" cy="39.7" r="39.7" transform="translate(498.4 402.8)"/>
        <circle id="Ellipse_43" data-name="Ellipse 43" class="cls-3" cx="39.7" cy="39.7" r="39.7" transform="translate(558.8 473)"/>
        <path id="Path_49" data-name="Path 49" class="cls-1" d="M241.7,232.4c0,1.3-.7,1.9-2,1.9h-1.5l-.5-1.7c.5,0,1,.1,1.5.1s.7-.3.7-1v-4.2a23.256,23.256,0,0,1-2.8.5,16.176,16.176,0,0,1-1.6,6.3l-1.4-1.3a16.231,16.231,0,0,0,1.4-6.7v-9.9h6.2v16Zm-1.8-10.5v-3.6h-2.7v3A13.094,13.094,0,0,0,239.9,221.9Zm0,4.2v-2.4a26.142,26.142,0,0,0-2.7-.6v3.5C238.2,226.4,239.1,226.2,239.9,226.1Zm11.4-1.7v1.8a11.234,11.234,0,0,1-2.5,4.7,17.917,17.917,0,0,0,3.9,2.1l-1,1.6a17.868,17.868,0,0,1-4.1-2.5,15.572,15.572,0,0,1-4.6,2.5l-1-1.6a16.668,16.668,0,0,0,4.2-2.2,11.494,11.494,0,0,1-2.6-4.5h-.9v-1.8h8.6v-.1Zm-.9-7.7v4.2c0,.4.2.7.6.7h1.4v1.8h-1.9a1.8,1.8,0,0,1-2-2v-2.8h-2.9v.9a5.554,5.554,0,0,1-2.2,4.6l-1.3-1.4a3.4,3.4,0,0,0,1.7-3v-2.9h6.6v-.1Zm-3,12.9a11.548,11.548,0,0,0,2.1-3.3h-4.2A9.2,9.2,0,0,0,247.4,229.6Z"/>
        <path id="Path_50" data-name="Path 50" class="cls-1" d="M272.3,216.7v1.6h-5.9v1.3h4.5v4.7H255.8v-4.7h4.5v-1.3h-5.9v-1.6Zm-.3,11.5v1.6h-7.5v4.7h-1.8v-4.7h-7.9v-1.6Zm-11,3.2a19.23,19.23,0,0,1-4.9,2.9l-1.1-1.5a18.128,18.128,0,0,0,4.8-2.6Zm9.1-6V227H256.7v-1.6Zm-9.8-4.2h-2.6v1.6h2.6Zm4.4-2.8h-2.6v1.3h2.6Zm0,2.8h-2.6v1.6h2.6Zm7.5,11.7-1.3,1.3a35.637,35.637,0,0,0-4.5-2.9l1.3-1.2C269.5,231.1,271,232.1,272.2,232.9Zm-3.1-11.7h-2.6v1.6h2.6Z"/>
        <g id="Group_60" data-name="Group 60">
          <path id="Path_51" data-name="Path 51" class="cls-3" d="M58.2-10.8a1.5,1.5,0,0,0,0-3,1.5,1.5,0,0,0,0,3Z"/>
        </g>
        <path id="Path_52" data-name="Path 52" class="cls-1" d="M445.2,398.7a22.2,22.2,0,0,1-5.6,9.2l-1.5-1.3a18.8,18.8,0,0,0,5.3-8.6Zm9.4,16.3-1.8.8c-.3-.7-.5-1.3-.8-1.9-3.5.5-7.4.9-11.6,1.2l-.3-1.8c1.4-.5,3.4-3.5,5.9-9.2l1.9.6a45.486,45.486,0,0,1-4.9,8.4c2.8-.2,5.6-.5,8.2-.9q-1.05-1.95-2.1-3.6l1.7-.6A43.5,43.5,0,0,1,454.6,415Zm-3.1-17.1a15.07,15.07,0,0,0,4.8,8.6l-1.5,1.3a16.751,16.751,0,0,1-4.8-8.1h-3.2v-1.8Z"/>
        <path id="Path_53" data-name="Path 53" class="cls-1" d="M463.5,398.1a22.378,22.378,0,0,1-1.4,3.6v14.1h-1.9V404.9c-.6.8-1.2,1.6-1.8,2.3l-.6-1.9a23.629,23.629,0,0,0,4-8.1Zm11.3,6.9v7.9h-2.9a34.713,34.713,0,0,1,4.6,1.3l-.6,1.5a30.178,30.178,0,0,0-5.1-1.6l.6-1.3H468l.9,1a23.564,23.564,0,0,1-5.2,2l-.7-1.5a20.988,20.988,0,0,0,4.6-1.4h-3.1V405Zm-4.2-7.7v1h5.1v1.5h-5.1v.8H475v1.5h-4.4v.8h5.6v1.5H463.5v-1.5h5.3v-.8h-4.3v-1.5h4.2v-.8h-4.9v-1.5h4.9v-1Zm2.4,10v-.8h-6.8v.8Zm0,2.1v-.8h-6.8v.8Zm0,1.3h-6.8v.8H473Z"/>
        <path id="Path_54" data-name="Path 54" class="cls-1" d="M533.2,439.1v1.8h-4.9v3h5.8v1.8h-5.8v3.7a35.271,35.271,0,0,0,5,.3c1,0,2-.1,3.1-.1l-.4,1.9h-1.9c-4.2,0-7.2-.4-9-1.1a7.878,7.878,0,0,1-3.1-2.6,15.59,15.59,0,0,1-2.8,4.1l-1.2-1.5a15.051,15.051,0,0,0,3.8-7.9l1.8.3a15.911,15.911,0,0,1-.9,3.3,5.938,5.938,0,0,0,3.5,3h.2V441h-5.1v-1.8l11.9-.1Zm2.4.7h-1.9V437h-13v2.9h-1.9v-4.6h7.5c-.3-.6-.6-1.2-.9-1.7l2-.3a10.23,10.23,0,0,1,.8,2.1h7.3v4.4Z"/>
        <path id="Path_55" data-name="Path 55" class="cls-1" d="M544.1,435.2c.2-.7.4-1.3.6-1.9l1.9.2c-.2.6-.3,1.2-.5,1.7h10v1.9H545.4a19.825,19.825,0,0,1-2.7,4.7v10h-1.9v-7.9c-.5.6-1.1,1.1-1.6,1.6L538,444a20.016,20.016,0,0,0,5.3-7h-4.5v-1.9l5.3.1Zm5.5,9.4V443a21.124,21.124,0,0,0,3.1-2.1h-7.2v-1.7h9.6v1.7a26.8,26.8,0,0,1-3.6,2.9v.9h4.8v1.8h-4.8v3.3a1.827,1.827,0,0,1-2,2.1H547l-.5-1.8c.7,0,1.4.1,2.2.1a.8.8,0,0,0,.9-.9v-2.7H544v-1.8h5.6Z"/>
        <path id="Path_56" data-name="Path 56" class="cls-1" d="M583.4,511.4l-1.3,1.3a23.111,23.111,0,0,0-3.5-3l1.3-1.3A28.3,28.3,0,0,1,583.4,511.4Zm.3,3.1a60.044,60.044,0,0,1-2.8,7.2l-1.9-.8a60.738,60.738,0,0,0,2.9-7Zm.1-8.2-1.3,1.3a22.3,22.3,0,0,0-3.4-2.7l1.3-1.2A27.1,27.1,0,0,1,583.8,506.3Zm5.6,2.9v-2.7c-1.4.1-3,.2-4.6.2l-.6-1.7a37.508,37.508,0,0,0,10.9-1.4l.9,1.6a21.2,21.2,0,0,1-4.8,1.1v2.9h5.6V511h-5.5v2.6h4.4v8.3h-1.9v-1H587v1h-1.9v-8.4h4.3V511h-5.5v-1.8Zm4.4,10v-3.8H587v3.8Z"/>
        <path id="Path_57" data-name="Path 57" class="cls-1" d="M604.6,505.3c.2-.7.4-1.3.6-1.9l1.9.2c-.2.6-.3,1.2-.5,1.7h10v1.9H605.9a19.825,19.825,0,0,1-2.7,4.7V522h-1.9v-7.9c-.5.6-1.1,1.1-1.6,1.6l-1.2-1.5a20.016,20.016,0,0,0,5.3-7h-4.5v-1.9Zm5.5,9.4v-1.6a21.121,21.121,0,0,0,3.1-2.1H606v-1.7h9.6V511a26.806,26.806,0,0,1-3.6,2.9v.9h4.8v1.8H612v3.3a1.827,1.827,0,0,1-2,2.1h-2.5l-.5-1.8c.7,0,1.4.1,2.2.1a.8.8,0,0,0,.9-.9v-2.7h-5.6v-1.8h5.6v-.2Z"/>
      </g>
      <text id="STTW" class="cls-6" transform="translate(-548 3486)"><tspan x="0" y="0">STTW</tspan></text>
      <g id="Group_54" data-name="Group 54" transform="translate(-537.971 3389)">
        <g id="Group_2" data-name="Group 2" class="cls-7">
          <g id="Group_1" data-name="Group 1" class="cls-8" transform="translate(-14.633 -14.45)">
            <rect id="Rectangle_2" data-name="Rectangle 2" class="cls-1" width="53.046" height="71.337" transform="translate(5.487 5.487)"/>
          </g>
        </g>
      </g>
    </g>
  </g>
</svg>
