<?xml version="1.0" encoding="utf-8"?>
<!-- Generator: Adobe Illustrator 22.0.1, SVG Export Plug-In . SVG Version: 6.00 Build 0)  -->
<svg version="1.1" id="Layer_1" xmlns="http://www.w3.org/2000/svg" xmlns:xlink="http://www.w3.org/1999/xlink" x="0px" y="0px"
	 viewBox="0 0 994.6 675.9" style="enable-background:new 0 0 994.6 675.9;" xml:space="preserve">
<style type="text/css">
	.st0{fill:#A58641;}
	.st1{fill:#FFFFFF;}
	.st2{fill:none;stroke:#FFFFFF;stroke-miterlimit:10;}
	.st3{fill:#F7B400;}
	.st4{fill:#605231;}
</style>
<g>
	<circle class="st0" cx="603.9" cy="443" r="55"/>
	
		<image style="overflow:visible;opacity:0.25;enable-background:new    ;" width="142" height="142" xlink:href="696921D019DC98DB.png"  transform="matrix(0.993 0 0 0.993 616.16 415.22)">
	</image>
	<circle class="st0" cx="689.9" cy="488.7" r="55"/>
	
		<image style="overflow:visible;opacity:0.25;enable-background:new    ;" width="142" height="142" xlink:href="696921D019DC98D9.png"  transform="matrix(0.993 0 0 0.993 687.16 478.22)">
	</image>
	<circle class="st0" cx="760.7" cy="552.2" r="55"/>
	<g>
		<g>
			<path class="st1" d="M471.6,656c-0.5,1.5-1.1,2.9-1.9,4.2v13.5h-1.8V663c-0.6,0.7-1.2,1.5-1.9,2.2l-0.6-2c2-2.3,3.5-4.9,4.5-8
				L471.6,656z M473.8,668.5c1.1-0.3,2.2-0.7,3.3-1.1l0.3,1.6c-1.6,0.5-3.5,1.1-5.7,1.7l-0.5-1.6c0.5-0.2,0.7-0.6,0.7-1.3V657
				c4.3-0.5,7.6-1,10.1-1.7l1,1.5c-0.9,0.2-2,0.5-3.3,0.7c0,1.6,0,3.1,0.1,4.4h3.6v1.8h-3.5c0.1,2.5,0.3,4.3,0.6,5.2
				c0.4,1.4,0.9,2.2,1.4,2.3c0.3-0.1,0.5-1.1,0.8-3.2l1.5,1c-0.4,2.7-1.1,4.1-2.2,4.1c-0.6,0-1.2-0.3-1.8-0.9
				c-0.7-0.8-1.2-2-1.5-3.4c-0.3-1-0.4-2.8-0.5-5.2h-4.4V668.5z M478.5,671.6v1.8h-6.6v-1.8H478.5z M478,658
				c-1.3,0.2-2.7,0.4-4.2,0.6v3.5h4.3C478.1,660.8,478,659.4,478,658z"/>
			<path class="st1" d="M491.2,655.3v2h2.9v1.7h-2.9v2h3.6v1.7h-1.5c-0.1,0.8-0.3,1.7-0.6,2.4h1.5v1.7h-3v2h3.6v1.7h-3.6v3.3h-1.8
				v-3.3h-3.7v-1.7h3.7v-2h-3V665h1.5c-0.2-0.9-0.3-1.7-0.5-2.4h-1.6v-1.7h3.6v-2h-2.9v-1.7h2.9v-2h1.8V655.3z M491.6,662.6H489
				c0.2,0.8,0.3,1.6,0.5,2.4h1.4C491.2,664.3,491.4,663.5,491.6,662.6z M497.1,673.7h-1.8V656h7.9c0,2.4-0.1,3.9-0.4,4.7
				c-0.2,0.8-1,1.1-2.2,1.1h-1.3l-0.5-1.6c0.3,0,0.6,0,1,0s0.7,0,0.9-0.1c0.2-0.1,0.4-0.2,0.5-0.4c0.1-0.3,0.2-1,0.2-2.1h-4.3v5.4
				h6.3v1.6c-0.3,2.1-0.9,3.9-1.7,5.4c0.7,0.8,1.6,1.5,2.5,2.2l-1.2,1.5c-0.9-0.7-1.7-1.4-2.3-2.2c-0.8,0.9-1.7,1.6-2.7,2.2
				l-0.8-1.5v1.5H497.1z M497.1,672.1c0.9-0.5,1.7-1.2,2.4-2c-1.1-1.6-1.7-3.4-2-5.2h-0.4V672.1z M500.5,668.5
				c0.5-1.1,0.9-2.3,1.2-3.7h-2.5C499.3,666.2,499.8,667.4,500.5,668.5z"/>
			<path class="st1" d="M505.7,657.6V656h7.9v1.7h-2.2v2h1.7v12.7h-5.6v1.2h-1.3v-13.9h1.7v-2h-2.2V657.6z M511.7,670.9v-4.8H511
				c-0.7,0-1-0.4-1-1.1v-4h-0.9v1.3c0,2.1-0.4,3.6-1.2,4.6l-0.5-0.4v4.4L511.7,670.9L511.7,670.9z M508.3,662.3V661h-0.8v4.8
				C508,665,508.2,663.8,508.3,662.3z M511.1,667.6v1.6H508v-1.6H511.1z M510.1,657.6h-0.9v2h0.9V657.6z M510.9,664.7
				c0,0.2,0.1,0.3,0.4,0.3h0.5v-4H511v3.7H510.9z M515.1,665.6l-1,0.5c-0.3-1.8-0.7-3.5-1-4.9l1-0.4
				C514.5,662.2,514.8,663.8,515.1,665.6z M516.8,655.5v8.9c0,4.3-0.8,7.4-2.2,9.4l-1.3-1.2c1.3-1.7,1.9-4.4,1.9-8.2v-8.9H516.8z
				 M518.5,665.7l-0.8,0.4c-0.3-1.8-0.5-3.5-0.8-4.9l0.8-0.3C517.9,662.3,518.2,663.9,518.5,665.7z M520.1,655.6v17.8h-1.5v-17.8
				H520.1z M521.7,665.6l-0.8,0.4c-0.2-1.8-0.5-3.5-0.7-4.9l0.8-0.4C521.2,662.2,521.5,663.8,521.7,665.6z M523.5,655.4v18.3h-1.6
				v-18.3H523.5z"/>
		</g>
	</g>
	<g>
		<g>
			<path class="st1" d="M475.9,14.8h7.8v1.8h-17.8v-1.8h7.9c-0.2-0.5-0.4-0.9-0.6-1.3l2.1-0.4C475.6,13.7,475.7,14.2,475.9,14.8z
				 M478.8,31.7l-0.4-1.7l1.5,0.1c0.7,0,1.1-0.3,1.1-0.8v-5.1h-12.4v7.5h-1.8v-9.2h16v7.1c0,1.3-0.8,2-2.4,2h-1.6V31.7z M480.6,17.5
				v4.2h-11.5v-4.2H480.6z M478.9,25.2v4.2h-8.1v-4.2H478.9z M478.8,18.9h-7.9v1.3h7.9V18.9z M477.2,26.6h-4.8V28h4.8V26.6z"/>
			<path class="st1" d="M491.2,13.3v2h2.9V17h-2.9v2h3.6v1.7h-1.5c-0.1,0.8-0.3,1.7-0.6,2.4h1.5v1.7h-3v2h3.6v1.7h-3.6v3.3h-1.8
				v-3.3h-3.7v-1.7h3.7v-2h-3V23h1.5c-0.2-0.9-0.3-1.7-0.5-2.4h-1.6v-1.7h3.6v-2h-2.9v-1.7h2.9v-2h1.8V13.3z M491.6,20.6H489
				c0.2,0.8,0.3,1.6,0.5,2.4h1.4C491.2,22.3,491.4,21.5,491.6,20.6z M497.1,31.7h-1.8V14h7.9c0,2.4-0.1,3.9-0.4,4.7
				c-0.2,0.8-1,1.1-2.2,1.1h-1.3l-0.5-1.6c0.3,0,0.6,0,1,0s0.7,0,0.9-0.1c0.2-0.1,0.4-0.2,0.5-0.4c0.1-0.3,0.2-1,0.2-2.1h-4.3V21
				h6.3v1.6c-0.3,2.1-0.9,3.9-1.7,5.4c0.7,0.8,1.6,1.5,2.5,2.2l-1.2,1.5c-0.9-0.7-1.7-1.4-2.3-2.2c-0.8,0.9-1.7,1.6-2.7,2.2
				l-0.8-1.5v1.5H497.1z M497.1,30.1c0.9-0.5,1.7-1.2,2.4-2c-1.1-1.6-1.7-3.4-2-5.2h-0.4V30.1z M500.5,26.5c0.5-1.1,0.9-2.3,1.2-3.7
				h-2.5C499.3,24.2,499.8,25.4,500.5,26.5z"/>
			<path class="st1" d="M505.7,15.6V14h7.9v1.7h-2.2v2h1.7v12.7h-5.6v1.2h-1.3v-14h1.7v-2H505.7z M511.7,28.9v-4.8H511
				c-0.7,0-1-0.4-1-1.1v-4h-0.9v1.3c0,2.1-0.4,3.6-1.2,4.6l-0.5-0.4v4.4H511.7z M508.3,20.3V19h-0.8v4.8
				C508,23,508.2,21.8,508.3,20.3z M511.1,25.6v1.6H508v-1.6H511.1z M510.1,15.6h-0.9v2h0.9V15.6z M510.9,22.7
				c0,0.2,0.1,0.3,0.4,0.3h0.5v-4H511v3.7H510.9z M515.1,23.6l-1,0.5c-0.3-1.8-0.7-3.5-1-4.9l1-0.4
				C514.5,20.2,514.8,21.8,515.1,23.6z M516.8,13.5v8.9c0,4.3-0.8,7.4-2.2,9.4l-1.3-1.2c1.3-1.7,1.9-4.4,1.9-8.2v-8.9
				C515.2,13.5,516.8,13.5,516.8,13.5z M518.5,23.7l-0.8,0.4c-0.3-1.8-0.5-3.5-0.8-4.9l0.8-0.3C517.9,20.3,518.2,21.9,518.5,23.7z
				 M520.1,13.6v17.8h-1.5V13.6H520.1z M521.7,23.6l-0.8,0.4c-0.2-1.8-0.5-3.5-0.7-4.9l0.8-0.4C521.2,20.2,521.5,21.8,521.7,23.6z
				 M523.5,13.4v18.3h-1.6V13.4H523.5z"/>
		</g>
	</g>
	<g>
		<g>
			<path class="st1" d="M919.9,328.6h7.8v1.8h-17.8v-1.8h7.9c-0.2-0.5-0.4-0.9-0.6-1.3l2.1-0.4C919.6,327.4,919.7,328,919.9,328.6z
				 M922.8,345.4l-0.4-1.7l1.5,0.1c0.7,0,1.1-0.3,1.1-0.8v-5h-12.4v7.5h-1.8v-9.2h16v7.1c0,1.3-0.8,2-2.4,2H922.8z M924.6,331.3v4.2
				h-11.5v-4.2H924.6z M922.9,338.9v4.2h-8.1v-4.2H922.9z M922.8,332.7h-7.9v1.3h7.9V332.7z M921.2,340.3h-4.8v1.4h4.8V340.3z"/>
			<path class="st1" d="M929.9,328.5c2.1-0.2,4-0.7,5.7-1.3l0.6,1.6c-0.7,0.3-1.5,0.5-2.2,0.7v2.9h1.8v1.6H934v0.9
				c0.8,0.8,1.6,1.7,2.4,2.7l-1,1.5c-0.5-1-1-1.8-1.3-2.5v8.8h-1.7v-7.9c-0.5,1.5-1.1,2.8-1.9,4l-0.8-2c1.2-1.6,2.1-3.5,2.6-5.5H930
				v-1.6h2.3v-2.5c-0.7,0.1-1.3,0.2-2,0.3L929.9,328.5z M938.2,341.6c-0.4,1.4-0.9,2.7-1.5,3.8l-1.4-0.9c0.6-1,1.1-2.1,1.4-3.2
				L938.2,341.6z M938.2,330.9c-0.3-0.5-0.5-0.9-0.8-1.2l1.2-0.5c-0.5,0-1.1,0-1.6,0l-0.5-1.5c3.9,0,7.2-0.2,9.9-0.7l0.8,1.4
				c-0.7,0.1-1.4,0.2-2.1,0.3l1.4,0.4c-0.2,0.6-0.5,1.2-0.7,1.8h0.9v1.4h-4v0.9h4.6v1.4h-10.9v-1.4h4.5v-0.9h-4v-1.4L938.2,330.9
				L938.2,330.9z M942.4,340.7c0.5,0.6,0.9,1.2,1.2,1.6l-1.2,0.9c-0.4-0.6-0.8-1.3-1.4-2.1l0.6-0.4h-4.5v-1.4h7.8v-0.7h-8.3v-1.2
				h8.3v-0.7h-7.6v-1.3h9.4v1.9h1.3v1.5h-1.3v2L942.4,340.7L942.4,340.7z M940.6,345.2c-1.2,0-1.7-0.5-1.7-1.5v-2.5h1.7v2.1
				c0,0.3,0.1,0.4,0.5,0.4h2.6c0.2,0,0.3-0.1,0.4-0.2c0.1-0.1,0.2-0.6,0.2-1.3l1.6,0.5c-0.1,1.2-0.3,1.8-0.6,2.1
				c-0.3,0.2-0.7,0.3-1.2,0.3h-3.5V345.2z M939.8,330.9h1.6c-0.2-0.5-0.5-0.9-0.7-1.3l1.3-0.5c-1,0-2,0.1-3.1,0.1
				C939.3,329.7,939.6,330.3,939.8,330.9z M943.1,330.9h1.2c0.3-0.6,0.6-1.3,0.8-2.1c-0.9,0.1-1.9,0.2-2.9,0.3
				C942.5,329.7,942.8,330.3,943.1,330.9z M948.2,344.1L947,345c-0.4-1-1.1-2-1.8-3.2l1.2-0.7C947.1,342.2,947.8,343.2,948.2,344.1z
				"/>
			<path class="st1" d="M964.8,332.8v1.8h-4.9v3h5.8v1.8h-5.8v3.7c1.4,0.2,3,0.3,5,0.3c1,0,2-0.1,3.1-0.1l-0.4,1.9h-1.9
				c-4.2,0-7.2-0.4-9-1.1c-1.3-0.6-2.3-1.5-3.1-2.6c-0.8,1.6-1.7,3-2.8,4.1l-1.2-1.5c1.9-2,3.2-4.6,3.8-7.9l1.8,0.3
				c-0.2,1.2-0.5,2.3-0.9,3.3c0.9,1.6,2.1,2.6,3.5,3h0.2v-8.1h-5.1v-1.8L964.8,332.8L964.8,332.8z M967.2,333.5h-1.9v-2.8h-13v2.9
				h-1.9V329h7.5c-0.3-0.6-0.6-1.2-0.9-1.7l2-0.3c0.3,0.6,0.6,1.3,0.8,2.1h7.3v4.4H967.2z"/>
			<path class="st1" d="M971.6,331.1c0,2-0.3,3.9-0.6,5.7l-1.5-0.4c0.4-1.7,0.6-3.5,0.7-5.4L971.6,331.1z M974.1,327.1v18.3h-1.9
				v-18.3H974.1z M976.5,333.2c0.5-1.5,0.8-3.1,0.9-4.8l1.7,0.2c0,0.7-0.1,1.4-0.2,2.1h2.4v-3.6h1.9v3.6h4.2v1.8h-4.2v4.4h4v1.9h-4
				v4.3h4.7v1.8h-12.2v-1.8h5.6v-4.3h-4.5V337h4.5v-4.4h-2.7c-0.4,1.4-0.9,2.7-1.5,3.9l-1.4-1.2c0.2-0.3,0.3-0.6,0.4-0.9l-0.9,0.2
				c-0.3-1.2-0.6-2.4-1.1-3.5l1.4-0.4C975.9,331.3,976.2,332.2,976.5,333.2z"/>
		</g>
	</g>
	<g>
		<g>
			<path class="st1" d="M16.9,328.6h7.8v1.8H6.9v-1.8h7.9c-0.2-0.5-0.4-0.9-0.6-1.3l2.1-0.4C16.6,327.4,16.7,328,16.9,328.6z
				 M19.8,345.4l-0.4-1.7l1.5,0.1c0.7,0,1.1-0.3,1.1-0.8v-5H9.6v7.5H7.8v-9.2h16v7.1c0,1.3-0.8,2-2.4,2H19.8z M21.6,331.3v4.2H10.1
				v-4.2H21.6z M19.9,338.9v4.2h-8.1v-4.2H19.9z M19.8,332.7h-7.9v1.3h7.9V332.7z M18.2,340.3h-4.8v1.4h4.8V340.3z"/>
			<path class="st1" d="M31.4,335l-1.3,1.3c-0.8-0.9-2-1.9-3.4-2.9l1.3-1.3C29.3,333,30.4,334,31.4,335z M31.4,338.1
				c-0.8,2.5-1.7,4.9-2.8,7.2l-1.8-0.8c1.1-2.3,2.1-4.7,2.9-7.1L31.4,338.1z M31.9,330.1l-1.3,1.3c-0.8-0.9-2-1.9-3.4-2.9l1.4-1.3
				C29.8,328.2,31,329.2,31.9,330.1z M39.7,327v2.4h4.9v0.9c-0.2,1.2-0.6,2.3-1.1,3.5l-1.8-0.5c0.4-0.6,0.7-1.4,0.9-2.2h-2.9v3.6
				h3.6v1.6c-0.5,1.9-1.3,3.6-2.5,5c1.2,0.9,2.8,1.8,4.5,2.5l-1.1,1.7c-1.9-0.8-3.4-1.8-4.7-2.9c-1.4,1.2-3,2.2-5,3l-1.2-1.5
				c2-0.7,3.6-1.6,4.9-2.7c-1.4-1.5-2.4-3.1-2.8-4.9h-0.8c-0.2,3.5-1.1,6.5-2.8,9l-1.5-1.3c1.6-2.3,2.4-5.2,2.5-8.7v-6.1h5V327H39.7
				z M34.6,331.1v3.6h3.3v-3.6H34.6z M41.4,336.5h-4.3c0.4,1.4,1.2,2.6,2.3,3.7C40.3,339.1,40.9,337.9,41.4,336.5z"/>
			<path class="st1" d="M60.4,327.1v3.6h4c0,6.7-0.1,10.9-0.3,12.4c-0.2,1.4-1.1,2.2-2.6,2.2c-0.4,0-1,0-1.9-0.1l-0.5-1.7
				c0.8,0.1,1.5,0.1,2.1,0.1c0.7,0,1-0.4,1.2-1.3c0.1-1,0.2-4.3,0.2-9.9h-2.2v0.7c-0.1,5.6-1.3,9.6-3.6,12.2l-1.1-1
				c-2.6,0.3-5.6,0.6-8.9,0.8l-0.2-1.7c1.4-0.1,2.8-0.2,4.1-0.3v-1.4h-3.4v-1.6h3.4V339h-3.5v-6.4h3.5v-1h-3.9V330h3.9v-1
				c-1,0.1-2.2,0.1-3.3,0.1l-0.5-1.5c3.4,0,6.2-0.3,8.5-0.8l0.8,1.4c-1.1,0.3-2.3,0.5-3.7,0.6v1.2h3.8v1.6h-3.8v1H56v6.4h-3.5v1.1
				H56v1.6h-3.5v1.2c1.2-0.1,2.4-0.2,3.4-0.4v0.9c1.8-2.3,2.7-5.8,2.7-10.5v-0.7h-1.8v-1.7h1.8v-3.6h1.8V327.1z M50.8,335.4v-1.2
				h-1.9v1.2H50.8z M50.8,336.7h-1.9v1.2h1.9V336.7z M52.3,335.4h1.9v-1.2h-1.9V335.4z M54.3,336.7h-1.9v1.2h1.9V336.7z"/>
			<path class="st1" d="M68.6,331.1c0,2-0.3,3.9-0.6,5.7l-1.5-0.4c0.4-1.7,0.6-3.5,0.7-5.4L68.6,331.1z M71.1,327.1v18.3h-1.9v-18.3
				H71.1z M73.5,333.2c0.5-1.5,0.8-3.1,0.9-4.8l1.7,0.2c0,0.7-0.1,1.4-0.2,2.1h2.4v-3.6h1.9v3.6h4.2v1.8h-4.2v4.4h4v1.9h-4v4.3H85
				v1.8H72.8v-1.8h5.6v-4.3h-4.5V337h4.5v-4.4h-2.7c-0.4,1.4-0.9,2.7-1.5,3.9l-1.4-1.2c0.2-0.3,0.3-0.6,0.4-0.9l-0.9,0.2
				c-0.3-1.2-0.6-2.4-1.1-3.5l1.4-0.4C72.9,331.3,73.2,332.2,73.5,333.2z"/>
		</g>
	</g>
	<line class="st2" x1="95.4" y1="339" x2="897" y2="339"/>
	<line class="st2" x1="496.2" y1="43.4" x2="496.2" y2="643.4"/>
	<circle class="st3" cx="677.3" cy="195.9" r="55"/>
	<circle class="st4" cx="239.1" cy="118.9" r="55"/>
	<g>
		<path class="st1" d="M224.1,125.9c-0.7,1.4-1.6,2.7-2.5,3.7l-1.5-1.1c1-0.9,1.8-2.1,2.5-3.4L224.1,125.9z M223.4,111.2v2.1h3.5v-2
			h1.8v2h1v1.8h-1v8h1.1v1.8h-9.6v-1.8h1.3v-8h-1.1v-1.8h1.1v-2.1H223.4z M223.4,115.1v1.6h3.5v-1.6H223.4z M226.8,119.9v-1.6h-3.5
			v1.6H226.8z M226.8,123.1v-1.6h-3.5v1.6H226.8z M228.9,127.9c1.1-1.8,1.7-3.9,1.7-6.5v-9.6h7.1v15.7c0,1.3-0.7,1.9-2,1.9h-2.1
			l-0.5-1.9c0.7,0,1.4,0.1,2,0.1c0.4,0,0.7-0.3,0.7-0.8v-3.6h-3.4c-0.3,2.6-1.1,4.8-2.4,6.6l-1.4-1.3l-1.1,0.8c-0.5-1-1.2-2.1-2-3.3
			l1.5-0.9C227.8,126.1,228.4,127.1,228.9,127.9z M235.8,113.6h-3.3v3.1h3.3V113.6z M232.5,121.4h3.3v-3.1h-3.3V121.4z"/>
		<path class="st1" d="M255.9,119v7.9h-3.8c2.2,0.3,4.2,0.7,6.2,1.2l-0.6,1.5c-2.2-0.6-4.4-1.1-6.8-1.5l0.6-1.3h-4.8l0.8,1.1
			c-1.5,0.7-3.7,1.2-6.5,1.6l-0.8-1.4c2.6-0.3,4.6-0.8,6-1.3h-3.6V119H255.9z M240.9,116.6l-0.6-1.8c2.4-1.1,4.1-2.3,5.3-3.7
			l1.6,0.8c-0.5,0.7-1.2,1.5-2,2.1v4.4h-1.8v-3.1C242.5,115.7,241.7,116.2,240.9,116.6z M254,121.4v-0.9h-9.5v0.9H254z M254,123.4
			v-0.9h-9.5v0.9H254z M254,124.6h-9.5v0.9h9.5V124.6z M251,118.2c-1.3,0-2-0.6-2-1.9v-5.1h1.9v1.9l6.3-0.4v1.7l-6.3,0.4v1.2
			c0,0.4,0.2,0.7,0.6,0.7h3.6c0.4,0,0.6-0.1,0.8-0.2c0.2-0.2,0.3-0.6,0.4-1.3l1.7,0.6c-0.2,1.2-0.4,1.9-0.8,2.2
			c-0.4,0.2-0.9,0.3-1.7,0.3L251,118.2L251,118.2z"/>
	</g>
	<circle class="st4" cx="341.1" cy="227.4" r="55"/>
	<g>
		<path class="st1" d="M330.1,232.4c0,1.3-0.7,1.9-2,1.9h-1.5l-0.5-1.7c0.5,0,1,0.1,1.5,0.1s0.7-0.3,0.7-1v-4.2
			c-0.9,0.2-1.8,0.4-2.8,0.5c-0.2,2.5-0.7,4.6-1.6,6.3l-1.4-1.3c0.9-1.8,1.3-4,1.4-6.7v-9.9h6.2L330.1,232.4L330.1,232.4z
			 M328.3,221.9v-3.6h-2.7v3C326.5,221.5,327.4,221.7,328.3,221.9z M328.3,226v-2.4c-0.9-0.2-1.8-0.5-2.7-0.6v3.5
			C326.6,226.3,327.5,226.1,328.3,226z M339.7,224.3v1.8c-0.5,1.8-1.3,3.4-2.5,4.7c1.1,0.8,2.4,1.5,3.9,2.1l-1,1.6
			c-1.6-0.7-3-1.6-4.1-2.5c-1.3,1-2.8,1.9-4.6,2.5l-1-1.6c1.6-0.6,3-1.3,4.2-2.2c-1.3-1.4-2.1-2.9-2.6-4.5h-0.9v-1.8h8.6V224.3z
			 M338.8,216.6v4.2c0,0.4,0.2,0.7,0.6,0.7h1.4v1.8h-1.9c-1.3,0-2-0.7-2-2v-2.8H334v0.9c0,2-0.8,3.5-2.2,4.6l-1.3-1.4
			c1.1-0.7,1.7-1.7,1.7-3v-2.9h6.6V216.6z M335.8,229.5c0.9-1,1.6-2.1,2.1-3.3h-4.2C334.1,227.4,334.8,228.5,335.8,229.5z"/>
		<path class="st1" d="M360.7,216.6v1.6h-5.9v1.3h4.5v4.7h-15.1v-4.7h4.5v-1.3h-5.9v-1.6H360.7z M360.4,228.1v1.6h-7.5v4.7h-1.8
			v-4.7h-7.9v-1.6H360.4z M349.4,231.3c-1.3,1.1-3,2.1-4.9,2.9l-1.1-1.5c1.9-0.7,3.5-1.6,4.8-2.6L349.4,231.3z M358.5,225.4v1.6
			h-13.4v-1.6H358.5z M348.7,221.1h-2.6v1.6h2.6V221.1z M353.1,218.3h-2.6v1.3h2.6V218.3z M353.1,221.1h-2.6v1.6h2.6V221.1z
			 M360.6,232.9l-1.3,1.3c-1.1-0.9-2.6-1.8-4.5-2.9l1.3-1.2C357.9,231,359.4,232,360.6,232.9z M357.5,221.1h-2.6v1.6h2.6V221.1z"/>
	</g>
	<g>
		<path class="st1" d="M671.3,190.8c-0.1,0.1-0.2,0.2-0.3,0.3s-0.2,0.1-0.3,0.1s-0.3-0.1-0.5-0.2s-0.4-0.2-0.6-0.3
			c-0.2-0.1-0.5-0.2-0.8-0.3s-0.7-0.2-1.1-0.2c-0.4,0-0.7,0-1,0.1s-0.5,0.2-0.7,0.4s-0.3,0.4-0.4,0.6c-0.1,0.2-0.1,0.5-0.1,0.7
			c0,0.3,0.1,0.6,0.3,0.9c0.2,0.2,0.4,0.4,0.8,0.6s0.7,0.3,1.1,0.4s0.8,0.3,1.2,0.4c0.4,0.1,0.8,0.3,1.2,0.5s0.8,0.4,1.1,0.7
			s0.6,0.6,0.8,1.1c0.2,0.4,0.3,0.9,0.3,1.5c0,0.7-0.1,1.3-0.3,1.8c-0.2,0.6-0.5,1.1-1,1.5c-0.4,0.4-1,0.8-1.6,1s-1.3,0.4-2.1,0.4
			c-0.5,0-0.9,0-1.4-0.1c-0.4-0.1-0.9-0.2-1.3-0.4c-0.4-0.2-0.8-0.4-1.1-0.6s-0.7-0.5-1-0.8l0.8-1.3c0.1-0.1,0.2-0.2,0.3-0.2
			s0.2-0.1,0.3-0.1c0.2,0,0.3,0.1,0.5,0.2s0.4,0.3,0.7,0.5s0.6,0.3,0.9,0.5s0.8,0.2,1.3,0.2c0.8,0,1.4-0.2,1.8-0.5
			c0.4-0.4,0.6-0.9,0.6-1.6c0-0.4-0.1-0.7-0.3-0.9s-0.4-0.4-0.8-0.6c-0.3-0.2-0.7-0.3-1.1-0.4s-0.8-0.2-1.2-0.4
			c-0.4-0.1-0.8-0.3-1.2-0.5s-0.8-0.4-1.1-0.7s-0.6-0.7-0.8-1.1c-0.2-0.5-0.3-1-0.3-1.7c0-0.5,0.1-1,0.3-1.5s0.5-0.9,0.9-1.3
			s0.9-0.7,1.5-0.9s1.3-0.4,2-0.4c0.9,0,1.6,0.1,2.4,0.4s1.3,0.6,1.8,1.1L671.3,190.8z"/>
		<path class="st1" d="M676.9,200.4h5.8v2.2h-8.5v-14.5h2.7V200.4z"/>
		<path class="st1" d="M693,188.2v2.2h-4.3v12.2H686v-12.2h-4.4v-2.2H693z"/>
	</g>
	<g>
		<g>
			<path class="st4" d="M177.2,1.1c1.9,0,1.9-3,0-3S175.3,1.1,177.2,1.1L177.2,1.1z"/>
		</g>
	</g>
	<g>
		<path class="st1" d="M591.7,435.5c-1.4,4-3.3,7.1-5.6,9.2l-1.5-1.3c2.4-2.2,4.2-5,5.3-8.6L591.7,435.5z M601.1,451.8l-1.8,0.8
			c-0.3-0.7-0.5-1.3-0.8-1.9c-3.5,0.5-7.4,0.9-11.6,1.2l-0.3-1.8c1.4-0.5,3.4-3.5,5.9-9.2l1.9,0.6c-1.6,3.4-3.2,6.2-4.9,8.4
			c2.8-0.2,5.6-0.5,8.2-0.9c-0.7-1.3-1.4-2.5-2.1-3.6l1.7-0.6C598.8,447.1,600.1,449.4,601.1,451.8z M598,434.7
			c0.7,3.5,2.3,6.4,4.8,8.6l-1.5,1.3c-2.4-2.2-3.9-4.9-4.8-8.1h-3.2v-1.8H598z"/>
		<path class="st1" d="M610,434.9c-0.4,1.2-0.8,2.5-1.4,3.6v14.1h-1.9v-10.9c-0.6,0.8-1.2,1.6-1.8,2.3l-0.6-1.9c1.8-2.3,3.1-5,4-8.1
			L610,434.9z M621.3,441.8v7.9h-2.9c1.6,0.3,3.1,0.8,4.6,1.3l-0.6,1.5c-1.6-0.7-3.4-1.2-5.1-1.6l0.6-1.3h-3.4l0.9,1
			c-1.4,0.8-3.1,1.4-5.2,2l-0.7-1.5c1.8-0.4,3.4-0.8,4.6-1.4H611v-7.9H621.3z M617.1,434.1v1h5.1v1.5h-5.1v0.8h4.4v1.5h-4.4v0.8h5.6
			v1.5H610v-1.5h5.3v-0.8H611v-1.5h4.2v-0.8h-4.9v-1.5h4.9v-1H617.1z M619.5,444.1v-0.8h-6.8v0.8H619.5z M619.5,446.2v-0.8h-6.8v0.8
			H619.5z M619.5,447.5h-6.8v0.8h6.8V447.5z"/>
	</g>
	<g>
		<path class="st1" d="M688.1,486.3v1.8h-4.9v3h5.8v1.8h-5.8v3.7c1.4,0.2,3,0.3,5,0.3c1,0,2-0.1,3.1-0.1l-0.4,1.9H689
			c-4.2,0-7.2-0.4-9-1.1c-1.3-0.6-2.3-1.5-3.1-2.6c-0.8,1.6-1.7,3-2.8,4.1l-1.2-1.5c1.9-2,3.2-4.6,3.8-7.9l1.8,0.3
			c-0.2,1.2-0.5,2.3-0.9,3.3c0.9,1.6,2.1,2.6,3.5,3h0.2v-8.1h-5.1v-1.8L688.1,486.3L688.1,486.3z M690.5,487h-1.9v-2.8h-13v2.9h-1.9
			v-4.6h7.5c-0.3-0.6-0.6-1.2-0.9-1.7l2-0.3c0.3,0.6,0.6,1.3,0.8,2.1h7.3v4.4H690.5z"/>
		<path class="st1" d="M699,482.4c0.2-0.7,0.4-1.3,0.6-1.9l1.9,0.2c-0.2,0.6-0.3,1.2-0.5,1.7h10v1.9h-10.7c-0.7,1.7-1.6,3.3-2.7,4.7
			v10h-1.9v-7.9c-0.5,0.6-1.1,1.1-1.6,1.6l-1.2-1.5c2.3-2,4.1-4.3,5.3-7h-4.5v-1.9L699,482.4L699,482.4z M704.5,491.8v-1.6
			c1.1-0.6,2.1-1.3,3.1-2.1h-7.2v-1.7h9.6v1.7c-1.1,1-2.2,2-3.6,2.9v0.9h4.8v1.8h-4.8v3.3c0,1.4-0.7,2.1-2,2.1h-2.5l-0.5-1.8
			c0.7,0,1.4,0.1,2.2,0.1c0.6,0,0.9-0.3,0.9-0.9v-2.7h-5.6V492h5.6V491.8z"/>
	</g>
	<g>
		<path class="st1" d="M746.1,551.4l-1.3,1.3c-0.8-0.9-2-1.9-3.5-3l1.3-1.3C744,549.5,745.2,550.4,746.1,551.4z M746.4,554.5
			c-0.8,2.6-1.8,5-2.8,7.2l-1.9-0.8c1.1-2.3,2.1-4.6,2.9-7L746.4,554.5z M746.5,546.3l-1.3,1.3c-0.8-0.8-1.9-1.7-3.4-2.7l1.3-1.2
			C744.5,544.6,745.6,545.5,746.5,546.3z M752.1,549.2v-2.7c-1.4,0.1-3,0.2-4.6,0.2l-0.6-1.7c4.3,0,8-0.5,10.9-1.4l0.9,1.6
			c-1.4,0.5-3,0.9-4.8,1.1v2.9h5.6v1.8H754v2.6h4.4v8.3h-1.9v-1h-6.8v1h-1.9v-8.4h4.3V551h-5.5v-1.8H752.1z M756.5,559.2v-3.8h-6.8
			v3.8H756.5z"/>
		<path class="st1" d="M767.3,545.3c0.2-0.7,0.4-1.3,0.6-1.9l1.9,0.2c-0.2,0.6-0.3,1.2-0.5,1.7h10v1.9h-10.7
			c-0.7,1.7-1.6,3.3-2.7,4.7V562H764v-7.9c-0.5,0.6-1.1,1.1-1.6,1.6l-1.2-1.5c2.3-2,4.1-4.3,5.3-7H762v-1.9L767.3,545.3L767.3,545.3
			z M772.8,554.7v-1.6c1.1-0.6,2.1-1.3,3.1-2.1h-7.2v-1.7h9.6v1.7c-1.1,1-2.2,2-3.6,2.9v0.9h4.8v1.8h-4.8v3.3c0,1.4-0.7,2.1-2,2.1
			h-2.5l-0.5-1.8c0.7,0,1.4,0.1,2.2,0.1c0.6,0,0.9-0.3,0.9-0.9v-2.7h-5.6v-1.8h5.6V554.7z"/>
	</g>
</g>
</svg>
