<svg xmlns="http://www.w3.org/2000/svg" viewBox="0 0 360 250"><defs><style>.cls-1,.cls-3{fill:none;stroke:#fff;}.cls-1{stroke-linecap:round;stroke-linejoin:round;stroke-width:3px;}.cls-2{fill:#fff;}.cls-3{stroke-miterlimit:10;}</style></defs><title>trustworthy</title><g id="content"><polyline class="cls-1" points="102.98 108.78 162.87 72.15 179.43 80.98"/><polyline class="cls-1" points="273.43 109.19 224.78 72.15 163.24 84.13 142.68 114.45 154.99 118.15 177.42 100.07 255.92 143.46 248.12 155.25 207.34 133.38"/><polyline class="cls-1" points="244.38 153.24 236.94 163.35 201.81 149.72"/><polyline class="cls-1" points="230.9 161.01 223.1 171.59 196.16 161.76"/><polyline class="cls-1" points="214.82 168.57 203.78 181.68 179.43 173.67"/><rect class="cls-2" x="80.67" y="105" width="22.66" height="41.64" rx="3.05" ry="3.05" transform="translate(12.26 -8.1) rotate(5.4)"/><rect class="cls-2" x="275.06" y="105" width="22.66" height="41.64" rx="3.05" ry="3.05" transform="translate(583.36 224.12) rotate(174.6)"/><rect class="cls-1" x="143.34" y="135.65" width="13.91" height="34.75" rx="2.18" ry="2.18" transform="translate(132.81 -60.75) rotate(39.81)"/><rect class="cls-1" x="132.4" y="127.09" width="13.91" height="34.75" rx="2.18" ry="2.18" transform="translate(124.79 -55.73) rotate(39.81)"/><rect class="cls-1" x="154.36" y="144.32" width="13.91" height="34.75" rx="2.18" ry="2.18" transform="translate(140.91 -65.79) rotate(39.81)"/><rect class="cls-1" x="165.83" y="152.7" width="13.91" height="34.75" rx="2.18" ry="2.18" transform="translate(148.94 -71.19) rotate(39.81)"/><line class="cls-1" x1="101.69" y1="143.81" x2="123.45" y2="152.7"/><line class="cls-1" x1="276.78" y1="143.39" x2="251.78" y2="149.72"/><line class="cls-3" x1="225.2" y1="80.87" x2="267.67" y2="113.7"/><line class="cls-3" x1="109.67" y1="113.7" x2="161.31" y2="80.87"/></g></svg>