<?xml version="1.0" standalone="no"?>
<!DOCTYPE svg PUBLIC "-//W3C//DTD SVG 20010904//EN"
 "http://www.w3.org/TR/2001/REC-SVG-20010904/DTD/svg10.dtd">
<svg version="1.0" xmlns="http://www.w3.org/2000/svg"
 width="1024.000000pt" height="1024.000000pt" viewBox="0 0 1024.000000 1024.000000"
 preserveAspectRatio="xMidYMid meet">
<metadata>
Created by potrace 1.11, written by Peter Selinger 2001-2013
</metadata>
<g transform="translate(0.000000,1024.000000) scale(0.100000,-0.100000)"
fill="#000000" stroke="none">
<path d="M5045 9374 c-33 -14 -98 -41 -145 -61 -47 -19 -99 -41 -117 -49 -17
-8 -33 -14 -36 -14 -3 0 -40 -16 -81 -35 -42 -19 -81 -35 -86 -35 -6 0 -18 -4
-28 -10 -22 -12 -61 -28 -202 -85 -63 -25 -131 -53 -150 -62 -58 -25 -88 -38
-235 -98 -77 -31 -153 -63 -170 -71 -16 -7 -55 -23 -85 -34 -30 -12 -68 -28
-85 -35 -16 -7 -79 -34 -140 -59 -60 -24 -180 -74 -265 -109 -85 -35 -234 -97
-330 -136 -96 -40 -184 -76 -195 -82 -11 -5 -74 -31 -140 -58 l-120 -49 -2
-1643 -3 -1644 133 -54 c72 -30 150 -62 172 -72 22 -9 92 -38 155 -64 63 -25
129 -52 145 -60 17 -7 55 -23 85 -35 30 -12 71 -28 90 -37 66 -29 75 -32 165
-69 50 -20 104 -42 120 -49 17 -8 71 -30 120 -50 50 -21 104 -43 120 -50 17
-7 44 -18 60 -25 400 -165 787 -325 810 -335 28 -13 482 -201 508 -211 10 -3
12 82 12 384 l0 388 47 -23 c27 -13 50 -23 53 -23 6 0 958 -394 1016 -420 l24
-11 0 -602 0 -602 -30 -15 c-16 -9 -46 -22 -65 -29 -19 -8 -53 -22 -76 -32
-22 -10 -65 -28 -95 -39 -30 -12 -65 -27 -79 -33 -14 -6 -27 -11 -30 -12 -3
-1 -16 -6 -30 -12 -14 -6 -92 -39 -175 -73 -82 -34 -163 -68 -180 -75 -123
-53 -375 -155 -384 -155 -6 0 -41 13 -78 30 -61 26 -469 196 -693 287 -47 19
-148 61 -225 93 -77 32 -288 119 -470 194 -181 75 -339 141 -350 146 -11 5
-87 37 -170 70 -82 34 -202 83 -265 110 -99 41 -390 162 -427 177 -10 4 -13
-167 -13 -834 l0 -839 58 -24 c31 -12 75 -31 97 -40 22 -10 157 -66 300 -124
143 -59 269 -111 280 -116 56 -25 172 -73 275 -115 170 -70 1220 -505 1255
-520 17 -7 109 -45 205 -85 96 -39 185 -76 197 -82 16 -8 30 -8 55 2 50 20
240 100 263 110 11 5 61 25 110 46 153 62 238 97 580 239 182 75 404 167 495
205 91 37 300 124 465 193 165 68 390 161 500 207 110 45 211 87 225 94 l25
11 0 1641 0 1642 -405 167 c-223 92 -425 176 -449 187 -24 10 -64 27 -90 38
-25 10 -282 116 -571 235 -289 120 -550 228 -580 240 -92 37 -523 216 -557
231 -17 8 -33 14 -36 14 -2 0 -4 -173 -3 -385 1 -212 0 -385 -1 -385 -5 0
-187 76 -268 111 -19 8 -837 346 -862 356 -10 4 -13 135 -13 608 0 644 -2 614
50 630 14 4 43 15 65 25 40 18 350 146 680 282 94 38 179 74 190 79 11 5 51
22 88 37 l69 29 131 -54 c198 -82 299 -124 332 -138 17 -7 172 -72 345 -143
173 -72 452 -187 620 -256 304 -127 334 -139 570 -237 69 -28 139 -57 155 -64
17 -7 109 -45 205 -85 206 -85 231 -95 288 -121 23 -10 43 -15 43 -11 1 4 2
381 3 839 l1 832 -245 102 c-135 55 -259 107 -276 115 -17 7 -87 36 -155 64
-355 146 -750 310 -784 325 -16 8 -82 35 -145 60 -63 26 -128 53 -145 60 -16
7 -190 79 -385 160 -195 80 -398 164 -450 186 -52 21 -102 39 -110 39 -8 -1
-42 -12 -75 -26z"/>
</g>
</svg>
